<?xml version="1.0" encoding="utf-8"?>
<!-- Generator: Adobe Illustrator 19.0.0, SVG Export Plug-In . SVG Version: 6.00 Build 0)  -->
<svg version="1.1" xmlns="http://www.w3.org/2000/svg" xmlns:xlink="http://www.w3.org/1999/xlink" x="0px" y="0px"
	 viewBox="105 -74.5 1052.5 743.8" style="enable-background:new 105 -74.5 1052.5 743.8;" xml:space="preserve">
<style type="text/css">
	.st0{display:none;}
	.st1{display:inline;opacity:0.5;fill:#FFFFFF;stroke:#000000;stroke-width:1.3605;enable-background:new    ;}
	.st2{display:inline;opacity:0.25;fill:#FFFFFF;stroke:#000000;stroke-width:1.3605;enable-background:new    ;}
	.st3{display:inline;opacity:0.5;fill:none;enable-background:new    ;}
	.st4{opacity:0.5;fill:#12EF00;stroke:#000000;stroke-width:1.3605;enable-background:new    ;}
	.st5{opacity:0.25;fill:#12EF00;stroke:#000000;stroke-width:1.3605;enable-background:new    ;}
</style>
<g id="Layer_1" class="st0">
	<path class="st1" d="M1028.5,324.4c-1.9-2.2-0.5-6,2.5-7c2.5-0.8,4.9,4.9,3,7.2C1031.9,327.1,1030.7,327,1028.5,324.4z
		 M1012.1,312.2c-1.5-3.2-1.2-3.9,3.4-8.1c5.2-4.8,11.3-6.1,12.6-2.7c1.1,3-3.2,10-7.5,12.2C1015.2,316.5,1014,316.3,1012.1,312.2
		L1012.1,312.2z M1080.2,290.1c-2.4-0.6-5.3-1.8-6.4-2.7c-1.7-1.4-2.5-1.3-4.6,0.6c-2.4,2.1-2.9,2.1-6.7,0.2
		c-6.9-3.6-5.7-7.9,5-18.5c6.7-6.7,10.4-9.2,14-9.9c4.2-0.8,5.1-0.5,5.8,1.9c0.7,2.3,1.4,2.6,3.4,1.5c1.4-0.7,4-1.3,5.9-1.3
		c2.6,0,3.7,1,4.9,4.6c1.3,4,1.1,5.5-1.4,10.5c-3.6,7.1-10.5,14.6-13.3,14.5C1085.5,291.2,1082.6,290.7,1080.2,290.1L1080.2,290.1z
		 M1125.8,251.7c-2.4-2.8-0.5-7.2,4.2-9.6c3.7-1.9,4.7-1.9,10.7,0.1c9.4,3.1,9.1,6.5-0.6,9.3C1131,254.2,1127.8,254.2,1125.8,251.7
		L1125.8,251.7z"/>
	<path class="st1" d="M849.2,641.5c-0.3-0.3-6.5-2.2-13.7-4.1c-13.4-3.6-27.2-9.3-36-14.7c-6.5-4-23.7-10.3-28.2-10.3
		c-2,0-6.9,1.5-10.9,3.4c-5.7,2.7-8.5,3.2-13,2.6c-4.2-0.6-7-0.2-11,1.9c-12.5,6.4-27.9,8.4-42.3,5.4c-7.4-1.5-7.8-1.4-14.9,2.6
		c-4.4,2.5-10.3,4.5-14.7,5c-6.4,0.8-8.6,0.4-16.3-3.1c-4.9-2.2-13.8-7.1-19.9-10.9s-16.5-9.1-23.2-11.8
		c-11.2-4.5-12.8-5.6-19.2-13.5c-9.5-11.6-12.2-12.1-27.7-4.7c-6.4,3.1-12.5,5.6-13.5,5.6c-4.8,0-17.6,7.3-22.1,12.7
		c-3.9,4.7-18.5,31.4-18.5,33.8c0,0.4,77.8,0.7,172.8,0.7S849.5,641.8,849.2,641.5L849.2,641.5z"/>
	<path id="Cadiz" class="st1" d="M582.7,560.1c1.2-1.3,3-4.8,3.9-7.8c1.3-3.9,2.5-5.4,4.4-5.4c3.8,0,6.5-4.2,5.6-8.6
		c-0.4-2-2.9-6-5.5-8.8c-6.9-7.4-7.5-11.2-2.4-15.2c3.5-2.7,4.2-4.4,5-11.3c1.1-9.4,3.7-11.9,10-9.7c3.3,1.2,4,0.9,6-2.5
		c3-5.1,3-5.2-3.1-3.6c-4.6,1.2-5.7,1.1-8.1-1.1c-2.6-2.4-3.1-2.4-6.5-0.4c-5.4,3.1-10.8,4.1-13.8,2.5c-2.1-1.1-4.5-0.5-11.8,3.2
		c-5,2.5-11.5,5.3-14.3,6.2c-5.1,1.6-5.3,1.6-9.6-3.2c-5.1-5.5-5.7-5.7-12-2.7c-4.9,2.3-9.6,10-8.4,13.8c0.4,1.2,3.4,3.9,6.8,6
		c5.9,3.7,11.5,9.5,11.5,11.9c0,0.6-1.2,2.2-2.7,3.5c-3.8,3.2-3.4,4.7,2.6,11.7c2.9,3.4,5.7,7.3,6.2,8.9c0.8,2.4,1.1,2.5,2.9,0.7
		c2.7-2.7,2.7-2.7,11.7,2.7c4.3,2.6,8.3,4.7,8.9,4.7s2.5,1.5,4.2,3.4C577.9,563.1,579.7,563.3,582.7,560.1L582.7,560.1z"/>
	<path id="Malaga" class="st1" d="M609.5,531.8c7.4-7,8.7-7.7,13.8-7.6c3.1,0.1,7.4,0.6,9.5,1.1c3.5,0.9,4.6,0.2,11.4-6.9
		c4.1-4.3,8.6-8.7,9.9-9.7c4.7-3.6,21.9-6,39.1-5.7c5.7,0.1,10.5,0,10.5-0.4c0-4.5-17.3-14.5-28.4-16.3c-6.1-1-8.9-4.6-6.8-8.6
		c0.9-1.7,0.9-3-0.1-3.9c-1-1-1-2.2,0.1-4.2c2-3.8,2-3.9-2.6-6.3c-3.8-2-4.3-1.9-7.6,0.6c-4.1,3.2-6.6,3.4-11.5,0.9
		c-3.3-1.7-4-1.6-7.9,1.3c-2.9,2.2-5.4,3-7.8,2.5c-3-0.6-4.1,0.2-7.4,5.5c-2.1,3.4-5,6.8-6.4,7.5s-2.6,2.6-2.6,4.2
		c0,2.5-4.8,11.9-6.1,11.9c-0.3,0-2-0.6-3.9-1.3c-5.7-2.2-7.3-0.5-8.3,8.2c-0.7,6.6-1.6,8.6-4.9,11.3l-4,3.3l2.9,4.7
		c1.6,2.6,4,5.5,5.3,6.4s2.8,3.4,3.3,5.4c0.5,2,1.3,3.7,1.7,3.7S605,536.1,609.5,531.8L609.5,531.8z"/>
	<path id="Granada" class="st1" d="M735.6,503.2c4.6-1.2,9.5-3.2,10.8-4.3s3.8-2.8,5.6-3.7c2.7-1.4,3-2.3,2.3-6.1
		c-0.7-3.5,0.1-6.5,3.5-13.4c3.8-7.6,5-9,8.7-9.7c4.3-0.8,9-6.8,15.7-20.2c1.1-2.3,4.3-5.3,7-6.7c6.6-3.5,10.1-10.5,10.1-20.1
		c0-4.1,0.7-8.6,1.6-10c2.2-3.6-2.1-9-9.1-11.3c-5.4-1.8-5.7-1.8-10.4,2.3c-2.7,2.3-6.8,5.7-9.1,7.5c-2.7,2.2-5.5,6.7-7.8,12.6
		c-3.3,8.4-4.1,9.4-8.8,11c-2.9,1-7.5,1.8-10.2,1.7c-2.7,0-7.5,1.2-10.6,2.8c-3.4,1.7-6.9,2.6-8.7,2.1c-2.2-0.6-4,0.2-6.3,2.7
		c-1.8,1.9-4.2,3.5-5.4,3.5c-4.3,0.1-12.6,3.8-14.4,6.5c-1.7,2.4-3,2.7-9.7,2.2c-6.5-0.5-8.3-0.1-11.3,2.4
		c-4.2,3.5-9.5,16.3-7.5,18.3c0.8,0.8,0.8,2.2-0.1,3.9c-1.9,3.6-0.5,5.3,6,7c11,3,26.2,10.9,27.5,14.4c1.1,2.8,2.1,3.3,7.1,3.3
		c4.2,0,6.6,0.8,8.4,2.7c1.5,1.7,3.3,2.4,4.6,1.8C726.3,505.9,731,504.4,735.6,503.2L735.6,503.2z"/>
	<path id="Almeria" class="st1" d="M778.5,503.2c1-3.3,10-10.8,12.8-10.8c4.9,0,12.6,3.1,16.7,6.8c5.1,4.5,5.7,4.2,12.6-4.8
		c2.6-3.4,5.2-9.3,6.8-15.7c2.8-10.9,10.4-24.9,15.9-29.2c3.4-2.6,2.6-4.9-1.2-3.4c-1.1,0.4-4.4-0.5-7.4-2c-4-2.1-5.6-3.8-6.2-7
		c-0.5-2.3-3.3-7.3-6.2-11c-5.9-7.4-5.9-7.5-4.1-10.4c2-3.2-2.3-6.8-8-6.8c-6.6,0-8.2,1.9-8.2,10.3c0,10-4.4,18.5-11.8,22.8
		c-3.2,1.9-5.8,4.1-5.8,4.9s-2.5,5.7-5.5,10.7c-4.6,7.7-6.3,9.4-10.5,10.5c-4.2,1.1-5.5,2.5-8.6,8.8c-2.9,5.9-3.5,8.6-2.8,12.7
		c0.8,4.9,0.6,5.4-3.7,7.6c-5.2,2.7-5,2.8,8.9,6.3C774.1,506.4,777.5,506.4,778.5,503.2z"/>
	<path id="Sevilla" class="st1" d="M564.4,489.6c9.4-4.4,11.7-5,14.4-3.8c2.6,1.2,4.4,0.9,9.2-1.4c7-3.4,9.5-3.6,11.8-0.8
		c0.9,1.1,2.7,2,4,2c4,0,14.1-7.7,17.6-13.5c3.2-5.2,7.8-8,10.6-6.2c0.7,0.4,3-0.5,5.1-2.1l4.4-3.4c1.7-1.3-1.4-1.8-3.6-0.6
		c-4.6,2.5-8.3,0.4-9.9-5.7c-0.8-3.1-2.4-6.6-3.5-7.8c-1.7-1.9-1.8-3.4-0.5-9.2c0.8-3.8,1.5-7.2,1.5-7.5s-1.7-1.5-3.8-2.5
		c-3.5-1.8-3.9-1.7-5.5,0.7c-1.2,1.9-2.5,2.4-4.4,1.8c-1.8-0.6-4.6,0.4-8.1,2.7c-4.3,2.8-5.8,3.2-7.3,2c-2.2-1.8-2.6-6.1-0.6-7.3
		c2.8-1.7,1.2-8-3.9-15.6c-2.9-4.3-6.3-10.9-7.7-14.7c-2.1-5.9-3-6.8-6.1-6.8c-2,0-4.3-0.9-5.2-2c-1.4-1.7-2.2-1.7-6,0.2
		c-3.4,1.6-4.8,3.5-6.3,8.4c-1.5,5-2.4,6.2-4.6,5.9c-1.5-0.2-5.3,0-8.5,0.4l-5.8,0.8l0.9,5.8c0.8,5.2,0.5,6.1-2.8,8.7
		c-2.3,1.8-5.6,2.9-8.8,2.9c-4.2,0-5.7,0.8-8.1,4.2l-3,4.2l4.9,5c4.3,4.4,4.9,5.8,4.8,11.7c0,3.7-0.1,8.2-0.1,10s-0.3,10.2-0.7,18.5
		s-0.4,15.2,0,15.2s2.2-0.7,3.9-1.5c3.9-1.8,10.7,1.2,13.1,5.6C547.7,497.1,549.2,496.8,564.4,489.6L564.4,489.6z"/>
	<path id="Huelva" class="st1" d="M526.1,474.8c0.4-8.5,0.7-17,0.7-18.9s0-6.1,0-9.5c0-5.3-0.6-6.8-4.7-10.7
		c-5.6-5.4-5.8-7.1-1.3-13c3-3.9,4.2-4.5,9.2-4.5c7.7,0,10.8-3.2,9.5-10c-0.8-4-1.5-4.9-4.2-4.9c-1.8,0-5.1-0.9-7.3-2.1
		c-2.9-1.5-5.9-1.8-10.6-1.2c-6.4,0.8-6.7,0.7-8.8-3.3c-1.2-2.3-3.1-4.2-4.2-4.2c-1.1,0-2.7-1.5-3.5-3.2c-1.3-2.8-2-3.1-5.5-2.1
		c-2.2,0.6-4.9,2.4-6,3.9s-3.1,2.7-4.6,2.7c-4.6,0-9.2,4.1-15.6,13.9c-3.4,5.2-6.5,10.4-7,11.6c-0.5,1.2-2.6,4.6-4.7,7.7l-3.8,5.6
		l2.9,10.4c1.6,5.7,2.6,10.7,2.2,11.1c-1.3,1.3,2.1,5.7,4.4,5.7c1.3,0,5.3,1,8.8,2.2c5.9,2,6.6,2,8.8,0c3.8-3.4,7.9-2.7,10.3,1.9
		c1.2,2.2,2.7,4,3.4,4c0.7,0,3.6,2,6.4,4.5s7,5.5,9.4,6.7s6.3,4.6,8.7,7.6s4.8,4.9,5.4,4.4S525.8,483.4,526.1,474.8L526.1,474.8z"/>
	<path id="Cordoba" class="st1" d="M657.2,461.3c4.2-2.6,4.7-2.7,8.8-0.5c4.4,2.3,6.6,1.3,6.6-3c0-3.1,9.2-8.9,13-8.1
		c3.3,0.6,3.1,0.3-2-4.2c-6.3-5.5-8.8-10.8-11.7-24.5c-2.9-13.6-2.5-18.8,1.5-26.1l3.5-6.3l-3-3.2c-1.9-2-2.7-4.1-2.2-5.5
		c1.3-3.3-2.4-8.1-7-9.1c-2.2-0.4-7-3.2-10.8-6.3c-3.8-3-7.3-5.5-7.7-5.5s-3-1.5-5.7-3.4s-6-3.4-7.3-3.4s-3.2-1.7-4.3-3.8
		c-2.6-5.1-8.6-9.1-10.6-7.1c-0.8,0.8-2.4,1.5-3.4,1.5c-1.1,0-5.3,3.7-9.3,8.2c-6.5,7.1-7.8,8.1-11.1,7.3c-3.3-0.7-4-0.2-6.6,4.8
		c-2.6,5.1-2.8,6.3-1.4,13.8c1.3,7.2,1.2,8.5-0.7,9.8c-2,1.5-1.9,2.2,0.5,8.3c1.5,3.7,5.1,10.5,8.1,15.2c5.6,8.7,7,15.4,3.9,18.6
		c-3,3,0,3.2,5.6,0.3c3.1-1.6,6.4-2.7,7.5-2.5s2.8-0.8,3.9-2.3c1.9-2.6,2-2.6,7,0c6.2,3.3,6.5,4,4.7,12c-1.2,5.2-1.1,6.9,0.5,8.7
		c1.1,1.2,2.4,4.3,2.9,6.9c1.2,5.9,2.6,6.8,7.4,5c3.4-1.3,4.2-1,7.8,2.9C650.1,464.8,651.3,465,657.2,461.3L657.2,461.3z"/>
	<path id="Jaen" class="st1" d="M697.8,448.7c1.3-2.2,7.6-5.5,13.1-6.8c2.2-0.5,5.8-2.5,8-4.3c2.4-2,5.1-3.1,6.6-2.7
		c1.4,0.4,5.3-0.6,8.7-2c3.4-1.5,8.3-2.9,11.1-3.1c8.2-0.6,13.9-2.4,14.6-4.7c2.1-6.5,6.4-16,8.3-18.2c1.2-1.4,4.5-4,7.3-5.7
		c5.7-3.6,11.7-12.2,13.5-19.5c1.4-5.5-0.1-9.5-6.7-17.1c-4.5-5.3-10.3-6.4-15.3-3.1c-6.4,4.4-14.9,6.9-17.9,5.3
		c-1.5-0.8-4.5-1.1-6.8-0.6c-2.8,0.6-4.9,0.1-6.5-1.4c-2.3-2-2.7-2-6.6,1.3c-4.3,3.6-8.6,4.6-10.1,2.2c-1.4-2.3-5.9-1.5-7.4,1.3
		c-1.8,3.3-5,3.5-8.3,0.5c-2.3-2.1-2.7-2.1-4.9-0.1c-2,1.8-3.8,2-11.7,0.8c-5.1-0.7-10.1-1-11-0.7c-2.4,0.9-1.5,11,1.2,14
		c3,3.3,2.9,4.4-1.1,11.9c-3.8,7.2-4.1,12.3-1.4,25c2.6,12.3,6.1,18.6,13.7,24.5C695.3,451.1,696.3,451.4,697.8,448.7L697.8,448.7z"
		/>
	<path id="Murcia" class="st1" d="M857.4,442.4c0-3.8,11.2-9.6,16.5-8.7c2.7,0.5,6.3,0,9.4-1.3c2.8-1.2,6.8-2.1,9-2.1
		c4.3,0,6.3-3.1,4.7-7.2c-0.5-1.4,0.5-4,2.7-6.8c3.9-5.1,4.4-7.5,1.8-7.5c-1,0-3.2-2-5-4.4c-10.5-14-11.4-17.3-6.6-24
		c1.5-2.1,2.2-4.2,1.5-4.6s-1.6-2.4-2.2-4.5c-0.5-2-1.9-4.8-3.1-6.1c-1.8-2-1.9-3.1-0.6-6.5c1.6-4.2,0.5-9.5-2.4-11.3
		c-0.8-0.5-2.1-2.4-2.7-4.2c-1.1-3-1.8-3.2-9.6-2.7c-8.6,0.5-11.9,2.6-11.9,7.6c0,1.2-1.2,3.3-2.7,4.6c-2.6,2.4-2.6,2.4,0,5.8
		c4.2,5.3,3.4,8.9-2.8,13.2l-5.4,3.8l-3.1-2.9c-4.1-3.8-7.8-3.7-11.7,0.4c-2.3,2.4-4,3.1-6.4,2.5c-2.6-0.6-4.1,0.2-7.5,4.3
		c-2.4,2.8-7.5,8.5-11.3,12.6c-6.9,7.5-6.9,7.6-4.5,10.6c1.8,2.2,3.9,3,7.7,3c6.8,0,12.2,5,9.9,9.2c-1.2,2.2-0.6,3.8,3.8,9.2
		c2.9,3.6,5.6,8.5,6.2,11c1.1,5.1,7,8.9,11.9,7.7c2.1-0.5,3.9,0.1,5.5,1.9c2,2.2,3,2.4,5.7,1.2C855.9,445.4,857.4,443.7,857.4,442.4
		L857.4,442.4z"/>
	<path id="Alicante" class="st1" d="M906.8,403.3c0.4-2.2,1.3-4.4,2-4.8s1.2-3.1,1.2-6c0-6.8,2.5-12.1,5.6-12.1c1.8,0,2.5-1,2.5-3.4
		c0-4.4,3.3-10.8,6.1-11.9c1.2-0.5,3.6-0.8,5.4-0.8c1.9,0,3.5-1,4-2.5c1.3-4.1,6.1-8.3,9.5-8.3c2.5,0,3.6-1.1,4.8-4.8
		c1.2-3.6,2.8-5.3,6.7-6.8c4.5-1.8,8.1-6.3,8.1-10.1c0-0.7-4.3-3.4-9.6-6c-9.2-4.5-9.8-4.6-13.6-2.6c-2.2,1.1-8.7,3.4-14.4,5
		c-8.4,2.4-10.3,3.4-9.9,5.4c0.9,5.1-6.9,8.9-8.7,4.3c-0.5-1.3-1.8-1.7-3.7-1.3c-1.6,0.4-5.1-0.2-7.8-1.3c-2.7-1.1-5.2-1.7-5.7-1.2
		c-0.5,0.5-0.4,3.2,0,6.2c0.5,3.4,0.3,5.7-0.7,6.3c-1.2,0.7-1.2,2.1-0.1,5.2c1,2.9,1,5,0.1,6.7c-1,2-0.4,4.5,2.6,11l4,8.4l-2.7,3.8
		c-1.5,2.1-2.7,4.8-2.7,6c0,4.3,11.6,19.7,14.8,19.7C905.3,407.4,906.3,405.6,906.8,403.3L906.8,403.3z"/>
	<path id="Badajoz" class="st1" d="M558.9,393.7c1.5-5,2.6-6.2,7.4-8.2c5-2.1,5.9-2.1,7.9-0.3c2.7,2.5,5.3,2.5,8.4,0.2
		c2.1-1.6,2.2-2.7,0.9-10c-1.4-7.8-1.3-8.5,2.3-14.5c3.3-5.6,4.1-6.2,7.4-5.6c3.2,0.6,4.7-0.4,11.1-7.3c4.1-4.4,8.3-8,9.4-8
		c2.4,0,9.4-7.7,12.5-13.7c1.3-2.6,1.9-5.7,1.4-8.2c-1.2-6,2.4-11.6,9.4-14.7c5.2-2.3,5.8-3,4.6-5.3c-1-1.9-0.9-3.7,0.7-6.6
		c2.9-5.5,2.7-6-2.3-4.8c-2.4,0.6-8.9,0.9-14.5,0.8c-9.6-0.3-10.4-0.1-16.2,4.3c-3.3,2.5-9.1,6.3-12.8,8.4
		c-3.7,2.1-9.3,5.7-12.5,7.9c-5.5,3.8-6,3.9-11.1,2.2c-4.8-1.6-5.7-1.5-7.9,0.5c-1.7,1.5-3.7,2-5.9,1.5c-2-0.5-5.1,0-7.6,1.3
		c-5,2.6-7.3,1.7-15.9-6.2c-6.1-5.6-7.2-6-11.3-3.8c-3.5,1.9-13.3,0.3-17.4-2.8c-3-2.2-3.2-2.9-1.8-6.5c1.6-4.2,0.5-7.7-3.3-10.7
		c-3.3-2.6-7.9-2.1-8.7,1c-0.4,1.7-1.9,2.7-3.9,2.7c-5.1,0.1-7.9,3.1-7.9,8.5c0,4.1,1,5.6,6.7,10.5c3.7,3.1,6.7,6.8,6.7,8.2
		c0,4.3-6.2,15.5-12.7,23.2c-4.9,5.7-6.5,8.9-7.6,14.9l-1.4,7.6l4.7,4.5c3.3,3.1,5,6.1,5.6,9.9c1.2,7.5,6.6,11.6,12.9,9.8
		c4.2-1.2,6.5-0.2,6.6,3c0,0.5,1.8,1.9,4,3c2.2,1.1,4.4,3.3,4.8,4.9c0.8,2.5,1.6,2.7,7.4,1.9c4.7-0.7,7.5-0.3,10.3,1.2
		c2.9,1.6,6.6,2,15.9,1.6l12.1-0.5L558.9,393.7L558.9,393.7z"/>
	<path id="Albacete" class="st1" d="M805.6,390.9c3-3.2,7.1-7.9,9.1-10.6c3.5-4.8,10.8-9.1,12.5-7.4c0.4,0.5,2.6-0.7,4.8-2.5
		c4.8-4,10-4.3,13.8-0.7c2.8,2.6,2.8,2.6,6.8-0.8l4-3.4l-3.1-5.4l-3.1-5.4l2.7-2.9c1.5-1.6,3.1-4.5,3.6-6.6c1.3-5.4,4-6.9,12.5-7.3
		c9.8-0.4,11.6,0.1,13.5,4.2c2.8,6.2,4.2,3.6,3.8-7.5c-0.4-12.2-1.3-13.5-8.9-12.4c-7.5,1-8.7-1.4-7.8-14.8
		c0.9-13.7-1.5-18.9-9.9-21.4c-5.9-1.8-11.7-0.2-25.7,7.2l-7.5,3.9l-5.1-3c-3.2-1.9-5.4-2.5-5.9-1.6c-2,3.2-11.8,6.7-17.7,6.3
		c-7-0.4-18.6-2.4-21.6-3.7c-3.6-1.6-11,13.9-11.4,23.7c-0.3,7.3,0,8.2,2.9,9.5c1.7,0.8,3.2,2.2,3.2,3.1s1.2,3.2,2.7,5.1
		c3.4,4.4,3.4,8.3-0.1,13.9c-3,4.9-2.4,7.8,1.4,6.6c3.4-1.1,9.5,4.4,14,12.7c4,7.4,4,13.7,0,20.1c-1.8,2.9-1.7,3.2,2.5,5
		C798.2,397.5,799.7,397.1,805.6,390.9L805.6,390.9z"/>
	<path class="st1" d="M683.2,367.7c4.2,0.5,8.6,1.1,9.8,1.5s2.9-0.3,3.9-1.5c2.2-2.7,5.3-2.6,8.3,0.2c2.3,2.1,2.6,2,5-1
		c2.4-3,2.9-3.1,7.4-1.5c5.1,1.8,8.2,1,11.6-3c2.1-2.6,6-2.7,8-0.3c0.9,1,3.1,1.6,5.4,1.2c2.2-0.3,5.2,0.1,6.8,1
		c2.4,1.3,4.3,0.8,11.6-2.7c4.8-2.4,8.4-4.8,8-5.5s0.6-4,2.3-7.3c2.5-5,2.8-6.6,1.4-8.4c-0.9-1.3-2.3-3.9-3-5.8s-2.8-4.2-4.5-4.9
		c-2.9-1.3-3.1-2.2-2.8-10.6c0.2-7.6,1.1-10.6,4.7-17c2.5-4.3,3.7-7.8,2.8-7.8c-0.9,0-4-2.4-6.9-5.4c-5.8-5.8-6.7-6.2-10.8-4
		c-2,1.1-4.1,0.9-8.5-0.8c-5.6-2.1-6-2.1-11.7,0.7c-3.2,1.6-7.5,4.8-9.5,7.1c-3.5,4.1-3.9,4.2-15.5,4.4c-9.2,0.2-13-0.4-16.5-2.2
		c-2.8-1.5-6-2.1-8.3-1.7c-7.4,1.5-7.9-8.3-0.7-14.3c1.2-1,2.1-2.3,2.1-2.9c0-2.2-3.4-1.2-5.1,1.5c-1.1,1.8-3.1,2.7-6.1,2.7
		c-2.4,0-5.8,1-7.5,2.2c-2.9,2.1-3.4,2-7.2-0.8l-4.1-3l-2.8,2.8c-2.6,2.6-6.6,11.3-6.6,14.4c0,0.7,0.4,2.7,0.9,4.3
		c0.8,2.5-0.1,3.4-5.9,6.4c-7.3,3.7-8.7,6.1-8.9,15.2c-0.1,4-1.4,7.4-4.4,11.6l-4.2,6l3.2,1.4c1.7,0.8,4.1,3.2,5.2,5.4
		c1.2,2.4,3.5,4.3,5.8,4.9c2.1,0.5,8,3.9,13.2,7.5s11.6,7.6,14.2,8.8s5.6,2.6,6.7,3.2c1.1,0.6,2.8,0.2,3.9-0.9
		C675.2,367.3,677.6,367,683.2,367.7L683.2,367.7z"/>
	<path id="Valencia" class="st1" d="M912,333.2c0-2.7,1.2-3.6,6.7-5.6c3.7-1.3,9.2-3,12.2-3.7c3-0.8,6.5-2.1,7.7-3.1
		c2.1-1.6,2.1-2.2-1.2-9.1c-1.9-4.1-4.4-7.9-5.4-8.5c-1.2-0.7-1.5-2.3-1-4.4c0.5-2,0.2-3.3-0.6-3.3c-0.8,0-2.5-1.9-3.7-4.3
		c-2.1-4.1-2.1-5,1.5-19l3.8-14.7l-2.9-2.9l-2.9-2.9l-5.7,3.1c-5.1,2.8-6.4,3-11.4,1.6c-4.2-1.1-5.7-2.3-6-4.5
		c-0.2-1.7-1.6-3.2-3.1-3.5c-1.5-0.3-4.1-1.7-5.7-3.3s-3-2.1-3-1.2c0,2.7-3.8,1.7-8.4-2.2c-2.4-2.1-5.5-4.2-6.8-4.7
		c-2.7-1-3.1-3.7-0.7-6.1c2.1-2.1-0.2-4.3-8-7.6c-4.9-2.1-6.3-2.2-9.8-0.7c-5.2,2.2-3.7,4.3,5.1,7.6c9.4,3.5,10.2,4.4,7.6,10.6
		c-1.2,2.8-1.8,6.4-1.5,7.9c1.1,4.1-2.7,10-7.6,11.8c-5.8,2.1-10,10.4-8.3,16.4c1,3.3,2.5,4.6,8.1,6.7c10.1,3.8,11.9,7.1,11.9,22.7
		l0,12.8l6.1,0c7.7,0,8.9,0.9,10,6.7c0.7,3.8,1.8,5.1,5.8,6.8c2.9,1.2,6.5,1.7,8.7,1.2c2.8-0.6,4-0.2,4.6,1.4
		C909.3,338.4,912,336.9,912,333.2L912,333.2z"/>
	<path id="Caceres" class="st1" d="M558.3,309.4c1.6,0.4,4.3-0.5,6.4-2c3.5-2.6,3.9-2.6,8-0.5c4.2,2.2,4.5,2.1,9.3-1
		c2.7-1.8,8.3-5.3,12.4-7.8s9.8-6.3,12.6-8.5c2.9-2.2,7.4-4.4,10.1-4.8l4.9-0.8l-7.3-7.3l-7.3-7.3l3-2.4c4.1-3.3,3.1-7.3-1.7-6.8
		c-4.3,0.5-5.9-2.2-3.8-6.2c1.2-2.3,1-2.5-1.8-2c-4,0.8-4.7-0.4-5.7-10c-0.6-6.1-0.4-8.3,1.2-9.6c2.8-2.3,0-11.6-3-10.3
		c-6,2.5-8,2-13.9-3.4c-3.3-3-6.6-5.5-7.4-5.5s-3,1.3-5,2.9c-3.6,2.9-3.6,2.9-6.6,0.2c-1.6-1.5-4.3-3.4-6-4.3s-3-2.3-3-3.1
		c0-2.2-6.9-9.1-9.1-9.1c-3.3,0-10.3,4.2-15.9,9.5c-4.3,4.1-7,5.4-13.4,6.6c-4.4,0.8-8.1,1.5-8.2,1.5s-1.3,2.4-2.6,5.4
		c-1.8,3.9-2.2,7-1.6,11.6c1.1,8.2-1.3,17.8-5,19.7c-1.6,0.8-4.3,3.2-6,5.3c-3.1,3.8-3.5,3.9-15.9,3.9h-12.7l1.9,3.7
		c1.1,2,3.8,5.5,6,7.6c2.6,2.4,4.4,5.8,5,9.1c1,5.8,1.6,6.2,5.4,3.2c1.4-1.1,3.9-2,5.5-2c1.7,0,3.2-1.1,3.6-2.7
		c1.4-5.5,13.8-2.1,16.8,4.6c1.2,2.6,1.2,4.3,0,6.9c-1.3,2.9-1.2,3.7,1,5.3c3.7,2.8,12,3.9,15.3,2.1c3.7-2,7.3-0.7,13.3,4.6
		c7.7,6.8,9.6,7.6,14.1,5.2C553.8,309.7,556.8,309.1,558.3,309.4z"/>
	<path id="Cuenca" class="st1" d="M809.7,293.7c2.3-1.2,4.5-3,4.8-3.9c0.4-1.3,2-1,6.5,1.1l5.9,2.8l11-5.2
		c6.1-2.8,11.7-5.2,12.4-5.2c0.9,0,0.9-1.8,0-5.4c-1.2-4.7-0.9-6.4,1.8-12.1c2.1-4.4,4.2-6.9,6.3-7.4c5-1.2,8.6-5.7,7.7-9.3
		c-0.4-1.7,0.1-5.4,1.3-8.1l2.1-5l-6.4-2.6c-9.2-3.8-10-4.4-12.8-9.5c-3.4-6.2-4.6-7.1-12.2-9.9c-4.6-1.7-6.9-3.4-7.8-5.9
		c-0.7-2-2.6-4.5-4.2-5.8s-3.5-4.2-4.3-6.6c-1.2-3.6-2.9-4.9-9.6-7.6c-9.9-4-17-3.4-19.3,1.6c-1.1,2.4-2.6,3.3-5.5,3.3
		c-3.4,0-4.2,0.7-5.2,4.4c-1,3.8-1.8,4.4-5.8,4.7c-12.1,0.8-16.1,2.5-16.1,7c0,6.3-3,12.2-7.4,14.8c-5.5,3.2-10.7,10.9-8.7,12.9
		c0.7,0.7,1.3,2.8,1.3,4.6s1.2,5.2,2.6,7.5c4.7,7.6,9.8,23.6,8.9,27.8c-0.6,2.9-0.3,4.2,1.6,5.2c1.4,0.7,4.7,3.4,7.5,6
		s6.4,4.7,8.1,4.8c4.9,0.1,17.1,2.3,18.1,3.3C793.6,297.4,805.4,295.9,809.7,293.7L809.7,293.7z"/>
	<path id="Toledo" class="st1" d="M720.3,289.7c1.8-1.9,6.4-5.1,10.3-7.1c6.9-3.5,7.2-3.5,12.8-1.4c7.2,2.7,9.6,1.8,10.7-4.1
		c1-5.3-3.2-18.5-8.3-26.2c-1.7-2.6-3.1-6.3-3.1-8.2c0-5.1-2.4-6.7-10.2-6.7c-5.3,0-7.5,0.7-9.5,2.8c-3.6,4-9.1,6.6-14,6.6
		c-6.2,0-6.9-3.7-1.6-8.1c2.4-2,4.3-4.3,4.3-5.1c0-1.5-8-4.3-12.4-4.3c-4.1,0-9.8-3.1-13.4-7.3l-3.6-4.1l-5.2,2.2
		c-2.9,1.2-8.7,3.2-13.1,4.4c-7.1,2-8.1,2-10.2,0.1c-1.4-1.3-3.5-1.8-5.5-1.3c-2.2,0.6-3.5,0.1-4.4-1.4c-2.4-4.2-8.2-2.7-12.4,3.3
		c-2.4,3.5-4.6,5.2-5.8,4.7c-1.1-0.4-4.3,0.5-7.3,2c-3.4,1.7-7.3,2.6-10.9,2.3c-7.1-0.5-8.6,1.7-7.4,10.3c0.9,5.9,1.2,6.3,4.1,5.6
		c3.8-1,5.4,2.1,3.3,6.2c-1.3,2.4-1.1,2.6,1.4,1.8c1.6-0.5,3.7-0.2,4.8,0.7c2.6,2.1,2.5,9.2,0,10.2c-2.8,1.1,10.7,16.2,15.3,17.2
		c5.2,1.1,13.8-1.8,18.4-6.1c4.8-4.5,7.4-4.8,10.7-1.2c2.2,2.4,2.7,2.5,5.2,0.7c1.6-1.1,4.7-2,6.9-2c2.5,0,5.1-1.1,6.5-2.8
		c2.8-3.3,8.1-3,8.8,0.5c0.3,1.3-1.4,4.6-3.8,7.2c-5.1,5.8-4.7,7.8,1.4,8c2.5,0.1,6.4,1.1,8.5,2.2c2.7,1.4,7.2,2,14.5,1.8
		C716,293.2,717.4,292.9,720.3,289.7L720.3,289.7z"/>
	<path id="Castellon" class="st1" d="M919.5,252c5.1-2.9,5.5-3,9.4-0.7l4.1,2.3l4.6-9c2.5-5,5.9-10.3,7.6-11.7
		c6.2-5.6,14.7-18,21.4-31.3c3.8-7.6,6.9-14,6.9-14.3s-4-4-8.8-8.3c-6.6-5.8-9.2-7.4-10.4-6.2c-2,2-10.7,2-15,0
		c-4.3-1.9-9-0.7-14.2,3.7l-4.2,3.5l2.7,3.8c1.5,2.1,2.7,5.4,2.7,7.4c0,5.9-2.9,15.7-4.9,16.5c-1,0.4-1.8,1.8-1.8,3
		c0,2.6-5.7,5.8-8.6,4.7c-2-0.8-4.1,2.9-2.8,5c1.8,3-2.6,9.2-8.5,12.1c-3.3,1.6-6.4,3.8-6.8,4.8c-1,2.5,3.2,7,8.7,9.3
		c2.9,1.2,4.4,2.8,4.4,4.5c0,2.4,1,3,7.1,4C913.6,254.9,916.5,253.7,919.5,252L919.5,252z"/>
	<path id="Madrid" class="st1" d="M714.8,241.3c1.6-0.9,4.7-3,6.8-4.7c3.1-2.5,5.4-3.2,11.8-3.2c4.4,0,8-0.6,8-1.3s1.8-3.4,4.1-5.9
		l4.1-4.6l-4-4c-3.3-3.3-3.9-4.8-3.3-8.6c0.6-3.7-0.1-5.7-3.8-10.5c-18-24-18.2-24.3-15.8-31.8c2.3-7.1,2.2-7.6-2.4-13.3
		c-6.6-8.3-11.4-6.4-23.1,9.3c-4.4,5.9-10.3,12.9-13,15.4c-2.7,2.6-4.9,6-4.9,7.6c0,2-1.3,3.5-4.2,4.7c-2.8,1.2-5,3.5-6.6,7.2
		c-1.3,3-4.3,7.3-6.7,9.6c-6.2,5.8-8.4,10.5-6.4,13.3c1.5,2,2.3,2,10.4-0.3c4.8-1.4,10.4-3.3,12.4-4.2c3.1-1.4,4.2-1.4,7.1,0.5
		c1.9,1.2,3.4,2.8,3.4,3.5c0,2,6.8,5,14.2,6c3.7,0.5,7.8,1.6,9.1,2.2c3.7,2,2.8,6.9-2,10.9c-4.2,3.5-4.2,3.7-1.3,3.7
		C710.5,242.9,713.2,242.2,714.8,241.3L714.8,241.3z"/>
	<path id="Teruel" class="st1" d="M893.5,232.3c2-1.4,4.9-2.9,6.5-3.4c2.9-0.9,6.5-6.9,5.3-8.9c-0.4-0.6,0-2.7,0.9-4.7
		c1.2-2.5,2.4-3.4,4.2-2.9c3.6,0.9,6.4-0.4,6.4-3c0-1.2,1.2-3.3,2.6-4.5c1.5-1.3,3-4.9,3.6-8.7c0.8-5.4,0.5-7.3-2.1-11.8l-3.1-5.3
		l4.8-4.4c5.9-5.4,10.7-6.8,16.4-4.7c2.4,0.9,6.2,1.5,8.6,1.5c3.7,0,4.6-0.7,6.4-4.9c1.1-2.7,2.4-7.7,2.8-11.3
		c0.6-5.5,0.3-6.8-2.3-9.2c-2.9-2.7-3.3-2.7-7.1-0.8c-3.9,2-4.1,2-9-2.8c-2.7-2.7-5.7-4.8-6.6-4.8c-0.9,0-3.3-1.1-5.2-2.3
		c-2-1.3-4.9-2.2-6.5-2c-1.6,0.2-4.7-1.1-7-3l-4.1-3.4l-3.4,2.7c-1.9,1.5-3.8,4.5-4.3,6.6c-0.8,3.5-2,4.3-11.5,7.5
		c-9.9,3.3-10.9,3.4-13.7,1.4c-4.1-2.9-9.5-2.7-11.5,0.4c-0.9,1.4-3.7,2.9-6.2,3.4c-3,0.6-5.1,2-6.1,4.1c-0.8,1.8-2.7,3.6-4.3,4.1
		s-2.8,1.8-2.8,2.9s-1.2,3.6-2.7,5.5c-1.7,2.2-2.3,4-1.5,4.9c0.7,0.8,1.4,5.1,1.7,9.6c0.4,7.3,0.2,8.1-2.3,8.1
		c-4.9,0-6.1,1.7-4.4,6.3c1.3,3.7,1.1,4.5-1.6,6.5c-4.8,3.6-2.6,7.2,6.8,11.3c5.2,2.3,8.6,4.7,9.6,6.8c1.5,3.2,1.6,3.2,5.9,1.2
		c4.2-2,4.9-1.9,12.1,1.1c8.5,3.5,11.7,7.7,8.8,11.3c-0.9,1.1-1.1,2.1-0.4,2.1c0.7,0,3.7,1.9,6.6,4.2l5.2,4.2l0.4-4.1
		C889.7,236.4,891.2,234,893.5,232.3L893.5,232.3z"/>
	<path id="Avila" class="st1" d="M618.2,227.9c2.5-1.6,5.4-2.5,6.5-2.1c1.1,0.4,2.8-0.6,3.9-2.4c5-7.6,11.8-9.9,16.2-5.5
		c2.8,2.8,5.9,1.2,8.9-4.5c1.4-2.7,4.1-6.4,6.1-8.3c2-1.9,5.1-6.2,6.9-9.8c2.2-4.3,4.4-6.7,6.6-7.2c1.8-0.5,3.4-1.7,3.4-2.7
		c0-2.7-1.4-2.4-7.2,1.6c-2.8,1.9-5.9,3.2-6.9,2.8c-1.1-0.4-2.2-4.1-2.7-8.9c-0.8-7-1.5-8.6-4.9-11c-3-2.1-3.9-3.9-3.9-7.4
		c0-3.1-0.8-5-2.6-6c-1.6-0.8-2.9-3.5-3.5-6.9l-0.9-5.5l-3,2.8c-3.8,3.5-7,3.6-8.9,0.1c-1.7-3.2-4.2-3.4-9.5-0.6
		c-3.9,2-4,2.1-4,13.9v11.9l-10.1,8.6c-5.6,4.8-11.3,9.2-12.8,9.9c-3.2,1.4-3.5,3.3-0.7,4.4c5,1.9-1.2,9.2-6.7,7.8
		c-3.6-0.9-7.1,1.8-8.2,6.3c-0.7,2.9,0.1,4.3,4.1,7.8c3.3,2.9,5.7,4,7.2,3.4c6.7-2.8,8.1-2.4,9.6,3.2c1.5,5.4,2.7,6.3,10,6.8
		C612.5,230.7,615.7,229.5,618.2,227.9L618.2,227.9z"/>
	<path id="Guadalajara" class="st1" d="M757,211.8c1.3-9.5,3.8-11.3,17.4-12.4c3.1-0.3,4.4-1.2,5.5-4.4c1.2-3.2,2.4-4.1,5.9-4.5
		c3-0.3,4.6-1.3,5.1-3c0.4-1.6,2.6-3.1,5.6-3.9c6.7-1.8,6.7-1.8,16.4,2.1c8.9,3.6,12,6.3,12,10.3c0.1,3.4,4.3,5.2,7.2,3.1
		c2-1.4,2.1-2.4,0.9-5.6c-1.3-3.4-1.1-4.2,1.5-6.3c1.7-1.3,3.9-2.1,4.9-1.7c1.5,0.6,1.7-0.5,1-5.7c-0.5-3.5-1.5-7.5-2.2-8.9
		c-1-1.9-0.6-3.5,1.6-6.4c3.6-4.8,2.9-6.1-4-7.2c-3-0.5-6.1-2-7.1-3.3c-0.9-1.3-3.6-4-6-6l-4.3-3.6l-7,3.5c-6.8,3.4-7.3,3.5-18.5,2
		c-12.8-1.7-14.2-2.2-13.2-4.7c1-2.5-6.1-8.8-10-8.8c-1.8,0-4.4-0.9-5.8-2c-2.2-1.7-3.1-1.7-6.5,0.1c-3.2,1.6-5.4,1.8-11.5,0.6
		c-9.7-1.8-9.8-1.8-9.8,0.5c0,2.5-7,7.5-10.5,7.5c-1.5,0-3.4,0.9-4.3,2c-1.4,1.6-0.9,3.2,2.6,8.4c2.3,3.5,3.9,7,3.6,7.8
		c-4.3,9.9-4.1,10.9,2.4,20.5c3.4,5.1,8.2,11.5,10.6,14.3c3.3,3.9,4.3,6.4,4.4,10.7c0,4.2,1,6.7,4,10
		C753.6,222.4,755.8,221,757,211.8L757,211.8z"/>
	<path id="Salamanca" class="st1" d="M517.6,212.7c3-0.5,6.5-2.5,9.2-5.3c2.4-2.5,7.4-5.9,11.1-7.7c6.2-2.9,7.1-3,10.4-1.2
		c2,1.1,4.8,3.8,6.2,6c1.5,2.2,4.6,5.3,7.1,7c4,2.7,4.8,2.8,8.1,1.1c2-1,4.8-2.2,6.1-2.6c1.3-0.4,2.4-1.9,2.4-3.4
		c0-3.4,5.8-7.4,9.4-6.4c1.4,0.4,3.7-0.1,4.9-1c2.1-1.5,2.1-1.7,0.1-2.5c-3-1.2-2.8-5.6,0.4-7.1c1.4-0.7,7.2-5.1,12.8-9.9l10.2-8.7
		v-11.7c0-11-0.2-11.8-3-12.8c-1.7-0.6-3.8-0.9-4.8-0.7c-2.5,0.5-5.6-2.4-5.6-5.3c0-1.8-1.4-2.7-4.8-3.4c-2.9-0.5-5.6-2.2-6.9-4.1
		c-2-3-2.3-3.1-5.9-1.2c-5,2.6-6.2,2.5-10.9-0.8l-3.9-2.8l-4.8,2.8c-4.2,2.5-5.5,2.6-10.7,1.3c-4.4-1.1-8.4-1.1-15.3,0.1
		c-8.9,1.5-9.8,2-16.3,8.8c-3.8,4-6.8,8.1-6.8,9.2s-1.3,2.4-2.8,2.9c-2.6,0.8-2.6,1.1-0.7,3.2c1.9,2.1,1.9,3,0.1,9
		c-1.5,5.1-1.7,7.7-0.6,11c1,3.1,1,7.8,0,15.9c-0.8,6.3-1.1,12.3-0.7,13.3s-0.2,2.6-1.4,3.5c-2.9,2.4-2.7,5.8,0.3,5
		C511.7,213.8,515,213.1,517.6,212.7L517.6,212.7z"/>
	<path id="Segovia" class="st1" d="M674.3,181.5c4.2-1.1,14.2-11.3,22.9-23.7c6.2-8.7,10.6-12,16-12c1.5,0,4.3-1.2,6.2-2.7
		c1.9-1.5,4.5-2.7,5.7-2.7c2.6,0,9.5-5.8,9.5-8c0-0.8-1.8-2.3-4-3.5s-4-2.9-4-3.8s-0.7-3.3-1.7-5.3c-1.4-3-2.7-3.6-8.4-4.1
		c-4.4-0.4-7.9,0.1-9.9,1.4c-2.8,1.7-3.7,1.7-7.5-0.4c-3.9-2.1-4.7-2.1-8.3-0.3c-2.2,1.1-5.1,3.3-6.5,4.9c-3.1,3.4-5,3.5-10.5,0.7
		c-3.8-2-4.6-2-8.7,0c-2.7,1.3-6.1,4.8-8.4,8.6c-2.2,3.5-5.2,8.5-6.8,11c-3.3,5.2-2.8,10.1,1.4,14c1.4,1.3,2.6,4.1,2.6,6.2
		c0,2.6,1.2,4.6,3.9,6.6c3.3,2.4,4,4.1,4.8,11.1l0.9,8.2l3.7-2.6C669.1,183.6,672.3,182,674.3,181.5L674.3,181.5z"/>
	<path id="Tarragona" class="st1" d="M980.5,180.9c1.7,0,3.7,0.6,4.4,1.4c2.1,2.1,5.8,0.1,6.7-3.5c0.4-1.7,2.1-3.6,3.6-4.1
		c2.6-0.8,2.6-1.1-1.6-4.5c-3.9-3.2-4.3-4.2-3.5-7.9c0.5-2.4,2-5,3.2-6c1.3-0.9,3.3-3.4,4.6-5.4c3.2-5,12.1-10.5,21.1-12.8
		c4.1-1.1,9-3.1,11-4.5c2-1.4,5.8-2.6,8.5-2.6s4.8-0.2,4.8-0.5c0-0.5-7.8-16.7-12.8-26.7c-2.6-5.1-2.9-5.3-8.8-4.9
		c-5.2,0.3-6,0.8-5.8,3.2c0.2,2-1,3.4-4.4,5c-2.6,1.2-5.3,3.7-6,5.6c-0.9,2.2-4.4,4.9-10.8,8.1c-9.8,4.9-10.6,4.9-15.8,0.3l-3-2.7
		l-5.4,5.9c-3,3.3-5.4,7.2-5.4,8.8c0,1.7-1.3,3.4-3.4,4.4c-5.7,2.6-7.3,4.7-5.1,6.3c2.8,2.1,3.5,11.2,1.4,18.1l-1.8,6l9.5,8.3
		c7.2,6.3,9.7,7.9,10.6,6.5C977,181.7,978.9,180.9,980.5,180.9L980.5,180.9z"/>
	<path id="Zaragoza" class="st1" d="M848.4,153.3c2-1.8,3.6-3.9,3.6-4.6s2-1.6,4.4-2.1s5.5-2,6.7-3.5c2.8-3.2,9.9-3.6,14-0.7
		c2.5,1.7,3.8,1.6,11.7-0.9c7.9-2.6,9.1-3.4,10.4-7.3c0.8-2.4,3.3-5.7,5.5-7.3l4-2.9l5.3,3.7c3.1,2.2,6.2,3.3,7.5,2.8
		c1.2-0.5,3.9,0.4,6,1.9c2.1,1.5,4.5,2.7,5.3,2.7c0.8,0,3.8,2.1,6.6,4.6c4.6,4.1,5.3,4.4,7.7,2.7c1.4-1,3.7-1.9,5-1.9
		c1.3,0,2.4-0.5,2.4-1.2s1.8-1.9,4-2.9c4.3-1.8,5.1-4.9,2.6-9.7c-1-1.9-1.1-3.7-0.1-5.8c2.7-5.9,0-6.4-10.6-2.1
		c-13.6,5.5-17,4.6-21-5.4c-3.2-8-7.4-11.7-16.6-14.8c-5.8-1.9-6.1-2.3-6.9-8c-0.6-4.6-1.8-6.8-5.4-9.7c-2.5-2.1-5.4-3.8-6.4-3.9
		c-3-0.1-8.4-6.5-8.4-10.1c0-1.9,0.7-3.4,1.5-3.4c0.9,0,1.1-1.5,0.7-3.7c-0.4-2-0.2-5.7,0.5-8c1.2-4.1,1.1-4.2-1.4-2.7
		c-3.3,2-4.8,0-6-8.2c-0.5-3.2-1.3-6-1.9-6.4c-0.6-0.4-1.5-3.8-2-7.7c-1.6-11.7-2-11.7-12.3-0.5c-14.5,15.8-17.1,26.7-9.2,38.5
		c1.8,2.6,3.2,5.4,3.2,6.2c-0.1,2.2-13.1,10.1-16.6,10.1c-1.8,0-6.7-1.5-11-3.4l-7.8-3.4l3,5c2.6,4.3,2.7,5.5,1.2,8.2
		c-1.4,2.5-1.4,4.1-0.1,7.5c1.5,4,1.4,4.5-1.8,7.3c-1.9,1.7-4.6,3-5.9,3c-4.8,0-6.1,3.6-3.5,9.4c2.9,6.3,1.2,9.7-4.6,9.1
		c-2.9-0.3-3.4,0.1-3.1,2.3c0.2,1.5,0.6,4.8,0.7,7.4c0.3,6.1,3.7,11.1,6.3,9.4c3.3-2.1,4.6-1.5,11.1,4.7c5.4,5.2,11.2,8.3,16.6,8.7
		C844.2,156.5,846.4,155.1,848.4,153.3L848.4,153.3z"/>
	<path id="Soria" class="st1" d="M807.7,146.9c3.3-1.6,3.4-1.8,1.3-4.9c-1.2-1.8-2.2-5.5-2.3-8.1s-0.6-5.8-1.1-7
		c-1.3-2.9,2.8-6.9,6-5.9c3.6,1.2,4.4-1.4,1.9-6.2c-2.9-5.6-0.9-10.4,4.7-11.5c4.6-0.9,9.1-5.1,6.9-6.5c-1.7-1.1-1.9-7.4-0.2-10
		c0.8-1.2,0.4-3.5-0.9-6.3c-1.7-3.6-2.6-4.2-4.5-3.2c-5.8,3.1-16.1-0.7-16.1-6c0-3-4.5-6.3-8.5-6.2c-4.8,0-11.7,3-12.4,5.4
		c-0.9,2.9-8.1,7.2-10,6.1c-0.7-0.4-1.6-2.6-2.1-4.8c-0.7-3.4-1.3-3.8-3.4-2.7c-1.4,0.7-2.9,2.4-3.3,3.8s-2.9,3.5-5.4,4.7
		c-2.6,1.2-5.6,4-6.7,6.2c-1.8,3.5-3.1,4.1-9.4,4.9c-7.1,0.9-7.3,1-6.6,4.6c0.6,2.8-0.5,5.2-4.9,10.7c-4.7,5.9-5.5,7.7-4.7,11
		c0.5,2.2,1.4,4.3,2.1,4.7c0.7,0.4,1.2,1.8,1.2,3.2s1.5,3.1,3.4,3.9c1.9,0.8,3.4,2.1,3.4,2.8s4,1.9,8.8,2.8
		c7.7,1.3,9.3,1.2,12.7-0.8c3.6-2.1,4.1-2.2,7.3,0c1.9,1.2,4.9,2.2,6.6,2.2c3.6,0,12.5,8.4,11.2,10.6c-0.5,0.8,1.7,1.7,5.6,2.2
		c3.5,0.5,7.3,1,8.5,1.3C801.1,148.7,804.4,148.4,807.7,146.9L807.7,146.9z"/>
	<path id="Valladolid" class="st1" d="M639.9,144.5c1.9-1.5,4.2-2.7,5.2-2.7s3.1-2.6,4.7-5.7c4.7-9.2,8.9-13.9,14.7-16.5
		c5.2-2.3,5.6-2.3,10,0c4.6,2.5,4.6,2.5,8.8-1c2.3-1.9,5.4-3.9,6.9-4.4c3.4-1.1,3.4-2.6,0.1-5.7c-1.4-1.3-3.6-5.8-4.8-10
		c-2.4-8.4-4.9-10.3-15.6-12.1c-8.8-1.5-23-6.8-28.1-10.5c-2.4-1.7-6-3.6-8.1-4.2c-3-0.8-3.7-1.8-3.8-5.6c-0.2-8-0.4-8.3-3.4-7.5
		c-1.6,0.4-4.2-0.1-5.8-1.2c-2.3-1.5-4-1.6-8-0.5c-9.8,2.7-13.2,10.3-7.6,17.4c3.9,5,3.7,16.5-0.3,19.2c-2.8,1.9-2.9,2.3-1.2,6.6
		c5.7,14,6.2,16.3,3.8,18c-2.5,1.8-3,8.9-0.9,12.9c1,1.8,0.9,3.3-0.2,5.1c-2,3.3-0.5,7.5,2.3,6.4c1.2-0.4,3.9,0.1,6.1,1.2
		c3.5,1.8,4.4,1.8,7.9,0c5.4-2.8,9.2-2.6,11.2,0.6c0.9,1.5,1.9,2.7,2.2,2.7S638,145.9,639.9,144.5L639.9,144.5z"/>
	<path id="Zamora" class="st1" d="M603.9,132.3c-0.3-1.1-0.8-4.9-1.1-8.4c-0.4-5-0.1-6.6,1.6-7.2c2.5-1,1.8-5.2-2.1-13
		c-3.2-6.5-3.2-10.1,0.2-11.9c2.1-1.1,2.7-2.8,2.7-7.6c0-5.7-0.2-6.1-2.9-5.4c-3.9,1-7.4-1-9.9-5.9c-3.2-6.1-7.6-8.5-12-6.5
		c-2.6,1.2-4,1.2-5.1,0.1c-0.8-0.8-3.1-1.2-5.1-0.8c-2.5,0.5-4.3-0.1-6-2c-2.3-2.5-2.8-2.6-7.2-0.7c-4.5,1.9-4.9,1.8-7.9-1.5
		c-3.7-4-4.8-4.2-10.1-1.4c-4.2,2.2-9.4,1.6-14.1-1.6c-3.4-2.4-6.1-2.3-6.1,0.1c0,1-2.6,3.7-5.7,6c-6.6,4.7-10.5,8.3-10.5,9.7
		c0,0.6,2.1,2.3,4.6,3.8c3.8,2.4,5.1,2.6,8,1.3c2.9-1.3,4.3-1,9.6,2.1c7.7,4.5,10,8.8,7.1,13.2c-3,4.6-0.9,7.1,8.9,10.4
		c10,3.3,12.5,6.7,9.9,13.4c-1.2,3.2-3,4.6-7.9,6.2c-3.5,1.2-7,2.9-7.8,3.9c-1.2,1.4,0,1.5,6,0.5c5-0.9,9.3-0.8,13,0.1
		c4.8,1.2,6.2,1,10.5-1.5l5-2.9l4.9,2.9c4.8,2.8,5.1,2.8,9.8,0.6c4.8-2.3,4.9-2.3,7.7,1.2c3.3,4,5.7,5.2,9.6,4.8
		C603.5,134.4,604.3,133.5,603.9,132.3L603.9,132.3z"/>
	<path id="Barcelona" class="st1" d="M1055.4,125.6c0.9-2.7,4.5-5.4,7.2-5.4c3.3,0,14.2-8.7,15.3-12.3c0.5-1.7,2.9-3.1,6.8-4.1
		c4.2-1.1,6.7-2.6,8.3-5.3c1.2-2.1,3.8-4.5,5.7-5.3s5-2.6,6.8-4c3.2-2.5,3.3-2.6,0.9-5.2c-1.3-1.5-4.7-3.1-7.4-3.5
		c-7.3-1.2-15.6-6.3-16.1-9.8c-0.2-1.6,0.2-3,0.9-3c0.7,0,2.5-2.5,4-5.5l2.7-5.5l-3-2c-1.7-1.1-7-2.4-11.9-2.8
		c-7-0.7-9.5-1.5-11.9-4.1c-2.5-2.7-2.8-3.7-1.4-5.8c1.5-2.3,1.1-2.7-3.2-3.5c-7.6-1.4-10.9,0.9-13.6,9.8c-1.3,4.3-2.2,9.2-2,10.8
		s-0.3,4.2-1.1,5.7c-1,1.9-1,3.5,0.1,5.5c1.3,2.4,0.9,3.4-2.2,6.7c-2.4,2.5-5.1,3.9-7.5,3.9c-4.4,0-4.2-0.3-2.3,5.1
		c1,2.8,1,5,0.1,6.7c-1,1.9-0.5,4,2.6,9.2c3.8,6.5,5.7,10.4,10.4,21.3c2.1,4.9,2.5,5.1,7,4.4
		C1052.7,127.3,1055.1,126.4,1055.4,125.6L1055.4,125.6z"/>
	<path id="Lerida" class="st1" d="M974.5,117.5c2.8-1.4,3.6-1.2,6.9,2l3.7,3.6l8.2-4.1c5.2-2.6,8.9-5.6,10.2-8
		c1.1-2.1,3.8-4.6,6-5.5c2.8-1.1,3.8-2.3,3.2-3.8c-1.1-2.9,3.2-5.7,8.6-5.7c5.9,0,8-3.7,5.8-10.2c-1.8-5.6-1-7.4,3.7-7.4
		c5.1,0,10.1-5,8.3-8.3c-0.9-1.7-0.9-3.4,0.2-5.3c0.8-1.6,1.2-4.1,0.8-5.7s0.8-7.2,2.6-12.3s3.3-10.5,3.3-11.8c0-1.3,0.9-2.7,2-3.2
		c1.5-0.6,1.7-1.4,0.7-3.2c-1-1.9-2.4-2.3-6.6-1.7c-2.9,0.4-7,0.3-8.9-0.2c-3.5-0.9-3.5-1-1.2-3.5c1.3-1.4,3.5-2.6,4.9-2.6
		c2.1,0,2.3-0.4,1.1-2.7c-1.9-3.5-9.8-7.7-10.5-5.6c-1.3,3.9-5.6,4.3-10.7,1.1c-3.9-2.4-5.8-2.9-7.9-1.9c-2.2,1-3.9,0.5-7.6-2
		c-2.6-1.8-8.3-4-12.7-5c-4.4-1-9-2.7-10.3-3.8c-1.9-1.7-2.7-1.7-4.4-0.4c-2.9,2.4-2.7,3.1,4.3,14.6c5.7,9.3,6.4,11.3,6.8,19.8
		c0.8,16.4,0.6,18.5-3,25.3c-2.2,4.3-3.2,7.8-2.7,9.8c0.9,3.6-5,15.6-9.5,19.4c-4.7,3.9-5.8,7-4.3,12c1,3.3,0.9,5.8-0.3,9.1
		c-0.9,2.6-1.3,5.2-0.9,6c0.5,0.7,0.2,2.5-0.6,4s-1,3.7-0.5,4.9c0.8,2,1.4,1.7,4.4-1.8C969.7,120.9,972.7,118.4,974.5,117.5
		L974.5,117.5z"/>
	<path id="Huesca" class="st1" d="M950.8,115.9c12.4-4.9,14.7-7.8,12-15.3c-1.9-5.1-0.7-7.7,6.9-15.8c5.8-6.2,8.1-11.4,7.1-15.9
		c-0.6-2.9,0.1-5.5,2.7-10c3.6-6.2,3.9-8.4,3-23.7c-0.4-6.7-1.5-10.3-4.6-15.5c-4.5-7.6-3.2-7.2-27.4-7.2c-2.6,0-7.6,0.5-11.1,1.2
		c-5.5,1.1-7.3,0.8-13.5-2.1c-5-2.3-9.5-3.3-14.9-3.3c-5.3,0-10.1-1.1-15.4-3.4c-4.2-1.9-7.7-3.2-7.8-3c-0.1,0.2-2.5,3.2-5.3,6.7
		c-5,6.3-5.1,6.4-3.6,13.5c0.8,3.9,2.5,11.2,3.8,16.1c2.1,8.1,2.6,8.9,4.8,7.6c3.7-2.1,5.1,0.2,3.6,5.7c-0.7,2.6-1,6.6-0.5,9
		c0.5,2.8,0.3,4.4-0.7,4.4c-2.4,0-1.8,4.8,0.9,6.9c1.3,1,4.7,3.1,7.5,4.5c6.7,3.4,10.3,8.1,10.3,13.6c0,3.7,0.7,4.6,4.4,6
		c11,4,13.8,6.2,17.7,14.6c2.2,4.5,4.9,8.5,6.1,8.8l2.7,0.7C939.8,120.1,944.9,118.3,950.8,115.9L950.8,115.9z"/>
	<path id="Palencia" class="st1" d="M690.1,86.5c3.7-3.7,3.4-6.3-1.3-11.7c-2.2-2.5-4-5.5-4-6.5s-1.3-2.1-2.9-2.3
		c-1.9-0.3-4.4-3.1-7.4-8.5c-4.6-8.2-5.7-14.9-3.2-19.6c0.9-1.7,0.9-2.8,0-3.4c-2.3-1.4-1.5-5.1,1.9-8.7c3.7-3.9,8.1-13.6,6.2-13.6
		c-0.7,0-2-1.4-3-3.1s-4.6-5.7-8.1-8.9c-5.2-4.8-6.8-5.5-8.4-4.2c-1.1,0.9-2.6,1.2-3.3,0.8s-3.7-0.2-6.5,0.7
		c-7.7,2.3-12.5,10.9-12.5,22.1c0,7.3-0.4,8.8-3,10.6c-2.4,1.7-2.7,2.4-1.3,3.8c2.4,2.5,2.1,5.8-0.9,8.5c-4.1,3.8-4.6,8.5-1.4,13.7
		c2,3.3,2.6,5.8,2,8.5c-0.8,3.4-0.4,4,2.9,4.8c2.1,0.5,5.7,2.4,8,4.1c4.9,3.7,17.5,8.5,26.2,9.9c3.3,0.5,7.9,2,10.1,3.2
		C685.3,89.8,686.9,89.7,690.1,86.5L690.1,86.5z"/>
	<path id="Orense" class="st1" d="M487.6,86.4c3-1,4.4-2.6,5-5.5c0.5-2.3,2.2-4.6,4-5.4c1.7-0.8,3.9-2.9,4.8-4.6
		c0.9-1.8,2.7-3.5,3.9-3.9c8.5-3,15.6-16,12.2-22.4c-0.8-1.5-1.1-3.6-0.7-4.7c1.4-3.6-8.2-1.5-11.4,2.6c-3.3,4.2-7.9,4.7-13.1,1.3
		c-2.4-1.6-6.6-2.4-12.6-2.5c-8-0.2-9.8-0.7-16.1-5.1c-3.9-2.7-7.9-4.9-8.9-4.9s-2.5-1.4-3.4-3s-1.7-3.2-2-3.5s-1.9,0.6-3.8,1.8
		c-2.1,1.4-4.5,1.9-6.3,1.3c-1.6-0.5-4.6-0.2-6.7,0.7c-5.1,2.1-6.1,7.6-2.7,15.1c3.2,7,3.4,11,0.7,13.2c-2.4,2-2.7,5.4-0.5,5.4
		c1,0,1.2,1.5,0.6,4.4c-2.3,11.1-2.3,15.4-0.1,17.7c3.1,3.1,6.6,2.8,11.2-1.1c4.7-4,5.3-4.1,8.5-1.2c2.2,2,2.7,2,5.8,0
		c4.5-2.9,5.5-2.8,10.8,1.2c2.8,2.1,4.8,2.9,5.4,2c1.3-2.1,6.9-1.7,8.8,0.6C483.1,88.2,482.5,88.1,487.6,86.4z"/>
	<path id="Gerona" class="st1" d="M1120.1,77.1c1.7-0.9,3.7-3.4,4.5-5.5c0.8-2.4,2.8-4.4,5.2-5.2c6.8-2.4,7.3-16.5,0.6-19.1
		c-3.8-1.5-3.8-1.4-1.8-6c0.9-1.9,3-3.8,4.7-4.3c4.7-1.2,3.8-5.1-2.3-10.3c-3-2.5-5.4-5.2-5.4-5.9s-3.2-1.2-7.1-1.1
		c-7.9,0.2-19.9,5-19.9,8c0,1.1-2.3,2.5-5.4,3.4c-4.7,1.3-5.9,1.1-9.1-1.2c-2-1.5-6-3.1-8.7-3.6c-4.2-0.8-5.8-0.4-9.8,2.7
		c-3.4,2.6-5.7,3.4-8.1,2.8c-2.9-0.7-8.7,1.4-8.7,3.3c0,0.4,3.3,0.7,7.4,0.8c8.4,0.1,11.1,1.7,9,5.5c-2,3.7,1.1,7.2,6.2,7.2
		c7.1,0,17.4,2.8,19.7,5.3c2,2.2,2,2.9-0.6,8.7c-1.5,3.5-3.4,6.3-4.1,6.3c-2.4,0-1.3,2.6,2,4.8c1.8,1.2,6.5,3,10.4,4
		s8.3,3.1,9.9,4.7l2.8,2.8l2.7-3.3C1115.7,80.2,1118.4,78,1120.1,77.1L1120.1,77.1z"/>
	<path id="Navarra" class="st1" d="M849.6,74.7l6.2-4c0.3-0.2-1-2.3-2.9-4.8c-5.2-6.9-5.9-14.5-2.2-24.4c2.6-7.1,5.1-10.3,16-21.2
		C879.2,8.1,887-1,887-3.1c0-0.5-3.2-0.6-7.1-0.1c-6.1,0.8-8.3,0.3-16.3-3.3c-6.8-3-9-4.7-8.5-6.2c0.9-2.4-0.9-2.6-4.5-0.4
		c-4.1,2.6-6.3-0.3-4.1-5.6c2.3-5.6,1.1-7.9-4.9-8.9c-2.8-0.5-6.5-1.7-8.1-2.8c-4.7-2.9-6.1-2.3-11.2,5c-2.6,3.8-6.1,8.5-7.8,10.6
		s-3,4.7-3,5.8s-2,3.6-4.4,5.5c-2.4,1.9-5.3,4.3-6.5,5.2c-1.2,1-2.9,6.2-3.9,11.5c-1.4,7.2-2.5,9.9-4.3,10.5c-2.8,0.9-3.1,2.1-1.2,4
		c0.7,0.7,1.4,3.4,1.7,6c0.4,4.7,0.5,4.7,8.5,5.8c4.5,0.6,9.5,1.8,11.3,2.7c4.3,2.2,17.7,18.5,17.7,21.5c0,1.3-2,3.4-4.4,4.6
		l-4.4,2.3l8.1,3.7C840,79.2,842.6,79.2,849.6,74.7L849.6,74.7z"/>
	<path id="Pontevedra" class="st1" d="M396.1,68.7c0.1-1.7,11-5.2,16.6-5.3c8.9-0.2,11.7-1.5,14.8-6.9l2.9-5l-2.9-7.1
		c-2.4-5.8-2.7-8-1.6-11.9c1.1-4,2.3-5.2,6.6-6.6c2.9-1,5.9-1.3,6.8-0.8s3.7-0.4,6.3-2c4.4-2.7,4.7-3.3,4-7.8
		c-2.4-14-1.9-13.5-9.8-10.2c-2.7,1.1-5.8,1.7-6.8,1.4c-1-0.4-3.6,0.2-5.7,1.3c-2.1,1.1-6.2,2-9,2c-4.4,0-5.9,0.9-10.5,6.2
		c-3,3.4-7,7-9,8.1c-4.6,2.4-6.3,7.2-3.3,9.4c3.3,2.4,2.7,4.1-2.5,8.1c-5.1,3.9-5.1,6.5-0.1,5.2c6-1.5,5.5,2.3-1.1,7.9
		c-5.6,4.8-6.3,5.9-6.3,10.9c0,3.1,1,7,2.2,8.8l2.2,3.1l3.1-3.8C394.6,71.3,396.1,69.2,396.1,68.7L396.1,68.7z"/>
	<path id="Leon" class="st1" d="M601.8,75.8c0.4-0.7,0.2-1.6-0.6-2.1c-2-1.3-1.7-8.4,0.7-12.9c1.6-3,3.7-4.4,9.5-6.1
		c6.9-2,7.7-2,10.8,0c1.8,1.2,3.4,2,3.4,1.8s0.3-2.7,0.5-5.5s1.7-7,3.4-9.2c2.2-3,2.6-4.5,1.6-5.6c-2.3-2.3-1.7-6.2,1.2-8
		c2.2-1.4,2.7-3.1,2.7-10s0.7-9.5,4-14.8l4-6.5l-2.2-7.8c-3-10.8-5.8-11.3-19.3-4c-6.3,3.4-11.3,5.3-12.9,4.9
		c-1.5-0.4-3.4,0.2-4.4,1.4c-2,2.5-5.9,2.7-9.7,0.7c-2.2-1.2-3.3-0.9-5.7,1.3c-1.6,1.5-4.1,2.9-5.6,3.1c-3.5,0.5-21.2-1.7-22.9-2.8
		c-2.9-1.9-9.6-0.9-13.5,1.9c-2.2,1.6-5.4,3.3-7,3.9c-1.6,0.5-3.6,1.8-4.5,2.9c-2.1,2.5-8.6,2.5-10.7,0c-1.7-2-5.5-1.4-5.5,0.9
		c0,0.7-1.4,3-3.2,5.1c-1.7,2.1-4.9,7.7-6.9,12.6c-3.6,8.5-3.7,9-1.5,12.4c1.6,2.5,3,3.2,4.9,2.6c1.4-0.5,3.7-0.5,5.1,0
		c2.5,0.8,2.7,1.7,3,13.7c0.1,3.7,0.9,4.5,6.8,7.1c6.1,2.7,7,2.8,10.6,0.9c5.6-2.9,9.1-2.5,12.6,1.2c2.8,3.1,3.3,3.1,7.6,1.3
		c4.2-1.8,4.8-1.7,7.6,0.9c2.1,2,3.9,2.6,5.9,1.9c1.6-0.5,3.7-0.2,4.7,0.6c1.3,1.1,2.7,1.1,5.3-0.1c4.4-2,8.9,0.7,13.7,8.3
		C598.5,77,600.3,78.1,601.8,75.8L601.8,75.8z"/>
	<path class="st1" d="M762.2,70.5c0.7-2.2,7.2-6.4,8.2-5.3c0.2,0.2,1.2,2.5,2.3,5l1.9,4.6l2.6-2.9c1.4-1.6,3.4-3.8,4.3-4.9
		c3.1-3.7,12.4-5.4,18.5-3.3c4.3,1.5,5.5,2.6,6.1,5.9c0.8,4.7,5.6,7,11.4,5.6c2.8-0.7,3.5-1.5,2.8-3.5c-0.6-1.9,0.2-3.1,3.3-4.7
		c2.3-1.2,4.1-2.6,4.1-3.1c0-1.5-10.4-14-14.5-17.4c-2.3-1.9-6.3-3.3-11.1-3.8c-4.1-0.5-9.8-2-12.7-3.5c-3.9-1.9-6.7-2.4-10.8-1.8
		c-4.7,0.7-6,0.4-8.3-2.1c-1.5-1.6-5.5-4.4-9-6.2l-6.4-3.2l-2,3.1c-1.1,1.7-2,5.8-2,9.1s-0.4,11-0.8,17c-0.7,10.1-0.6,11.1,1.9,11.8
		c1.5,0.5,3,2.5,3.4,4.9c0.7,3.5,1.2,3.9,3.4,2.7C760.2,73.6,761.8,71.9,762.2,70.5L762.2,70.5z"/>
	<path id="Lugo" class="st1" d="M503.3,40.2c1.6-2.5,1.8-4,0.6-7.3c-1.3-3.7-0.9-5.4,4-15.4c3-6.2,6.2-12.2,7.1-13.5
		c2.3-3.2-0.6-9.7-3.9-8.7c-3.2,1-6.3-1.2-5.3-3.7c0.4-1.2,2.8-2.6,5.3-3.3c2.5-0.6,4.6-2.2,4.9-3.4c0.3-1.8-0.6-2.3-4.3-2.3
		c-3.9,0-5.2-0.8-7.6-4.7c-2.9-4.7-3.4-9.4-2.4-23.6c0.4-5.7,0.2-6.1-3.3-6.5c-2.3-0.3-5-2.1-7.2-5c-3.2-4.2-16.2-12.8-19.4-12.8
		c-0.8,0-1.4,3.1-1.4,6.9c0,10.7-2.3,16.7-7.4,19.1c-5.5,2.6-8,10.9-6.7,22.5c0.8,6.7,0.4,8.9-2.7,15.9C450.1,2,450,3,451.4,10.8
		c0.8,4.6,1.1,8.9,0.7,9.6c-1.7,2.7,1.1,7,5.8,9c2.7,1.1,6.9,3.6,9.3,5.5c3.7,2.8,6.1,3.5,13.8,3.7c6.1,0.1,10.3,1,12.4,2.4
		C497.9,44.1,500.9,43.8,503.3,40.2L503.3,40.2z"/>
	<path id="Alava" class="st1" d="M788.5,29.1c-1.9-3.5-0.9-7.3,1.8-7.3c1.1,0,2.5-2.7,3.4-6.8c2.9-12.6,2.3-13.6-8.4-14.7
		c-6.1-0.6-6.8-1.1-8.1-5.1c-1.4-4.1-1.7-4.3-4.2-2.4c-5.9,4.4-18.2,1-18.2-5c0-3.7-2.9-4.9-6.8-2.9c-5.8,3-6.2,6.6-1.2,11
		c4.3,3.8,4.6,8.5,0.6,8.5c-3.3,0-8.7,3.1-8.7,5c0,1.5,0.6,1.5,2.8,0.4c3.4-1.8,7.1,0.6,6,4c-1,3.1,4.9,8.3,14.9,13.3
		c4.5,2.2,9,5.1,10,6.3c1.4,1.7,3.1,2,6.9,1.4c2.8-0.5,6.2-0.2,7.5,0.5C790,36.8,790.9,33.5,788.5,29.1L788.5,29.1z"/>
	<path id="Burgos" class="st1" d="M715.2,113.1c6.3,0.7,7.3,0.4,7.3-1.6c0-1.3,2.5-5.3,5.5-8.9c4.7-5.6,5.4-7.2,4.6-10.6
		c-1-4.6-0.7-4.7,9.2-6.1c4.3-0.6,6.8-1.6,7.3-3.1c0.4-1.2,1.6-3.3,2.7-4.5c2.5-2.9,1-8.8-2.5-9.7c-2.5-0.7-2.6-1.6-2-13.3
		c1.3-23.5,1.6-26.4,3.2-28.4c1.3-1.6,0.9-2.7-2.4-5.8c-2.4-2.3-3.9-5-3.7-6.6c0.3-1.9-0.3-2.6-1.6-2.2c-5,1.2-6.1,0.7-6.5-2.8
		c-0.3-2.9,0.4-4.1,3.6-5.7c2.2-1.2,5.2-2.1,6.5-2.2c1.9,0,1.4-0.9-2.1-3.9c-3.8-3.2-4.4-4.5-3.7-7.7c1-4.8-3.1-8.1-7.3-5.9
		c-3.7,2-8.4,1.7-11.7-0.6c-3.5-2.5-9.4-1-16.9,4.2c-6.5,4.5-7.9,6.9-6.1,10.5c0.8,1.5,2,3.9,2.6,5.2c2.1,4.2-0.1,7.3-7.3,10.4
		c-5.3,2.3-7.5,2.7-9.3,1.5c-2-1.2-2.6-0.7-3.9,3.3c-0.9,2.6-3.1,6.5-5,8.7c-2.7,3.2-3.1,4.4-1.8,5.9c1.2,1.4,1.2,2.6,0.1,4.6
		c-2.6,4.8-1.6,11.3,2.9,18.7c2.4,4,5.3,7.1,6.6,7.1c1.2,0,3,1.8,3.9,3.9c0.9,2.2,3.1,5.3,4.9,7c5.3,4.9,3.7,13.6-2.8,16.1
		c-3.2,1.2-3.2,1.3-1.3,7.6c1.1,3.5,2.9,6.9,4,7.5c1.1,0.6,2.1,2.1,2.1,3.1s1.9,3.1,4.3,4.6c3.7,2.2,4.6,2.3,6.9,0.8
		C707.1,112.9,710.2,112.5,715.2,113.1L715.2,113.1z M769.2,19c1.1,0,3.2,0.7,4.7,1.5s3,1.2,3.2,1c1.1-1.1-1.1-6.3-3-7
		c-3.1-1.2-12.2,1.7-13.1,4.2c-1.2,3,1.9,4.7,4.3,2.3C766.3,19.9,768.1,19,769.2,19L769.2,19z"/>
	<path class="st1" d="M391.7,17.6c3.1-1.9,5.7-2.6,8.1-2c2.9,0.7,4.3,0,7.9-3.9c3.7-4,5.3-4.8,10-4.8c3.1,0,7.4-0.9,9.5-2
		s4.7-1.7,5.7-1.3s4.8-0.5,8.5-1.8c5.5-2.1,7.3-3.6,9.9-8.4c2.7-5.1,3-7.2,2.3-14.7c-1.1-12.2,1.8-22,7.3-24.2
		c4.6-1.9,6.8-7.1,6.8-16.1c0-5-0.5-6.3-2.4-6.4c-1.3-0.1-3.3-0.3-4.4-0.5c-5.9-0.9-10.6,0.2-11.5,2.8c-0.5,1.5-2.8,3.7-5.1,4.9
		c-2.4,1.2-4.8,3-5.4,4c-0.6,1-2,1.8-3,1.8c-2.5,0-2.5,4.2,0.1,10.4c1.6,3.9,1.7,5.1,0.3,6c-2.3,1.4-4.8,1.4-5.7-0.1
		c-0.8-1.3-6.9-1-10.6,0.5c-3.2,1.3-17.2,1.4-20.7,0.1c-2.3-0.8-4.1,0-8.3,3.8c-4.1,3.7-6.5,4.8-10.4,4.8c-7.1,0-13.2,6.5-12.6,13.4
		c0.4,4.2,0.9,4.9,4.4,5.5c3.9,0.7,4.6,1.8,6.9,10.4c0.2,0.9,2.3,1.7,4.6,1.7c6.1,0,6.6,3.4,1.3,8.8c-4.4,4.5-4.4,4.7-2,7.3
		C386.3,21,386.1,21,391.7,17.6z"/>
	<path id="Cantabria" class="st1" d="M695.9,10.1c4.2-2.1,4.2-2.2,2.4-5.9l-2.7-5.4c-2.2-4.3,1.8-10.2,9.8-14.8c3.9-2.2,8-4,9.2-4.1
		c1.2,0,5.1-2.2,8.8-4.8c4-2.9,7.8-4.6,9.5-4.3c1.6,0.3,3.9-0.2,5.1-1.2c2.1-1.5,2-1.8-0.8-3.8c-1.7-1.2-5.8-2.2-9.3-2.2
		c-5.2,0-6.6-0.6-9-3.9c-2.6-3.6-3.5-3.8-10.7-3.6c-4.3,0.2-8.8,0.6-9.9,1c-1.1,0.4-4.5,1.4-7.4,2.1s-9.6,3-14.7,4.9
		c-7.7,2.9-10,3.3-13.3,2.1c-5.2-1.8-5-1.9-5,1.3c0,2.7-2.8,4.5-9.6,5.9c-5.4,1.1-7.3,7-4.9,15.2c1.5,5.2,2.4,6.4,4.5,6.1
		c1.4-0.2,4.3-0.6,6.4-0.8c2.1-0.2,4.1-0.8,4.6-1.3c2-2,5.2-0.6,11.1,4.8c3.4,3.1,6.9,6.8,7.7,8.2c2.2,3.8,9,7.6,12.1,6.8
		C690.9,12.3,693.8,11.1,695.9,10.1L695.9,10.1z"/>
	<path id="Asturias" class="st1" d="M536-1.5c2.8-1.6,7-4.3,9.2-6c4.2-3.1,11.3-3.9,16.2-1.8c1.5,0.7,6.6,1.8,11.5,2.5
		c8.2,1.2,9.1,1.1,13.6-2c4.3-2.9,5.3-3.1,8.5-1.7c3,1.4,4.3,1.3,7.6-0.7c2.2-1.3,5.1-2,6.5-1.6c1.4,0.5,4.4-0.5,7.1-2.3
		c8.2-5.5,15.5-8.1,19.8-7.1c3.3,0.7,4.2,0.4,4.9-1.7c0.9-2.8,6.1-5.7,10.3-5.7c1.5,0,3.2-1.3,3.8-3c1-2.6,0.6-3.2-2.4-4.1
		c-1.9-0.6-5.9-0.7-8.7-0.3c-4.2,0.6-5.9,0.1-9.2-2.6c-4.6-3.8-5.2-3.9-12.3-2c-4.6,1.3-5.6,1-10.8-2.6c-4-2.8-8-4.2-13.3-4.8
		c-4.2-0.4-9.8-1.8-12.6-2.9c-4.8-2-5.2-2-8.1,0.7c-2.7,2.5-3.7,2.7-9.3,1.4c-5.5-1.2-7-1-11.8,1.4c-5.1,2.6-5.7,2.7-8.8,0.6
		c-2.6-1.7-3.8-1.8-5.3-0.6c-1.1,0.9-2.9,1.2-4.3,0.5c-2-0.9-8.9-1.5-23.3-2c-7-0.3-8.7,0.7-9.9,5.5c-3.3,13.2,0.4,24.3,8.1,24.3
		c3.1,0,4.6,0.7,5.2,2.6c1.2,3.9-1.6,8.1-5.3,8.1c-1.8,0-3.6,0.6-4.1,1.4c-0.6,0.9,0.4,1.1,2.6,0.5c2.8-0.7,3.7-0.2,5.1,2.7
		c1.3,2.8,2.3,3.4,4.6,2.8c1.8-0.4,3.6,0.1,4.6,1.3C527.9,2.2,529.9,2,536-1.5L536-1.5z"/>
	<path id="Guipuzcoa" class="st1" d="M799.8-1.4c4.5-2.3,9-6.8,9-9c0-1.1,1.5-3.8,3.4-6.2c9.3-11.5,12.5-16.8,11-18.2
		c-2.2-2.2-3.1-1.9-6.9,1.9c-2.2,2.2-4.9,3.4-7.7,3.4c-2.4,0-8.1,0.7-12.6,1.4c-6.9,1.2-8.7,2.1-10.6,5.3c-1.2,2.1-1.9,4.8-1.4,6
		c0.5,1.3-0.3,3.5-2.1,5.4c-4.7,5-2.7,8.8,4.4,8.8c3.1,0,6.6,0.6,7.7,1.3C796.5,0.4,796.3,0.5,799.8-1.4z"/>
	<path id="Vizcaya" class="st1" d="M771.1-10c1-1.2,2.8-1.8,4.1-1.5c3,0.8,6.9-3.4,5.8-6.2c-0.5-1.2,0.5-4.6,2.2-7.6
		s2.7-5.8,2.3-6.2c-1.6-1.6-20.7-5.9-26.2-6c-5.9,0-7.7,2-7.8,8.7c0,3.5-4.3,4.2-7.6,1.3c-2.4-2.1-2.8-2.2-5-0.2
		c-1.4,1.3-3.7,1.8-5.7,1.5c-2.3-0.5-4.6,0.4-7.3,2.7c-6.1,5.2-1.6,8.4,6.6,4.7c2.9-1.3,4.2-1.2,7.4,0.7c3.6,2.2,4.3,2.2,8.1,0.2
		c4.7-2.4,7.2-1.3,8.8,3.9c0.5,1.6,1.5,3.7,2.2,4.6C761.1-7.2,769-7.5,771.1-10L771.1-10z"/>
	<path id="Marco" class="st2" d="M158.5,573.3v-68.8h145.6h145.6v68.8v68.8H304.2H158.5L158.5,573.3L158.5,573.3z"/>
	<path class="st1" d="M174.4,626.8c-3.5-2.4-6.4-5-6.4-6c0-2.5,13.1-8.7,16.2-7.8c4.3,1.4,5.7,5.5,3.8,11.2
		C185.4,632.6,183.5,632.9,174.4,626.8L174.4,626.8z M254.7,607.6c-3.4-1.5-5.3-4.1-9.1-12c-2.6-5.6-4.8-10.4-4.8-10.8
		c0-1.7,8.5-4.8,13.1-4.8c5.2,0,10.5-2.7,15.2-7.7c3.2-3.4,12.3-5.2,16.1-3.1c4.2,2.2,3.6,6.7-1.1,8.3c-5.2,1.8-10.4,9.6-12.3,18.3
		c-1.2,5.7-2.4,7.6-6.5,10.5c-2.8,1.9-5.3,3.4-5.6,3.4S257.1,608.6,254.7,607.6L254.7,607.6z M219,604.6c-3.2-3.7-3.8-6.8-2.2-10.5
		c2.9-6.4,15.9-2.6,15.9,4.6C232.7,605.9,223.5,609.9,219,604.6L219,604.6z M188.5,574.8c-2.6-1.6-8.7-17.8-7.8-21.1
		c0.5-2,2.1-3.3,4.9-3.8c6.3-1.3,10.3,0.3,12.1,4.7c1.4,3.5,1.3,4.8-1.2,9.8c-1.6,3.2-2.9,6.4-2.9,7.2
		C193.6,573.8,190.3,575.9,188.5,574.8z"/>
	<path class="st3" d="M309,623.2c-4.7-2.2-10.2-9.6-10.2-13.8c0-2.3,12.9-17.2,14.8-17.2c1.1,0,3.2,0.9,4.6,2
		c1.8,1.4,3.2,1.6,5.1,0.6c3-1.6,5.2-0.6,5.2,2.5c0,1.2,1,4.8,2.2,8c3.1,8.1,0.9,12.9-7.7,17.3C315.4,626.4,315.9,626.4,309,623.2
		L309,623.2z M374.6,605.4c-1.7-0.8-3-1.8-3-2.3s2.9-2.3,6.4-4.2c5.7-3,7.1-4.7,12.2-14.8c3.2-6.3,6.4-13.6,7.1-16.2
		c1.9-6.9,3-8.1,8.4-9c4.5-0.7,4.9-0.5,5.6,3.1c2.5,12.7,2.5,16.3-0.4,21.8c-1.6,3-2.8,6.4-2.8,7.6c0,2.8-4.9,5.2-12.1,6.1
		c-4.6,0.6-6.4,1.5-7.4,3.7c-0.7,1.7-3.1,3.6-5.3,4.4C378.6,607.2,378.6,607.2,374.6,605.4L374.6,605.4z M409.3,554.6
		c-3.1-2.5-3.1-2.7-1.1-9.1c2.3-7.4,6.5-10.6,15.5-11.7c5.1-0.6,5.6-0.4,7,3.3c2.7,7.1-1.3,11.8-10,11.9c-1.7,0-3.3,1.1-3.8,2.6
		C415.3,556.4,412.7,557.4,409.3,554.6z M428.5,520.4c-0.9-0.9-1.6-2.1-1.6-2.7c0-1.6,3.7-1.3,4.8,0.4
		C433.1,520.4,430.4,522.3,428.5,520.4L428.5,520.4z"/>
</g>
<g id="Layer_2">
	<path class="st4" d="M1028.5,324.4c-1.9-2.2-0.5-6,2.5-7c2.5-0.8,4.9,4.9,3,7.2C1031.9,327.1,1030.7,327,1028.5,324.4z
		 M1012.1,312.2c-1.5-3.2-1.2-3.9,3.4-8.1c5.2-4.8,11.3-6.1,12.6-2.7c1.1,3-3.2,10-7.5,12.2C1015.2,316.5,1014,316.3,1012.1,312.2
		L1012.1,312.2z M1080.2,290.1c-2.4-0.6-5.3-1.8-6.4-2.7c-1.7-1.4-2.5-1.3-4.6,0.6c-2.4,2.1-2.9,2.1-6.7,0.2
		c-6.9-3.6-5.7-7.9,5-18.5c6.7-6.7,10.4-9.2,14-9.9c4.2-0.8,5.1-0.5,5.8,1.9c0.7,2.3,1.4,2.6,3.4,1.5c1.4-0.7,4-1.3,5.9-1.3
		c2.6,0,3.7,1,4.9,4.6c1.3,4,1.1,5.5-1.4,10.5c-3.6,7.1-10.5,14.6-13.3,14.5C1085.5,291.2,1082.6,290.7,1080.2,290.1L1080.2,290.1z
		 M1125.8,251.7c-2.4-2.8-0.5-7.2,4.2-9.6c3.7-1.9,4.7-1.9,10.7,0.1c9.4,3.1,9.1,6.5-0.6,9.3C1131,254.2,1127.8,254.2,1125.8,251.7
		L1125.8,251.7z"/>
	<path class="st4" d="M849.2,641.5c-0.3-0.3-6.5-2.2-13.7-4.1c-13.4-3.6-27.2-9.3-36-14.7c-6.5-4-23.7-10.3-28.2-10.3
		c-2,0-6.9,1.5-10.9,3.4c-5.7,2.7-8.5,3.2-13,2.6c-4.2-0.6-7-0.2-11,1.9c-12.5,6.4-27.9,8.4-42.3,5.4c-7.4-1.5-7.8-1.4-14.9,2.6
		c-4.4,2.5-10.3,4.5-14.7,5c-6.4,0.8-8.6,0.4-16.3-3.1c-4.9-2.2-13.8-7.1-19.9-10.9s-16.5-9.1-23.2-11.8
		c-11.2-4.5-12.8-5.6-19.2-13.5c-9.5-11.6-12.2-12.1-27.7-4.7c-6.4,3.1-12.5,5.6-13.5,5.6c-4.8,0-17.6,7.3-22.1,12.7
		c-3.9,4.7-18.5,31.4-18.5,33.8c0,0.4,77.8,0.7,172.8,0.7S849.5,641.8,849.2,641.5L849.2,641.5z"/>
	<path id="Cadiz_1_" class="st4" d="M582.7,560.1c1.2-1.3,3-4.8,3.9-7.8c1.3-3.9,2.5-5.4,4.4-5.4c3.8,0,6.5-4.2,5.6-8.6
		c-0.4-2-2.9-6-5.5-8.8c-6.9-7.4-7.5-11.2-2.4-15.2c3.5-2.7,4.2-4.4,5-11.3c1.1-9.4,3.7-11.9,10-9.7c3.3,1.2,4,0.9,6-2.5
		c3-5.1,3-5.2-3.1-3.6c-4.6,1.2-5.7,1.1-8.1-1.1c-2.6-2.4-3.1-2.4-6.5-0.4c-5.4,3.1-10.8,4.1-13.8,2.5c-2.1-1.1-4.5-0.5-11.8,3.2
		c-5,2.5-11.5,5.3-14.3,6.2c-5.1,1.6-5.3,1.6-9.6-3.2c-5.1-5.5-5.7-5.7-12-2.7c-4.9,2.3-9.6,10-8.4,13.8c0.4,1.2,3.4,3.9,6.8,6
		c5.9,3.7,11.5,9.5,11.5,11.9c0,0.6-1.2,2.2-2.7,3.5c-3.8,3.2-3.4,4.7,2.6,11.7c2.9,3.4,5.7,7.3,6.2,8.9c0.8,2.4,1.1,2.5,2.9,0.7
		c2.7-2.7,2.7-2.7,11.7,2.7c4.3,2.6,8.3,4.7,8.9,4.7s2.5,1.5,4.2,3.4C577.9,563.1,579.7,563.3,582.7,560.1L582.7,560.1z"/>
	<path id="Malaga_1_" class="st4" d="M609.5,531.8c7.4-7,8.7-7.7,13.8-7.6c3.1,0.1,7.4,0.6,9.5,1.1c3.5,0.9,4.6,0.2,11.4-6.9
		c4.1-4.3,8.6-8.7,9.9-9.7c4.7-3.6,21.9-6,39.1-5.7c5.7,0.1,10.5,0,10.5-0.4c0-4.5-17.3-14.5-28.4-16.3c-6.1-1-8.9-4.6-6.8-8.6
		c0.9-1.7-0.2-3-1.2-3.9c-1-1-1-2.2,0.1-4.2c2-3.8,2-3.9-2.6-6.3c-3.8-2-4.3-1.9-7.6,0.6c-4.1,3.2-6.6,3.4-11.5,0.9
		c-3.3-1.7-4-1.6-7.9,1.3c-2.9,2.2-5.4,3-7.8,2.5c-3-0.6-4.1,0.2-7.4,5.5c-2.1,3.4-3.9,6.8-5.3,7.5s-2.6,2.6-2.6,4.2
		c0,2.5-4.8,11.9-6.1,11.9c-0.3,0-2-0.6-3.9-1.3c-5.7-2.2-7.3-0.5-8.3,8.2c-0.7,6.6-1.6,8.6-4.9,11.3l-4,3.3l2.9,4.7
		c1.6,2.6,4,5.5,5.3,6.4s2.8,3.4,3.3,5.4c0.5,2,1.3,3.7,1.7,3.7S605,536.1,609.5,531.8L609.5,531.8z"/>
	<path id="Granada_1_" class="st4" d="M735.6,503.2c4.6-1.2,9.5-3.2,10.8-4.3c1.3-1.2,3.8-2.8,5.6-3.7c2.7-1.4,3-2.3,2.3-6.1
		c-0.7-3.5,0.1-6.5,3.5-13.4c3.8-7.6,5-9,8.7-9.7c4.3-0.8,9-6.8,15.7-20.2c1.1-2.3,4.3-5.3,7-6.7c6.6-3.5,10.1-10.5,10.1-20.1
		c0-4.1,0.7-8.6,1.6-10c2.2-3.6-2.1-9-9.1-11.3c-5.4-1.8-5.7-1.8-10.4,2.3c-2.7,2.3-6.8,5.7-9.1,7.5c-2.7,2.2-5.5,6.7-7.8,12.6
		c-3.3,8.4-4.1,9.4-8.8,11c-2.9,1-7.5,1.8-10.2,1.7c-2.7,0-7.5,1.2-10.6,2.8c-3.4,1.7-6.9,2.6-8.7,2.1c-2.2-0.6-4,0.2-6.3,2.7
		c-1.8,1.9-4.2,3.5-5.4,3.5c-4.3,0.1-12.6,3.8-14.4,6.5c-1.7,2.4-3,2.7-9.7,2.2c-6.5-0.5-8.3-0.1-11.3,2.4
		c-4.2,3.5-9.5,16.3-7.5,18.3c0.8,0.8,0.8,2.2-0.1,3.9c-1.9,3.6-0.5,5.3,6,7c11,3,26.2,10.9,27.5,14.4c1.1,2.8,2.1,3.3,7.1,3.3
		c4.2,0,6.6,0.8,8.4,2.7c1.5,1.7,3.3,2.4,4.6,1.8C726.3,505.9,731,504.4,735.6,503.2L735.6,503.2z"/>
	<path id="Almeria_1_" class="st4" d="M778.5,503.2c1-3.3,10-10.8,12.8-10.8c4.9,0,12.6,3.1,16.7,6.8c5.1,4.5,5.7,4.2,12.6-4.8
		c2.6-3.4,5.2-9.3,6.8-15.7c2.8-10.9,10.4-24.9,15.9-29.2c3.4-2.6,2.6-4.9-1.2-3.4c-1.1,0.4-4.4-0.5-7.4-2c-4-2.1-5.6-3.8-6.2-7
		c-0.5-2.3-3.3-7.3-6.2-11c-5.9-7.4-5.9-7.5-4.1-10.4c2-3.2-2.3-6.8-8-6.8c-6.6,0-8.2,1.9-8.2,10.3c0,10-4.4,18.5-11.8,22.8
		c-3.2,1.9-5.8,4.1-5.8,4.9s-2.5,5.7-5.5,10.7c-4.6,7.7-6.3,9.4-10.5,10.5c-4.2,1.1-5.5,2.5-8.6,8.8c-2.9,5.9-3.5,8.6-2.8,12.7
		c0.8,4.9,0.6,5.4-3.7,7.6c-5.2,2.7-5,2.8,8.9,6.3C774.1,506.4,777.5,506.4,778.5,503.2z"/>
	<path id="Sevilla_1_" class="st4" d="M564.4,489.6c9.4-4.4,11.7-5,14.4-3.8c2.6,1.2,4.4,0.9,9.2-1.4c7-3.4,9.5-3.6,11.8-0.8
		c0.9,1.1,2.7,2,4,2c4,0,14.1-7.7,17.6-13.5c3.2-5.2,7.8-8,10.6-6.2c0.7,0.4,3-0.5,5.1-2.1l4.4-3.4c1.7-1.3-1.4-1.8-3.6-0.6
		c-4.6,2.5-8.3,0.4-9.9-5.7c-0.8-3.1-2.4-6.6-3.5-7.8c-1.7-1.9-1.8-3.4-0.5-9.2c0.8-3.8,1.5-7.2,1.5-7.5s-1.7-1.5-3.8-2.5
		c-3.5-1.8-3.9-1.7-5.5,0.7c-1.2,1.9-2.5,2.4-4.4,1.8c-1.8-0.6-4.6,0.4-8.1,2.7c-4.3,2.8-5.8,3.2-7.3,2c-2.2-1.8-2.6-6.1-0.6-7.3
		c2.8-1.7,1.2-8-3.9-15.6c-2.9-4.3-6.3-10.9-7.7-14.7c-2.1-5.9-3-6.8-6.1-6.8c-2,0-4.3-0.9-5.2-2c-1.4-1.7-2.2-1.7-6,0.2
		c-3.4,1.6-4.8,3.5-6.3,8.4c-1.5,5-2.4,6.2-4.6,5.9c-1.5-0.2-5.3,0-8.5,0.4l-5.8,0.8l0.9,5.8c0.8,5.2,0.5,6.1-2.8,8.7
		c-2.3,1.8-5.6,2.9-8.8,2.9c-4.2,0-5.7,0.8-8.1,4.2l-3,4.2l4.9,5c4.3,4.4,4.9,5.8,4.8,11.7c0,3.7-0.1,8.2-0.1,10
		c0,1.9-0.3,10.2-0.7,18.5c-0.4,8.3-0.4,15.2,0,15.2c0.4,0,2.2-0.7,3.9-1.5c3.9-1.8,10.7,1.2,13.1,5.6
		C547.7,497.1,549.2,496.8,564.4,489.6L564.4,489.6z"/>
	<path id="Huelva_1_" class="st4" d="M526.1,474.8c0.4-8.5,0.7-17,0.7-18.9s0-6.1,0-9.5c0-5.3-0.6-6.8-4.7-10.7
		c-5.6-5.4-5.8-7.1-1.3-13c3-3.9,4.2-4.5,9.2-4.5c7.7,0,10.8-3.2,9.5-10c-0.8-4-1.5-4.9-4.2-4.9c-1.8,0-5.1-0.9-7.3-2.1
		c-2.9-1.5-5.9-1.8-10.6-1.2c-6.4,0.8-6.7,0.7-8.8-3.3c-1.2-2.3-3.1-4.2-4.2-4.2s-2.7-1.5-3.5-3.2c-1.3-2.8-2-3.1-5.5-2.1
		c-2.2,0.6-4.9,2.4-6,3.9s-3.1,2.7-4.6,2.7c-4.6,0-9.2,4.1-15.6,13.9c-3.4,5.2-6.5,10.4-7,11.6c-0.5,1.2-2.6,4.6-4.7,7.7l-3.8,5.6
		l2.9,10.4c1.6,5.7,2.6,10.7,2.2,11.1c-1.3,1.3,2.1,5.7,4.4,5.7c1.3,0,5.3,1,8.8,2.2c5.9,2,6.6,2,8.8,0c3.8-3.4,7.9-2.7,10.3,1.9
		c1.2,2.2,2.7,4,3.4,4c0.7,0,3.6,2,6.4,4.5s7,5.5,9.4,6.7c2.4,1.2,6.3,4.6,8.7,7.6s4.8,4.9,5.4,4.4
		C525,490.8,525.8,483.4,526.1,474.8L526.1,474.8z"/>
	<path id="Cordoba_1_" class="st4" d="M657.2,461.3c4.2-2.6,4.7-2.7,8.8-0.5c4.4,2.3,6.6,1.3,6.6-3c0-3.1,9.2-8.9,13-8.1
		c3.3,0.6,3.1,0.3-2-4.2c-6.3-5.5-8.8-10.8-11.7-24.5c-2.9-13.6-2.5-18.8,1.5-26.1l3.5-6.3l-3-3.2c-1.9-2-2.7-4.1-2.2-5.5
		c1.3-3.3-2.4-8.1-7-9.1c-2.2-0.4-7-3.2-10.8-6.3s-7.3-5.5-7.7-5.5c-0.4,0-3-1.5-5.7-3.4s-6-3.4-7.3-3.4s-3.2-1.7-4.3-3.8
		c-2.6-5.1-8.6-9.1-10.6-7.1c-0.8,0.8-2.4,1.5-3.4,1.5s-5.3,3.7-9.3,8.2c-6.5,7.1-7.8,8.1-11.1,7.3c-3.3-0.7-4-0.2-6.6,4.8
		c-2.6,5.1-2.8,6.3-1.4,13.8c1.3,7.2,1.2,8.5-0.7,9.8c-2,1.5-1.9,2.2,0.5,8.3c1.5,3.7,5.1,10.5,8.1,15.2c5.6,8.7,7,15.4,3.9,18.6
		c-3,3,0,3.2,5.6,0.3c3.1-1.6,6.4-2.7,7.5-2.5c1,0.2,2.8-0.8,3.9-2.3c1.9-2.6,2-2.6,7,0c6.2,3.3,6.5,4,4.7,12
		c-1.2,5.2-1.1,6.9,0.5,8.7c1.1,1.2,2.4,4.3,2.9,6.9c1.2,5.9,2.6,6.8,7.4,5c3.4-1.3,4.2-1,7.8,2.9
		C650.1,464.8,651.3,465,657.2,461.3L657.2,461.3z"/>
	<path id="Jaen_1_" class="st4" d="M697.8,448.7c1.3-2.2,7.6-5.5,13.1-6.8c2.2-0.5,5.8-2.5,8-4.3c2.4-2,5.1-3.1,6.6-2.7
		c1.4,0.4,5.3-0.6,8.7-2c3.4-1.5,8.3-2.9,11.1-3.1c8.2-0.6,13.9-2.4,14.6-4.7c2.1-6.5,6.4-16,8.3-18.2c1.2-1.4,4.5-4,7.3-5.7
		c5.7-3.6,11.7-12.2,13.5-19.5c1.4-5.5-0.1-9.5-6.7-17.1c-4.5-5.3-10.3-6.4-15.3-3.1c-6.4,4.4-14.9,6.9-17.9,5.3
		c-1.5-0.8-4.5-1.1-6.8-0.6c-2.8,0.6-4.9,0.1-6.5-1.4c-2.3-2-2.7-2-6.6,1.3c-4.3,3.6-8.6,4.6-10.1,2.2c-1.4-2.3-5.9-1.5-7.4,1.3
		c-1.8,3.3-5,3.5-8.3,0.5c-2.3-2.1-2.7-2.1-4.9-0.1c-2,1.8-3.8,2-11.7,0.8c-5.1-0.7-10.1-1-11-0.7c-2.4,0.9-1.5,11,1.2,14
		c3,3.3,2.9,4.4-1.1,11.9c-3.8,7.2-4.1,12.3-1.4,25c2.6,12.3,6.1,18.6,13.7,24.5C695.3,451.1,696.3,451.4,697.8,448.7L697.8,448.7z"
		/>
	<path id="Murcia_1_" class="st4" d="M857.4,442.4c0-3.8,11.2-9.6,16.5-8.7c2.7,0.5,6.3,0,9.4-1.3c2.8-1.2,6.8-2.1,9-2.1
		c4.3,0,6.3-3.1,4.7-7.2c-0.5-1.4,0.5-4,2.7-6.8c3.9-5.1,4.4-7.5,1.8-7.5c-1,0-3.2-2-5-4.4c-10.5-14-11.4-17.3-6.6-24
		c1.5-2.1,2.2-4.2,1.5-4.6s-1.6-2.4-2.2-4.5s-1.9-4.8-3.1-6.1c-1.8-2-1.9-3.1-0.6-6.5c1.6-4.2,0.5-9.5-2.4-11.3
		c-0.8-0.5-2.1-2.4-2.7-4.2c-1.1-3-1.8-3.2-9.6-2.7c-8.6,0.5-11.9,2.6-11.9,7.6c0,1.2-1.2,3.3-2.7,4.6c-2.6,2.4-2.6,2.4,0,5.8
		c4.2,5.3,3.4,8.9-2.8,13.2l-5.4,3.8l-3.1-2.9c-4.1-3.8-7.8-3.7-11.7,0.4c-2.3,2.4-4,3.1-6.4,2.5c-2.6-0.6-4.1,0.2-7.5,4.3
		c-2.4,2.8-7.5,8.5-11.3,12.6c-6.9,7.5-6.9,7.6-4.5,10.6c1.8,2.2,3.9,3,7.7,3c6.8,0,12.2,5,9.9,9.2c-1.2,2.2-0.6,3.8,3.8,9.2
		c2.9,3.6,5.6,8.5,6.2,11c1.1,5.1,7,8.9,11.9,7.7c2.1-0.5,3.9,0.1,5.5,1.9c2,2.2,3,2.4,5.7,1.2C855.9,445.4,857.4,443.7,857.4,442.4
		L857.4,442.4z"/>
	<path id="Alicante_1_" class="st4" d="M906.8,403.3c0.4-2.2,1.3-4.4,2-4.8s1.2-3.1,1.2-6c0-6.8,2.5-12.1,5.6-12.1
		c1.8,0,2.5-1,2.5-3.4c0-4.4,3.3-10.8,6.1-11.9c1.2-0.5,3.6-0.8,5.4-0.8c1.9,0,3.5-1,4-2.5c1.3-4.1,6.1-8.3,9.5-8.3
		c2.5,0,3.6-1.1,4.8-4.8c1.2-3.6,2.8-5.3,6.7-6.8c4.5-1.8,8.1-6.3,8.1-10.1c0-0.7-4.3-3.4-9.6-6c-9.2-4.5-9.8-4.6-13.6-2.6
		c-2.2,1.1-8.7,3.4-14.4,5c-8.4,2.4-10.3,3.4-9.9,5.4c0.9,5.1-6.9,8.9-8.7,4.3c-0.5-1.3-1.8-1.7-3.7-1.3c-1.6,0.4-5.1-0.2-7.8-1.3
		s-5.2-1.7-5.7-1.2s-0.4,3.2,0,6.2c0.5,3.4,0.3,5.7-0.7,6.3c-1.2,0.7-1.2,2.1-0.1,5.2c1,2.9,1,5,0.1,6.7c-1,2-0.4,4.5,2.6,11l4,8.4
		l-2.7,3.8c-1.5,2.1-2.7,4.8-2.7,6c0,4.3,11.6,19.7,14.8,19.7C905.3,407.4,906.3,405.6,906.8,403.3L906.8,403.3z"/>
	<path id="Badajoz_1_" class="st4" d="M558.9,393.7c1.5-5,2.6-6.2,7.4-8.2c5-2.1,5.9-2.1,7.9-0.3c2.7,2.5,5.3,2.5,8.4,0.2
		c2.1-1.6,2.2-2.7,0.9-10c-1.4-7.8-1.3-8.5,2.3-14.5c3.3-5.6,4.1-6.2,7.4-5.6c3.2,0.6,4.7-0.4,11.1-7.3c4.1-4.4,8.3-8,9.4-8
		c2.4,0,9.4-7.7,12.5-13.7c1.3-2.6,1.9-5.7,1.4-8.2c-1.2-6,2.4-11.6,9.4-14.7c5.2-2.3,5.8-3,4.6-5.3c-1-1.9-0.9-3.7,0.7-6.6
		c2.9-5.5,2.7-6-2.3-4.8c-2.4,0.6-8.9,0.9-14.5,0.8c-9.6-0.3-10.4-0.1-16.2,4.3c-3.3,2.5-9.1,6.3-12.8,8.4
		c-3.7,2.1-9.3,5.7-12.5,7.9c-5.5,3.8-6,3.9-11.1,2.2c-4.8-1.6-5.7-1.5-7.9,0.5c-1.7,1.5-3.7,2-5.9,1.5c-2-0.5-5.1,0-7.6,1.3
		c-5,2.6-7.3,1.7-15.9-6.2c-6.1-5.6-7.2-6-11.3-3.8c-3.5,1.9-13.3,0.3-17.4-2.8c-3-2.2-3.2-2.9-1.8-6.5c1.6-4.2,0.5-7.7-3.3-10.7
		c-3.3-2.6-7.9-2.1-8.7,1c-0.4,1.7-1.9,2.7-3.9,2.7c-5.1,0.1-7.9,3.1-7.9,8.5c0,4.1,1,5.6,6.7,10.5c3.7,3.1,6.7,6.8,6.7,8.2
		c0,4.3-6.2,15.5-12.7,23.2c-4.9,5.7-6.5,8.9-7.6,14.9l-1.4,7.6l4.7,4.5c3.3,3.1,5,6.1,5.6,9.9c1.2,7.5,6.6,11.6,12.9,9.8
		c4.2-1.2,6.5-0.2,6.6,3c0,0.5,1.8,1.9,4,3c2.2,1.1,4.4,3.3,4.8,4.9c0.8,2.5,1.6,2.7,7.4,1.9c4.7-0.7,7.5-0.3,10.3,1.2
		c2.9,1.6,6.6,2,15.9,1.6l12.1-0.5L558.9,393.7L558.9,393.7z"/>
	<path id="Albacete_1_" class="st4" d="M805.6,390.9c3-3.2,7.1-7.9,9.1-10.6c3.5-4.8,10.8-9.1,12.5-7.4c0.4,0.5,2.6-0.7,4.8-2.5
		c4.8-4,10-4.3,13.8-0.7c2.8,2.6,2.8,2.6,6.8-0.8l4-3.4l-3.1-5.4l-3.1-5.4l2.7-2.9c1.5-1.6,3.1-4.5,3.6-6.6c1.3-5.4,4-6.9,12.5-7.3
		c9.8-0.4,11.6,0.1,13.5,4.2c2.8,6.2,4.2,3.6,3.8-7.5c-0.4-12.2-1.3-13.5-8.9-12.4c-7.5,1-8.7-1.4-7.8-14.8
		c0.9-13.7-1.5-18.9-9.9-21.4c-5.9-1.8-11.7-0.2-25.7,7.2l-7.5,3.9l-5.1-3c-3.2-1.9-5.4-2.5-5.9-1.6c-2,3.2-11.8,6.7-17.7,6.3
		c-7-0.4-18.6-2.4-21.6-3.7c-3.6-1.6-11,13.9-11.4,23.7c-0.3,7.3,0,8.2,2.9,9.5c1.7,0.8,3.2,2.2,3.2,3.1s1.2,3.2,2.7,5.1
		c3.4,4.4,3.4,8.3-0.1,13.9c-3,4.9-2.4,7.8,1.4,6.6c3.4-1.1,9.5,4.4,14,12.7c4,7.4,4,13.7,0,20.1c-1.8,2.9-1.7,3.2,2.5,5
		C798.2,397.5,799.7,397.1,805.6,390.9L805.6,390.9z"/>
	<path class="st4" d="M683.2,367.7c4.2,0.5,8.6,1.1,9.8,1.5s2.9-0.3,3.9-1.5c2.2-2.7,5.3-2.6,8.3,0.2c2.3,2.1,2.6,2,5-1
		c2.4-3,2.9-3.1,7.4-1.5c5.1,1.8,8.2,1,11.6-3c2.1-2.6,6-2.7,8-0.3c0.9,1,3.1,1.6,5.4,1.2c2.2-0.3,5.2,0.1,6.8,1
		c2.4,1.3,4.3,0.8,11.6-2.7c4.8-2.4,8.4-4.8,8-5.5s0.6-4,2.3-7.3c2.5-5,2.8-6.6,1.4-8.4c-0.9-1.3-2.3-3.9-3-5.8s-2.8-4.2-4.5-4.9
		c-2.9-1.3-3.1-2.2-2.8-10.6c0.2-7.6,1.1-10.6,4.7-17c2.5-4.3,3.7-7.8,2.8-7.8c-0.9,0-4-2.4-6.9-5.4c-5.8-5.8-6.7-6.2-10.8-4
		c-2,1.1-4.1,0.9-8.5-0.8c-5.6-2.1-6-2.1-11.7,0.7c-3.2,1.6-7.5,4.8-9.5,7.1c-3.5,4.1-3.9,4.2-15.5,4.4c-9.2,0.2-13-0.4-16.5-2.2
		c-2.8-1.5-6-2.1-8.3-1.7c-7.4,1.5-7.9-8.3-0.7-14.3c1.2-1,2.1-2.3,2.1-2.9c0-2.2-3.4-1.2-5.1,1.5c-1.1,1.8-3.1,2.7-6.1,2.7
		c-2.4,0-5.8,1-7.5,2.2c-2.9,2.1-3.4,2-7.2-0.8l-4.1-3l-2.8,2.8c-2.6,2.6-6.6,11.3-6.6,14.4c0,0.7,0.4,2.7,0.9,4.3
		c0.8,2.5-0.1,3.4-5.9,6.4c-7.3,3.7-8.7,6.1-8.9,15.2c-0.1,4-1.4,7.4-4.4,11.6l-4.2,6l3.2,1.4c1.7,0.8,4.1,3.2,5.2,5.4
		c1.2,2.4,3.5,4.3,5.8,4.9c2.1,0.5,8,3.9,13.2,7.5s11.6,7.6,14.2,8.8c2.6,1.2,5.6,2.6,6.7,3.2c1.1,0.6,2.8,0.2,3.9-0.9
		C675.2,367.3,677.6,367,683.2,367.7L683.2,367.7z"/>
	<path id="Valencia_1_" class="st4" d="M912,333.2c0-2.7,1.2-3.6,6.7-5.6c3.7-1.3,9.2-3,12.2-3.7s6.5-2.1,7.7-3.1
		c2.1-1.6,2.1-2.2-1.2-9.1c-1.9-4.1-4.4-7.9-5.4-8.5c-1.2-0.7-1.5-2.3-1-4.4c0.5-2,0.2-3.3-0.6-3.3c-0.8,0-2.5-1.9-3.7-4.3
		c-2.1-4.1-2.1-5,1.5-19l3.8-14.7l-2.9-2.9l-2.9-2.9l-5.7,3.1c-5.1,2.8-6.4,3-11.4,1.6c-4.2-1.1-5.7-2.3-6-4.5
		c-0.2-1.7-1.6-3.2-3.1-3.5c-1.5-0.3-4.1-1.7-5.7-3.3s-3-2.1-3-1.2c0,2.7-3.8,1.7-8.4-2.2c-2.4-2.1-5.5-4.2-6.8-4.7
		c-2.7-1-3.1-3.7-0.7-6.1c2.1-2.1-0.2-4.3-8-7.6c-4.9-2.1-6.3-2.2-9.8-0.7c-5.2,2.2-3.7,4.3,5.1,7.6c9.4,3.5,10.2,4.4,7.6,10.6
		c-1.2,2.8-1.8,6.4-1.5,7.9c1.1,4.1-2.7,10-7.6,11.8c-5.8,2.1-10,10.4-8.3,16.4c1,3.3,2.5,4.6,8.1,6.7c10.1,3.8,11.9,7.1,11.9,22.7
		l0,12.8l6.1,0c7.7,0,8.9,0.9,10,6.7c0.7,3.8,1.8,5.1,5.8,6.8c2.9,1.2,6.5,1.7,8.7,1.2c2.8-0.6,4-0.2,4.6,1.4
		C909.3,338.4,912,336.9,912,333.2L912,333.2z"/>
	<path id="Caceres_1_" class="st4" d="M558.3,309.4c1.6,0.4,4.3-0.5,6.4-2c3.5-2.6,3.9-2.6,8-0.5c4.2,2.2,4.5,2.1,9.3-1
		c2.7-1.8,8.3-5.3,12.4-7.8s9.8-6.3,12.6-8.5s7.4-4.4,10.1-4.8l4.9-0.8l-7.3-7.3l-7.3-7.3l3-2.4c4.1-3.3,3.1-7.3-1.7-6.8
		c-4.3,0.5-5.9-2.2-3.8-6.2c1.2-2.3,1-2.5-1.8-2c-4,0.8-4.7-0.4-5.7-10c-0.6-6.1-0.4-8.3,1.2-9.6c2.8-2.3,0-11.6-3-10.3
		c-6,2.5-8,2-13.9-3.4c-3.3-3-6.6-5.5-7.4-5.5s-3,1.3-5,2.9c-3.6,2.9-3.6,2.9-6.6,0.2c-1.6-1.5-4.3-3.4-6-4.3s-3-2.3-3-3.1
		c0-2.2-6.9-9.1-9.1-9.1c-3.3,0-10.3,4.2-15.9,9.5c-4.3,4.1-7,5.4-13.4,6.6c-4.4,0.8-8.1,1.5-8.2,1.5s-1.3,2.4-2.6,5.4
		c-1.8,3.9-2.2,7-1.6,11.6c1.1,8.2-1.3,17.8-5,19.7c-1.6,0.8-4.3,3.2-6,5.3c-3.1,3.8-3.5,3.9-15.9,3.9h-12.7l1.9,3.7
		c1.1,2,3.8,5.5,6,7.6c2.6,2.4,4.4,5.8,5,9.1c1,5.8,1.6,6.2,5.4,3.2c1.4-1.1,3.9-2,5.5-2c1.7,0,3.2-1.1,3.6-2.7
		c1.4-5.5,13.8-2.1,16.8,4.6c1.2,2.6,1.2,4.3,0,6.9c-1.3,2.9-1.2,3.7,1,5.3c3.7,2.8,12,3.9,15.3,2.1c3.7-2,7.3-0.7,13.3,4.6
		c7.7,6.8,9.6,7.6,14.1,5.2C553.8,309.7,556.8,309.1,558.3,309.4z"/>
	<path id="Cuenca_1_" class="st4" d="M809.7,293.7c2.3-1.2,4.5-3,4.8-3.9c0.4-1.3,2-1,6.5,1.1l5.9,2.8l11-5.2
		c6.1-2.8,11.7-5.2,12.4-5.2c0.9,0,0.9-1.8,0-5.4c-1.2-4.7-0.9-6.4,1.8-12.1c2.1-4.4,4.2-6.9,6.3-7.4c5-1.2,8.6-5.7,7.7-9.3
		c-0.4-1.7,0.1-5.4,1.3-8.1l2.1-5l-6.4-2.6c-9.2-3.8-10-4.4-12.8-9.5c-3.4-6.2-4.6-7.1-12.2-9.9c-4.6-1.7-6.9-3.4-7.8-5.9
		c-0.7-2-2.6-4.5-4.2-5.8s-3.5-4.2-4.3-6.6c-1.2-3.6-2.9-4.9-9.6-7.6c-9.9-4-17-3.4-19.3,1.6c-1.1,2.4-2.6,3.3-5.5,3.3
		c-3.4,0-4.2,0.7-5.2,4.4c-1,3.8-1.8,4.4-5.8,4.7c-12.1,0.8-16.1,2.5-16.1,7c0,6.3-3,12.2-7.4,14.8c-5.5,3.2-10.7,10.9-8.7,12.9
		c0.7,0.7,1.3,2.8,1.3,4.6s1.2,5.2,2.6,7.5c4.7,7.6,9.8,23.6,8.9,27.8c-0.6,2.9-0.3,4.2,1.6,5.2c1.4,0.7,4.7,3.4,7.5,6
		s6.4,4.7,8.1,4.8c4.9,0.1,17.1,2.3,18.1,3.3C793.6,297.4,805.4,295.9,809.7,293.7L809.7,293.7z"/>
	<path id="Toledo_1_" class="st4" d="M720.3,289.7c1.8-1.9,6.4-5.1,10.3-7.1c6.9-3.5,7.2-3.5,12.8-1.4c7.2,2.7,9.6,1.8,10.7-4.1
		c1-5.3-3.2-18.5-8.3-26.2c-1.7-2.6-3.1-6.3-3.1-8.2c0-5.1-2.4-6.7-10.2-6.7c-5.3,0-7.5,0.7-9.5,2.8c-3.6,4-9.1,6.6-14,6.6
		c-6.2,0-6.9-3.7-1.6-8.1c2.4-2,4.3-4.3,4.3-5.1c0-1.5-8-4.3-12.4-4.3c-4.1,0-9.8-3.1-13.4-7.3l-3.6-4.1l-5.2,2.2
		c-2.9,1.2-8.7,3.2-13.1,4.4c-7.1,2-8.1,2-10.2,0.1c-1.4-1.3-3.5-1.8-5.5-1.3c-2.2,0.6-3.5,0.1-4.4-1.4c-2.4-4.2-8.2-2.7-12.4,3.3
		c-2.4,3.5-4.6,5.2-5.8,4.7c-1.1-0.4-4.3,0.5-7.3,2c-3.4,1.7-7.3,2.6-10.9,2.3c-7.1-0.5-8.6,1.7-7.4,10.3c0.9,5.9,1.2,6.3,4.1,5.6
		c3.8-1,5.4,2.1,3.3,6.2c-1.3,2.4-1.1,2.6,1.4,1.8c1.6-0.5,3.7-0.2,4.8,0.7c2.6,2.1,2.5,9.2,0,10.2c-2.8,1.1,10.7,16.2,15.3,17.2
		c5.2,1.1,13.8-1.8,18.4-6.1c4.8-4.5,7.4-4.8,10.7-1.2c2.2,2.4,2.7,2.5,5.2,0.7c1.6-1.1,4.7-2,6.9-2c2.5,0,5.1-1.1,6.5-2.8
		c2.8-3.3,8.1-3,8.8,0.5c0.3,1.3-1.4,4.6-3.8,7.2c-5.1,5.8-4.7,7.8,1.4,8c2.5,0.1,6.4,1.1,8.5,2.2c2.7,1.4,7.2,2,14.5,1.8
		C716,293.2,717.4,292.9,720.3,289.7L720.3,289.7z"/>
	<path id="Castellon_1_" class="st4" d="M919.5,252c5.1-2.9,5.5-3,9.4-0.7l4.1,2.3l4.6-9c2.5-5,5.9-10.3,7.6-11.7
		c6.2-5.6,14.7-18,21.4-31.3c3.8-7.6,6.9-14,6.9-14.3s-4-4-8.8-8.3c-6.6-5.8-9.2-7.4-10.4-6.2c-2,2-10.7,2-15,0
		c-4.3-1.9-9-0.7-14.2,3.7l-4.2,3.5l2.7,3.8c1.5,2.1,2.7,5.4,2.7,7.4c0,5.9-2.9,15.7-4.9,16.5c-1,0.4-1.8,1.8-1.8,3
		c0,2.6-5.7,5.8-8.6,4.7c-2-0.8-4.1,2.9-2.8,5c1.8,3-2.6,9.2-8.5,12.1c-3.3,1.6-6.4,3.8-6.8,4.8c-1,2.5,3.2,7,8.7,9.3
		c2.9,1.2,4.4,2.8,4.4,4.5c0,2.4,1,3,7.1,4C913.6,254.9,916.5,253.7,919.5,252L919.5,252z"/>
	<path id="Madrid_1_" class="st4" d="M714.8,241.3c1.6-0.9,4.7-3,6.8-4.7c3.1-2.5,5.4-3.2,11.8-3.2c4.4,0,8-0.6,8-1.3
		s1.8-3.4,4.1-5.9l4.1-4.6l-4-4c-3.3-3.3-3.9-4.8-3.3-8.6c0.6-3.7-0.1-5.7-3.8-10.5c-18-24-18.2-24.3-15.8-31.8
		c2.3-7.1,2.2-7.6-2.4-13.3c-6.6-8.3-11.4-6.4-23.1,9.3c-4.4,5.9-10.3,12.9-13,15.4c-2.7,2.6-4.9,6-4.9,7.6c0,2-1.3,3.5-4.2,4.7
		c-2.8,1.2-5,3.5-6.6,7.2c-1.3,3-4.3,7.3-6.7,9.6c-6.2,5.8-8.4,10.5-6.4,13.3c1.5,2,2.3,2,10.4-0.3c4.8-1.4,10.4-3.3,12.4-4.2
		c3.1-1.4,4.2-1.4,7.1,0.5c1.9,1.2,3.4,2.8,3.4,3.5c0,2,6.8,5,14.2,6c3.7,0.5,7.8,1.6,9.1,2.2c3.7,2,2.8,6.9-2,10.9
		c-4.2,3.5-4.2,3.7-1.3,3.7C710.5,242.9,713.2,242.2,714.8,241.3L714.8,241.3z"/>
	<path id="Teruel_1_" class="st4" d="M893.5,232.3c2-1.4,4.9-2.9,6.5-3.4c2.9-0.9,6.5-6.9,5.3-8.9c-0.4-0.6,0-2.7,0.9-4.7
		c1.2-2.5,2.4-3.4,4.2-2.9c3.6,0.9,6.4-0.4,6.4-3c0-1.2,1.2-3.3,2.6-4.5c1.5-1.3,3-4.9,3.6-8.7c0.8-5.4,0.5-7.3-2.1-11.8l-3.1-5.3
		l4.8-4.4c5.9-5.4,10.7-6.8,16.4-4.7c2.4,0.9,6.2,1.5,8.6,1.5c3.7,0,4.6-0.7,6.4-4.9c1.1-2.7,2.4-7.7,2.8-11.3
		c0.6-5.5,0.3-6.8-2.3-9.2c-2.9-2.7-3.3-2.7-7.1-0.8c-3.9,2-4.1,2-9-2.8c-2.7-2.7-5.7-4.8-6.6-4.8s-3.3-1.1-5.2-2.3
		c-2-1.3-4.9-2.2-6.5-2c-1.6,0.2-4.7-1.1-7-3l-4.1-3.4l-3.4,2.7c-1.9,1.5-3.8,4.5-4.3,6.6c-0.8,3.5-2,4.3-11.5,7.5
		c-9.9,3.3-10.9,3.4-13.7,1.4c-4.1-2.9-9.5-2.7-11.5,0.4c-0.9,1.4-3.7,2.9-6.2,3.4c-3,0.6-5.1,2-6.1,4.1c-0.8,1.8-2.7,3.6-4.3,4.1
		c-1.5,0.5-2.8,1.8-2.8,2.9s-1.2,3.6-2.7,5.5c-1.7,2.2-2.3,4-1.5,4.9c0.7,0.8,1.4,5.1,1.7,9.6c0.4,7.3,0.2,8.1-2.3,8.1
		c-4.9,0-6.1,1.7-4.4,6.3c1.3,3.7,1.1,4.5-1.6,6.5c-4.8,3.6-2.6,7.2,6.8,11.3c5.2,2.3,8.6,4.7,9.6,6.8c1.5,3.2,1.6,3.2,5.9,1.2
		c4.2-2,4.9-1.9,12.1,1.1c8.5,3.5,11.7,7.7,8.8,11.3c-0.9,1.1-1.1,2.1-0.4,2.1s3.7,1.9,6.6,4.2l5.2,4.2l0.4-4.1
		C889.7,236.4,891.2,234,893.5,232.3L893.5,232.3z"/>
	<path id="Avila_1_" class="st4" d="M618.2,227.9c2.5-1.6,5.4-2.5,6.5-2.1c1.1,0.4,2.8-0.6,3.9-2.4c5-7.6,11.8-9.9,16.2-5.5
		c2.8,2.8,5.9,1.2,8.9-4.5c1.4-2.7,4.1-6.4,6.1-8.3c2-1.9,5.1-6.2,6.9-9.8c2.2-4.3,4.4-6.7,6.6-7.2c1.8-0.5,3.4-1.7,3.4-2.7
		c0-2.7-1.4-2.4-7.2,1.6c-2.8,1.9-5.9,3.2-6.9,2.8c-1.1-0.4-2.2-4.1-2.7-8.9c-0.8-7-1.5-8.6-4.9-11c-3-2.1-3.9-3.9-3.9-7.4
		c0-3.1-0.8-5-2.6-6c-1.6-0.8-2.9-3.5-3.5-6.9l-0.9-5.5l-3,2.8c-3.8,3.5-7,3.6-8.9,0.1c-1.7-3.2-4.2-3.4-9.5-0.6
		c-3.9,2-4,2.1-4,13.9v11.9l-10.1,8.6c-5.6,4.8-11.3,9.2-12.8,9.9c-3.2,1.4-3.5,3.3-0.7,4.4c5,1.9-1.2,9.2-6.7,7.8
		c-3.6-0.9-7.1,1.8-8.2,6.3c-0.7,2.9,0.1,4.3,4.1,7.8c3.3,2.9,5.7,4,7.2,3.4c6.7-2.8,8.1-2.4,9.6,3.2c1.5,5.4,2.7,6.3,10,6.8
		C612.5,230.7,615.7,229.5,618.2,227.9L618.2,227.9z"/>
	<path id="Guadalajara_1_" class="st4" d="M757,211.8c1.3-9.5,3.8-11.3,17.4-12.4c3.1-0.3,4.4-1.2,5.5-4.4c1.2-3.2,2.4-4.1,5.9-4.5
		c3-0.3,4.6-1.3,5.1-3c0.4-1.6,2.6-3.1,5.6-3.9c6.7-1.8,6.7-1.8,16.4,2.1c8.9,3.6,12,6.3,12,10.3c0.1,3.4,4.3,5.2,7.2,3.1
		c2-1.4,2.1-2.4,0.9-5.6c-1.3-3.4-1.1-4.2,1.5-6.3c1.7-1.3,3.9-2.1,4.9-1.7c1.5,0.6,1.7-0.5,1-5.7c-0.5-3.5-1.5-7.5-2.2-8.9
		c-1-1.9-0.6-3.5,1.6-6.4c3.6-4.8,2.9-6.1-4-7.2c-3-0.5-6.1-2-7.1-3.3s-3.6-4-6-6l-4.3-3.6l-7,3.5c-6.8,3.4-7.3,3.5-18.5,2
		c-12.8-1.7-14.2-2.2-13.2-4.7c1-2.5-6.1-8.8-10-8.8c-1.8,0-4.4-0.9-5.8-2c-2.2-1.7-3.1-1.7-6.5,0.1c-3.2,1.6-5.4,1.8-11.5,0.6
		c-9.7-1.8-9.8-1.8-9.8,0.5c0,2.5-7,7.5-10.5,7.5c-1.5,0-3.4,0.9-4.3,2c-1.4,1.6-0.9,3.2,2.6,8.4c2.3,3.5,3.9,7,3.6,7.8
		c-4.3,9.9-4.1,10.9,2.4,20.5c3.4,5.1,8.2,11.5,10.6,14.3c3.3,3.9,4.3,6.4,4.4,10.7c0,4.2,1,6.7,4,10
		C753.6,222.4,755.8,221,757,211.8L757,211.8z"/>
	<path id="Salamanca_1_" class="st4" d="M517.6,212.7c3-0.5,6.5-2.5,9.2-5.3c2.4-2.5,7.4-5.9,11.1-7.7c6.2-2.9,7.1-3,10.4-1.2
		c2,1.1,4.8,3.8,6.2,6c1.5,2.2,4.6,5.3,7.1,7c4,2.7,4.8,2.8,8.1,1.1c2-1,4.8-2.2,6.1-2.6c1.3-0.4,2.4-1.9,2.4-3.4
		c0-3.4,5.8-7.4,9.4-6.4c1.4,0.4,3.7-0.1,4.9-1c2.1-1.5,2.1-1.7,0.1-2.5c-3-1.2-2.8-5.6,0.4-7.1c1.4-0.7,7.2-5.1,12.8-9.9l10.2-8.7
		v-11.7c0-11-0.2-11.8-3-12.8c-1.7-0.6-3.8-0.9-4.8-0.7c-2.5,0.5-5.6-2.4-5.6-5.3c0-1.8-1.4-2.7-4.8-3.4c-2.9-0.5-5.6-2.2-6.9-4.1
		c-2-3-2.3-3.1-5.9-1.2c-5,2.6-6.2,2.5-10.9-0.8l-3.9-2.8l-4.8,2.8c-4.2,2.5-5.5,2.6-10.7,1.3c-4.4-1.1-8.4-1.1-15.3,0.1
		c-8.9,1.5-9.8,2-16.3,8.8c-3.8,4-6.8,8.1-6.8,9.2s-1.3,2.4-2.8,2.9c-2.6,0.8-2.6,1.1-0.7,3.2c1.9,2.1,1.9,3,0.1,9
		c-1.5,5.1-1.7,7.7-0.6,11c1,3.1,1,7.8,0,15.9c-0.8,6.3-1.1,12.3-0.7,13.3c0.4,1-0.2,2.6-1.4,3.5c-2.9,2.4-2.7,5.8,0.3,5
		C511.7,213.8,515,213.1,517.6,212.7L517.6,212.7z"/>
	<path id="Segovia_1_" class="st4" d="M674.3,181.5c4.2-1.1,14.2-11.3,22.9-23.7c6.2-8.7,10.6-12,16-12c1.5,0,4.3-1.2,6.2-2.7
		c1.9-1.5,4.5-2.7,5.7-2.7c2.6,0,9.5-5.8,9.5-8c0-0.8-1.8-2.3-4-3.5s-4-2.9-4-3.8s-0.8-3.3-1.7-5.3c-1.4-3-2.7-3.6-8.4-4.1
		c-4.4-0.4-7.9,0.1-9.9,1.4c-2.8,1.7-3.7,1.7-7.5-0.4c-3.9-2.1-4.7-2.1-8.3-0.3c-2.2,1.1-5.1,3.3-6.5,4.9c-3.1,3.4-5,3.5-10.5,0.7
		c-3.8-2-4.6-2-8.7,0c-2.7,1.3-6.1,4.8-8.4,8.6c-2.2,3.5-5.2,8.5-6.8,11c-3.3,5.2-2.8,10.1,1.4,14c1.4,1.3,2.6,4.1,2.6,6.2
		c0,2.6,1.2,4.6,3.9,6.6c3.3,2.4,4,4.1,4.8,11.1l0.9,8.2l3.7-2.6C669.1,183.6,672.3,182,674.3,181.5L674.3,181.5z"/>
	<path id="Tarragona_1_" class="st4" d="M980.5,180.9c1.7,0,3.7,0.6,4.4,1.4c2.1,2.1,5.8,0.1,6.7-3.5c0.4-1.7,2.1-3.6,3.6-4.1
		c2.6-0.8,2.6-1.1-1.6-4.5c-3.9-3.2-4.3-4.2-3.5-7.9c0.5-2.4,2-5,3.2-6s3.3-3.4,4.6-5.4c3.2-5,12.1-10.5,21.1-12.8
		c4.1-1.1,9-3.1,11-4.5c2-1.4,5.8-2.6,8.5-2.6s4.8-0.2,4.8-0.5c0-0.5-7.8-16.7-12.8-26.7c-2.6-5.1-2.9-5.3-8.8-4.9
		c-5.2,0.3-6,0.8-5.8,3.2c0.2,2-1,3.4-4.4,5c-2.6,1.2-5.3,3.7-6,5.6c-0.9,2.2-4.4,4.9-10.8,8.1c-9.8,4.9-10.6,4.9-15.8,0.3l-3-2.7
		l-5.4,5.9c-3,3.3-5.4,7.2-5.4,8.8c0,1.7-1.3,3.4-3.4,4.4c-5.7,2.6-7.3,4.7-5.1,6.3c2.8,2.1,3.5,11.2,1.4,18.1l-1.8,6l9.5,8.3
		c7.2,6.3,9.7,7.9,10.6,6.5C977,181.7,978.9,180.9,980.5,180.9L980.5,180.9z"/>
	<path id="Zaragoza_1_" class="st4" d="M848.4,153.3c2-1.8,3.6-3.9,3.6-4.6s2-1.6,4.4-2.1c2.4-0.5,5.5-2,6.7-3.5
		c2.8-3.2,9.9-3.6,14-0.7c2.5,1.7,3.8,1.6,11.7-0.9c7.9-2.6,9.1-3.4,10.4-7.3c0.8-2.4,3.3-5.7,5.5-7.3l4-2.9l5.3,3.7
		c3.1,2.2,6.2,3.3,7.5,2.8c1.2-0.5,3.9,0.4,6,1.9c2.1,1.5,4.5,2.7,5.3,2.7s3.8,2.1,6.6,4.6c4.6,4.1,5.3,4.4,7.7,2.7
		c1.4-1,3.7-1.9,5-1.9s2.4-0.5,2.4-1.2s1.8-1.9,4-2.9c4.3-1.8,5.1-4.9,2.6-9.7c-1-1.9-1.1-3.7-0.1-5.8c2.7-5.9,0-6.4-10.6-2.1
		c-13.6,5.5-17,4.6-21-5.4c-3.2-8-7.4-11.7-16.6-14.8c-5.8-1.9-6.1-2.3-6.9-8c-0.6-4.6-1.8-6.8-5.4-9.7c-2.5-2.1-5.4-3.8-6.4-3.9
		c-3-0.1-8.4-6.5-8.4-10.1c0-1.9,0.7-3.4,1.5-3.4c0.9,0,1.1-1.5,0.7-3.7c-0.4-2-0.2-5.7,0.5-8c1.2-4.1,1.1-4.2-1.4-2.7
		c-3.3,2-4.8,0-6-8.2c-0.5-3.2-1.3-6-1.9-6.4s-1.5-3.8-2-7.7c-1.6-11.7-2-11.7-12.3-0.5c-14.5,15.8-17.1,26.7-9.2,38.5
		c1.8,2.6,3.2,5.4,3.2,6.2c-0.1,2.2-13.1,10.1-16.6,10.1c-1.8,0-6.7-1.5-11-3.4l-7.8-3.4l3,5c2.6,4.3,2.7,5.5,1.2,8.2
		c-1.4,2.5-1.4,4.1-0.1,7.5c1.5,4,1.4,4.5-1.8,7.3c-1.9,1.7-4.6,3-5.9,3c-4.8,0-6.1,3.6-3.5,9.4c2.9,6.3,1.2,9.7-4.6,9.1
		c-2.9-0.3-3.4,0.1-3.1,2.3c0.2,1.5,0.6,4.8,0.7,7.4c0.3,6.1,3.7,11.1,6.3,9.4c3.3-2.1,4.6-1.5,11.1,4.7c5.4,5.2,11.2,8.3,16.6,8.7
		C844.2,156.5,846.4,155.1,848.4,153.3L848.4,153.3z"/>
	<path id="Soria_1_" class="st4" d="M807.7,146.9c3.3-1.6,3.4-1.8,1.3-4.9c-1.2-1.8-2.2-5.5-2.3-8.1s-0.6-5.8-1.1-7
		c-1.3-2.9,2.8-6.9,6-5.9c3.6,1.2,4.4-1.4,1.9-6.2c-2.9-5.6-0.9-10.4,4.7-11.5c4.6-0.9,9.1-5.1,6.9-6.5c-1.7-1.1-1.9-7.4-0.2-10
		c0.8-1.2,0.4-3.5-0.9-6.3c-1.7-3.6-2.6-4.2-4.5-3.2c-5.8,3.1-16.1-0.7-16.1-6c0-3-4.5-6.3-8.5-6.2c-4.8,0-11.7,3-12.4,5.4
		c-0.9,2.9-8.1,7.2-10,6.1c-0.7-0.4-1.6-2.6-2.1-4.8c-0.7-3.4-1.3-3.8-3.4-2.7c-1.4,0.7-2.9,2.4-3.3,3.8s-2.9,3.5-5.4,4.7
		s-5.6,4-6.7,6.2c-1.8,3.5-3.1,4.1-9.4,4.9c-7.1,0.9-7.3,1-6.6,4.6c0.6,2.8-0.5,5.2-4.9,10.7c-4.7,5.9-5.5,7.7-4.7,11
		c0.5,2.2,1.4,4.3,2.1,4.7s1.2,1.8,1.2,3.2s1.5,3.1,3.4,3.9c1.9,0.8,3.4,2.1,3.4,2.8s4,1.9,8.8,2.8c7.7,1.3,9.3,1.2,12.7-0.8
		c3.6-2.1,4.1-2.2,7.3,0c1.9,1.2,4.9,2.2,6.6,2.2c3.6,0,12.5,8.4,11.2,10.6c-0.5,0.8,1.7,1.7,5.6,2.2c3.5,0.5,7.3,1,8.5,1.3
		C801.1,148.7,804.4,148.4,807.7,146.9L807.7,146.9z"/>
	<path id="Valladolid_1_" class="st4" d="M639.9,144.5c1.9-1.5,4.2-2.7,5.2-2.7c1,0,3.1-2.6,4.7-5.7c4.7-9.2,8.9-13.9,14.7-16.5
		c5.2-2.3,5.6-2.3,10,0c4.6,2.5,4.6,2.5,8.8-1c2.3-1.9,5.4-3.9,6.9-4.4c3.4-1.1,3.4-2.6,0.1-5.7c-1.4-1.3-3.6-5.8-4.8-10
		c-2.4-8.4-4.9-10.3-15.6-12.1c-8.8-1.5-23-6.8-28.1-10.5c-2.4-1.7-6-3.6-8.1-4.2c-3-0.8-3.7-1.8-3.8-5.6c-0.2-8-0.4-8.3-3.4-7.5
		c-1.6,0.4-4.2-0.1-5.8-1.2c-2.3-1.5-4-1.6-8-0.5c-9.8,2.7-13.2,10.3-7.6,17.4c3.9,5,3.7,16.5-0.3,19.2c-2.8,1.9-2.9,2.3-1.2,6.6
		c5.7,14,6.2,16.3,3.8,18c-2.5,1.8-3,8.9-0.9,12.9c1,1.8,0.9,3.3-0.2,5.1c-2,3.3-0.5,7.5,2.3,6.4c1.2-0.4,3.9,0.1,6.1,1.2
		c3.5,1.8,4.4,1.8,7.9,0c5.4-2.8,9.2-2.6,11.2,0.6c0.9,1.5,1.9,2.7,2.2,2.7C636.2,147.1,638,145.9,639.9,144.5L639.9,144.5z"/>
	<path id="Zamora_1_" class="st4" d="M603.9,132.3c-0.3-1.1-0.8-4.9-1.1-8.4c-0.4-5-0.1-6.6,1.6-7.2c2.5-1,1.8-5.2-2.1-13
		c-3.2-6.5-3.2-10.1,0.2-11.9c2.1-1.1,2.7-2.8,2.7-7.6c0-5.7-0.2-6.1-2.9-5.4c-3.9,1-7.4-1-9.9-5.9c-3.2-6.1-7.6-8.5-12-6.5
		c-2.6,1.2-4,1.2-5.1,0.1c-0.8-0.8-3.1-1.2-5.1-0.8c-2.5,0.5-4.3-0.1-6-2c-2.3-2.5-2.8-2.6-7.2-0.7c-4.5,1.9-4.9,1.8-7.9-1.5
		c-3.7-4-4.8-4.2-10.1-1.4c-4.2,2.2-9.4,1.6-14.1-1.6c-3.4-2.4-6.1-2.3-6.1,0.1c0,1-2.6,3.7-5.7,6c-6.6,4.7-10.5,8.3-10.5,9.7
		c0,0.6,2.1,2.3,4.6,3.8c3.8,2.4,5.1,2.6,8,1.3c2.9-1.3,4.3-1,9.6,2.1c7.7,4.5,10,8.8,7.1,13.2c-3,4.6-0.9,7.1,8.9,10.4
		c10,3.3,12.5,6.7,9.9,13.4c-1.2,3.2-3,4.6-7.9,6.2c-3.5,1.2-7,2.9-7.8,3.9c-1.2,1.4,0,1.5,6,0.5c5-0.9,9.3-0.8,13,0.1
		c4.8,1.2,6.2,1,10.5-1.5l5-2.9l4.9,2.9c4.8,2.8,5.1,2.8,9.8,0.6c4.8-2.3,4.9-2.3,7.7,1.2c3.3,4,5.7,5.2,9.6,4.8
		C603.5,134.4,604.3,133.5,603.9,132.3L603.9,132.3z"/>
	<path id="Barcelona_1_" class="st4" d="M1055.4,125.6c0.9-2.7,4.5-5.4,7.2-5.4c3.3,0,14.2-8.7,15.3-12.3c0.5-1.7,2.9-3.1,6.8-4.1
		c4.2-1.1,6.7-2.6,8.3-5.3c1.2-2.1,3.8-4.5,5.7-5.3s5-2.6,6.8-4c3.2-2.5,3.3-2.6,0.9-5.2c-1.3-1.5-4.7-3.1-7.4-3.5
		c-7.3-1.2-15.6-6.3-16.1-9.8c-0.2-1.6,0.2-3,0.9-3c0.7,0,2.5-2.5,4-5.5l2.7-5.5l-3-2c-1.7-1.1-7-2.4-11.9-2.8
		c-7-0.7-9.5-1.5-11.9-4.1c-2.5-2.7-2.8-3.7-1.4-5.8c1.5-2.3,1.1-2.7-3.2-3.5c-7.6-1.4-10.9,0.9-13.6,9.8c-1.3,4.3-2.2,9.2-2,10.8
		s-0.3,4.2-1.1,5.7c-1,1.9-1,3.5,0.1,5.5c1.3,2.4,0.9,3.4-2.2,6.7c-2.4,2.5-5.1,3.9-7.5,3.9c-4.4,0-4.2-0.3-2.3,5.1
		c1,2.8,1,5,0.1,6.7c-1,1.9-0.5,4,2.6,9.2c3.8,6.5,5.7,10.4,10.4,21.3c2.1,4.9,2.5,5.1,7,4.4
		C1052.7,127.3,1055.1,126.4,1055.4,125.6L1055.4,125.6z"/>
	<path id="Lerida_1_" class="st4" d="M974.5,117.5c2.8-1.4,3.6-1.2,6.9,2l3.7,3.6l8.2-4.1c5.2-2.6,8.9-5.6,10.2-8
		c1.1-2.1,3.8-4.6,6-5.5c2.8-1.1,3.8-2.3,3.2-3.8c-1.1-2.9,3.2-5.7,8.6-5.7c5.9,0,8-3.7,5.8-10.2c-1.8-5.6-1-7.4,3.7-7.4
		c5.1,0,10.1-5,8.3-8.3c-0.9-1.7-0.9-3.4,0.2-5.3c0.8-1.6,1.2-4.1,0.8-5.7s0.8-7.2,2.6-12.3s3.3-10.5,3.3-11.8c0-1.3,0.9-2.7,2-3.2
		c1.5-0.6,1.7-1.4,0.7-3.2c-1-1.9-2.4-2.3-6.6-1.7c-2.9,0.4-7,0.3-8.9-0.2c-3.5-0.9-3.5-1-1.2-3.5c1.3-1.4,3.5-2.6,4.9-2.6
		c2.1,0,2.3-0.4,1.1-2.7c-1.9-3.5-9.8-7.7-10.5-5.6c-1.3,3.9-5.6,4.3-10.7,1.1c-3.9-2.4-5.8-2.9-7.9-1.9c-2.2,1-3.9,0.5-7.6-2
		c-2.6-1.8-8.3-4-12.7-5s-9-2.7-10.3-3.8c-1.9-1.7-2.7-1.7-4.4-0.4c-2.9,2.4-2.7,3.1,4.3,14.6c5.7,9.3,6.4,11.3,6.8,19.8
		c0.8,16.4,0.6,18.5-3,25.3c-2.2,4.3-3.2,7.8-2.7,9.8c0.9,3.6-5,15.6-9.5,19.4c-4.7,3.9-5.8,7-4.3,12c1,3.3,0.9,5.8-0.3,9.1
		c-0.9,2.6-1.3,5.2-0.9,6s0.2,2.5-0.6,4s-1,3.7-0.5,4.9c0.8,2,1.4,1.7,4.4-1.8C969.7,120.9,972.7,118.4,974.5,117.5L974.5,117.5z"/>
	<path id="Huesca_1_" class="st4" d="M950.8,115.9c12.4-4.9,14.7-7.8,12-15.3c-1.9-5.1-0.7-7.7,6.9-15.8c5.8-6.2,8.1-11.4,7.1-15.9
		c-0.6-2.9,0.1-5.5,2.7-10c3.6-6.2,3.9-8.4,3-23.7c-0.4-6.7-1.5-10.3-4.6-15.5c-4.5-7.6-3.2-7.2-27.4-7.2c-2.6,0-7.6,0.5-11.1,1.2
		c-5.5,1.1-7.3,0.8-13.5-2.1c-5-2.3-9.5-3.3-14.9-3.3c-5.3,0-10.1-1.1-15.4-3.4c-4.2-1.9-7.7-3.2-7.8-3s-2.5,3.2-5.3,6.7
		c-5,6.3-5.1,6.4-3.6,13.5c0.8,3.9,2.5,11.2,3.8,16.1c2.1,8.1,2.6,8.9,4.8,7.6c3.7-2.1,5.1,0.2,3.6,5.7c-0.7,2.6-1,6.6-0.5,9
		c0.5,2.8,0.3,4.4-0.7,4.4c-2.4,0-1.8,4.8,0.9,6.9c1.3,1,4.7,3.1,7.5,4.5c6.7,3.4,10.3,8.1,10.3,13.6c0,3.7,0.7,4.6,4.4,6
		c11,4,13.8,6.2,17.7,14.6c2.2,4.5,4.9,8.5,6.1,8.8l2.7,0.7C939.8,120.1,944.9,118.3,950.8,115.9L950.8,115.9z"/>
	<path id="Palencia_1_" class="st4" d="M690.1,86.5c3.7-3.7,3.4-6.3-1.3-11.7c-2.2-2.5-4-5.5-4-6.5s-1.3-2.1-2.9-2.3
		c-1.9-0.3-4.4-3.1-7.4-8.5c-4.6-8.2-5.7-14.9-3.2-19.6c0.9-1.7,0.9-2.8,0-3.4c-2.3-1.4-1.5-5.1,1.9-8.7c3.7-3.9,8.1-13.6,6.2-13.6
		c-0.7,0-2-1.4-3-3.1s-4.6-5.7-8.1-8.9c-5.2-4.8-6.8-5.5-8.4-4.2c-1.1,0.9-2.6,1.2-3.3,0.8s-3.7-0.2-6.5,0.7
		c-7.7,2.3-12.5,10.9-12.5,22.1c0,7.3-0.4,8.8-3,10.6c-2.4,1.7-2.7,2.4-1.3,3.8c2.4,2.5,2.1,5.8-0.9,8.5c-4.1,3.8-4.6,8.5-1.4,13.7
		c2,3.3,2.6,5.8,2,8.5c-0.8,3.4-0.4,4,2.9,4.8c2.1,0.5,5.7,2.4,8,4.1c4.9,3.7,17.5,8.5,26.2,9.9c3.3,0.5,7.9,2,10.1,3.2
		C685.3,89.8,686.9,89.7,690.1,86.5L690.1,86.5z"/>
	<path id="Orense_1_" class="st4" d="M487.6,86.4c3-1,4.4-2.6,5-5.5c0.5-2.3,2.2-4.6,4-5.4c1.7-0.8,3.9-2.9,4.8-4.6
		c0.9-1.8,2.7-3.5,3.9-3.9c8.5-3,15.6-16,12.2-22.4c-0.8-1.5-1.1-3.6-0.7-4.7c1.4-3.6-8.2-1.5-11.4,2.6c-3.3,4.2-7.9,4.7-13.1,1.3
		c-2.4-1.6-6.6-2.4-12.6-2.5c-8-0.2-9.8-0.7-16.1-5.1c-3.9-2.7-7.9-4.9-8.9-4.9s-2.5-1.4-3.4-3c-0.9-1.7-1.7-3.2-2-3.5
		s-1.9,0.6-3.8,1.8c-2.1,1.4-4.5,1.9-6.3,1.3c-1.6-0.5-4.6-0.2-6.7,0.7c-5.1,2.1-6.1,7.6-2.7,15.1c3.2,7,3.4,11,0.7,13.2
		c-2.4,2-2.7,5.4-0.5,5.4c1,0,1.2,1.5,0.6,4.4c-2.3,11.1-2.3,15.4-0.1,17.7c3.1,3.1,6.6,2.8,11.2-1.1c4.7-4,5.3-4.1,8.5-1.2
		c2.2,2,2.7,2,5.8,0c4.5-2.9,5.5-2.8,10.8,1.2c2.8,2.1,4.8,2.9,5.4,2c1.3-2.1,6.9-1.7,8.8,0.6C483.1,88.2,482.5,88.1,487.6,86.4z"/>
	<path id="Gerona_1_" class="st4" d="M1120.1,77.1c1.7-0.9,3.7-3.4,4.5-5.5c0.8-2.4,2.8-4.4,5.2-5.2c6.8-2.4,7.3-16.5,0.6-19.1
		c-3.8-1.5-3.8-1.4-1.8-6c0.9-1.9,3-3.8,4.7-4.3c4.7-1.2,3.8-5.1-2.3-10.3c-3-2.5-5.4-5.2-5.4-5.9s-3.2-1.2-7.1-1.1
		c-7.9,0.2-19.9,5-19.9,8c0,1.1-2.3,2.5-5.4,3.4c-4.7,1.3-5.9,1.1-9.1-1.2c-2-1.5-6-3.1-8.7-3.6c-4.2-0.8-5.8-0.4-9.8,2.7
		c-3.4,2.6-5.7,3.4-8.1,2.8c-2.9-0.7-8.7,1.4-8.7,3.3c0,0.4,3.3,0.7,7.4,0.8c8.4,0.1,11.1,1.7,9,5.5c-2,3.7,1.1,7.2,6.2,7.2
		c7.1,0,17.4,2.8,19.7,5.3c2,2.2,2,2.9-0.6,8.7c-1.5,3.5-3.4,6.3-4.1,6.3c-2.4,0-1.3,2.6,2,4.8c1.8,1.2,6.5,3,10.4,4
		s8.3,3.1,9.9,4.7l2.8,2.8l2.7-3.3C1115.7,80.2,1118.4,78,1120.1,77.1L1120.1,77.1z"/>
	<path id="Navarra_1_" class="st4" d="M849.6,74.7l6.2-4c0.3-0.2-1-2.3-2.9-4.8c-5.2-6.9-5.9-14.5-2.2-24.4
		c2.6-7.1,5.1-10.3,16-21.2C879.2,8.1,887-1,887-3.1c0-0.5-3.2-0.6-7.1-0.1c-6.1,0.8-8.3,0.3-16.3-3.3c-6.8-3-9-4.7-8.5-6.2
		c0.9-2.4-0.9-2.6-4.5-0.4c-4.1,2.6-6.3-0.3-4.1-5.6c2.3-5.6,1.1-7.9-4.9-8.9c-2.8-0.5-6.5-1.7-8.1-2.8c-4.7-2.9-6.1-2.3-11.2,5
		c-2.6,3.8-6.1,8.5-7.8,10.6c-1.7,2.1-3,4.7-3,5.8s-2,3.6-4.4,5.5c-2.4,1.9-5.3,4.3-6.5,5.2c-1.2,1-2.9,6.2-3.9,11.5
		c-1.4,7.2-2.5,9.9-4.3,10.5c-2.8,0.9-3.1,2.1-1.2,4c0.7,0.7,1.4,3.4,1.7,6c0.4,4.7,0.5,4.7,8.5,5.8c4.5,0.6,9.5,1.8,11.3,2.7
		c4.3,2.2,17.7,18.5,17.7,21.5c0,1.3-2,3.4-4.4,4.6l-4.4,2.3l8.1,3.7C840,79.2,842.6,79.2,849.6,74.7L849.6,74.7z"/>
	<path id="Pontevedra_1_" class="st4" d="M396.1,68.7c0.1-1.7,11-5.2,16.6-5.3c8.9-0.2,11.7-1.5,14.8-6.9l2.9-5l-2.9-7.1
		c-2.4-5.8-2.7-8-1.6-11.9c1.1-4,2.3-5.2,6.6-6.6c2.9-1,5.9-1.3,6.8-0.8s3.7-0.4,6.3-2c4.4-2.7,4.7-3.3,4-7.8
		c-2.4-14-1.9-13.5-9.8-10.2c-2.7,1.1-5.8,1.7-6.8,1.4c-1-0.4-3.6,0.2-5.7,1.3c-2.1,1.1-6.2,2-9,2c-4.4,0-5.9,0.9-10.5,6.2
		c-3,3.4-7,7-9,8.1c-4.6,2.4-6.3,7.2-3.3,9.4c3.3,2.4,2.7,4.1-2.5,8.1c-5.1,3.9-5.1,6.5-0.1,5.2c6-1.5,5.5,2.3-1.1,7.9
		c-5.6,4.8-6.3,5.9-6.3,10.9c0,3.1,1,7,2.2,8.8l2.2,3.1l3.1-3.8C394.6,71.3,396.1,69.2,396.1,68.7L396.1,68.7z"/>
	<path id="Leon_1_" class="st4" d="M601.8,75.8c0.4-0.7,0.2-1.6-0.6-2.1c-2-1.3-1.7-8.4,0.7-12.9c1.6-3,3.7-4.4,9.5-6.1
		c6.9-2,7.7-2,10.8,0c1.8,1.2,3.4,2,3.4,1.8s0.3-2.7,0.5-5.5c0.2-2.8,1.7-7,3.4-9.2c2.2-3,2.6-4.5,1.6-5.6c-2.3-2.3-1.7-6.2,1.2-8
		c2.2-1.4,2.7-3.1,2.7-10s0.7-9.5,4-14.8l4-6.5l-2.2-7.8c-3-10.8-5.8-11.3-19.3-4c-6.3,3.4-11.3,5.3-12.9,4.9
		c-1.5-0.4-3.4,0.2-4.4,1.4c-2,2.5-5.9,2.7-9.7,0.7c-2.2-1.2-3.3-0.9-5.7,1.3c-1.6,1.5-4.1,2.9-5.6,3.1c-3.5,0.5-21.2-1.7-22.9-2.8
		c-2.9-1.9-9.6-0.9-13.5,1.9c-2.2,1.6-5.4,3.3-7,3.9c-1.6,0.5-3.6,1.8-4.5,2.9c-2.1,2.5-8.6,2.5-10.7,0c-1.7-2-5.5-1.4-5.5,0.9
		c0,0.7-1.4,3-3.2,5.1s-4.9,7.7-6.9,12.6c-3.6,8.5-3.7,9-1.5,12.4c1.6,2.5,3,3.2,4.9,2.6c1.4-0.5,3.7-0.5,5.1,0
		c2.5,0.8,2.7,1.7,3,13.7c0.1,3.7,0.9,4.5,6.8,7.1c6.1,2.7,7,2.8,10.6,0.9c5.6-2.9,9.1-2.5,12.6,1.2c2.8,3.1,3.3,3.1,7.6,1.3
		c4.2-1.8,4.8-1.7,7.6,0.9c2.1,2,3.9,2.6,5.9,1.9c1.6-0.5,3.7-0.2,4.7,0.6c1.3,1.1,2.7,1.1,5.3-0.1c4.4-2,8.9,0.7,13.7,8.3
		C598.5,77,600.3,78.1,601.8,75.8L601.8,75.8z"/>
	<path class="st4" d="M762.2,70.5c0.7-2.2,7.2-6.4,8.2-5.3c0.2,0.2,1.2,2.5,2.3,5l1.9,4.6l2.6-2.9c1.4-1.6,3.4-3.8,4.3-4.9
		c3.1-3.7,12.4-5.4,18.5-3.3c4.3,1.5,5.5,2.6,6.1,5.9c0.8,4.7,5.6,7,11.4,5.6c2.8-0.7,3.5-1.5,2.8-3.5c-0.6-1.9,0.2-3.1,3.3-4.7
		c2.3-1.2,4.1-2.6,4.1-3.1c0-1.5-10.4-14-14.5-17.4c-2.3-1.9-6.3-3.3-11.1-3.8c-4.1-0.5-9.8-2-12.7-3.5c-3.9-1.9-6.7-2.4-10.8-1.8
		c-4.7,0.7-6,0.4-8.3-2.1c-1.5-1.6-5.5-4.4-9-6.2l-6.4-3.2l-2,3.1c-1.1,1.7-2,5.8-2,9.1s-0.4,11-0.8,17c-0.7,10.1-0.6,11.1,1.9,11.8
		c1.5,0.5,3,2.5,3.4,4.9c0.7,3.5,1.2,3.9,3.4,2.7C760.2,73.6,761.8,71.9,762.2,70.5L762.2,70.5z"/>
	<path id="Lugo_1_" class="st4" d="M503.3,40.2c1.6-2.5,1.8-4,0.6-7.3c-1.3-3.7-0.9-5.4,4-15.4c3-6.2,6.2-12.2,7.1-13.5
		c2.3-3.2-0.6-9.7-3.9-8.7c-3.2,1-6.3-1.2-5.3-3.7c0.4-1.2,2.8-2.6,5.3-3.3c2.5-0.6,4.6-2.2,4.9-3.4c0.3-1.8-0.6-2.3-4.3-2.3
		c-3.9,0-5.2-0.8-7.6-4.7c-2.9-4.7-3.4-9.4-2.4-23.6c0.4-5.7,0.2-6.1-3.3-6.5c-2.3-0.3-5-2.1-7.2-5c-3.2-4.2-16.2-12.8-19.4-12.8
		c-0.8,0-1.4,3.1-1.4,6.9c0,10.7-2.3,16.7-7.4,19.1c-5.5,2.6-8,10.9-6.7,22.5c0.8,6.7,0.4,8.9-2.7,15.9C450.1,2,450,3,451.4,10.8
		c0.8,4.6,1.1,8.9,0.7,9.6c-1.7,2.7,1.1,7,5.8,9c2.7,1.1,6.9,3.6,9.3,5.5c3.7,2.8,6.1,3.5,13.8,3.7c6.1,0.1,10.3,1,12.4,2.4
		C497.9,44.1,500.9,43.8,503.3,40.2L503.3,40.2z"/>
	<path id="Alava_1_" class="st4" d="M788.5,29.1c-1.9-3.5-0.9-7.3,1.8-7.3c1.1,0,2.5-2.7,3.4-6.8c2.9-12.6,2.3-13.6-8.4-14.7
		c-6-0.6-6.8-1.1-8.1-5.1c-1.4-4.1-1.7-4.3-4.2-2.4c-5.9,4.4-18.2,1-18.2-5c0-3.7-2.9-4.9-6.8-2.9c-5.8,3-6.2,6.6-1.2,11
		c4.3,3.8,4.6,8.5,0.6,8.5c-3.3,0-8.7,3.1-8.7,5c0,1.5,0.6,1.5,2.8,0.4c3.4-1.8,7.1,0.6,6,4c-1,3.1,4.9,8.3,14.9,13.3
		c4.5,2.2,9,5.1,10,6.3c1.4,1.7,3.1,2,6.9,1.4c2.8-0.5,6.2-0.2,7.5,0.5C790,36.8,790.9,33.5,788.5,29.1L788.5,29.1z"/>
	<path id="Burgos_1_" class="st4" d="M715.2,113.1c6.3,0.7,7.3,0.4,7.3-1.6c0-1.3,2.5-5.3,5.5-8.9c4.7-5.6,5.4-7.2,4.6-10.6
		c-1-4.6-0.7-4.7,9.2-6.1c4.3-0.6,6.8-1.6,7.3-3.1c0.4-1.2,1.6-3.3,2.7-4.5c2.5-2.9,1-8.8-2.5-9.7c-2.5-0.7-2.6-1.6-2-13.3
		c1.3-23.5,1.6-26.4,3.2-28.4c1.3-1.6,0.9-2.7-2.4-5.8c-2.4-2.3-3.9-5-3.7-6.6c0.3-1.9-0.3-2.6-1.6-2.2c-5,1.2-6.1,0.7-6.5-2.8
		c-0.3-2.9,0.4-4.1,3.6-5.7c2.2-1.2,5.2-2.1,6.5-2.2c1.9,0,1.4-0.9-2.1-3.9c-3.8-3.2-4.4-4.5-3.7-7.7c1-4.8-3.1-8.1-7.3-5.9
		c-3.7,2-8.4,1.7-11.7-0.6c-3.5-2.5-9.4-1-16.9,4.2c-6.5,4.5-7.9,6.9-6.1,10.5c0.8,1.5,2,3.9,2.6,5.2c2.1,4.2-0.1,7.3-7.3,10.4
		c-5.3,2.3-7.5,2.7-9.3,1.5c-2-1.2-2.6-0.7-3.9,3.3c-0.9,2.6-3.1,6.5-5,8.7c-2.7,3.2-3.1,4.4-1.8,5.9c1.2,1.4,1.2,2.6,0.1,4.6
		c-2.6,4.8-1.6,11.3,2.9,18.7c2.4,4,5.3,7.1,6.6,7.1c1.2,0,3,1.8,3.9,3.9s3.1,5.3,4.9,7c5.3,4.9,3.7,13.6-2.8,16.1
		c-3.2,1.2-3.2,1.3-1.3,7.6c1.1,3.5,2.9,6.9,4,7.5s2.1,2.1,2.1,3.1s1.9,3.1,4.3,4.6c3.7,2.2,4.6,2.3,6.9,0.8
		C707.1,112.9,710.2,112.5,715.2,113.1L715.2,113.1z M769.2,19c1.1,0,3.2,0.7,4.7,1.5s3,1.2,3.2,1c1.1-1.1-1.1-6.3-3-7
		c-3.1-1.2-12.2,1.7-13.1,4.2c-1.2,3,1.9,4.7,4.3,2.3C766.3,19.9,768.1,19,769.2,19L769.2,19z"/>
	<path class="st4" d="M391.7,17.6c3.1-1.9,5.7-2.6,8.1-2c2.9,0.7,4.3,0,7.9-3.9c3.7-4,5.3-4.8,10-4.8c3.1,0,7.4-0.9,9.5-2
		c2.1-1.1,4.7-1.7,5.7-1.3c1,0.4,4.8-0.5,8.5-1.8c5.5-2.1,7.3-3.6,9.9-8.4c2.7-5.1,3-7.2,2.3-14.7c-1.1-12.2,1.8-22,7.3-24.2
		c4.6-1.9,6.8-7.1,6.8-16.1c0-5-0.5-6.3-2.4-6.4c-1.3-0.1-3.3-0.3-4.4-0.5c-5.9-0.9-10.6,0.2-11.5,2.8c-0.5,1.5-2.8,3.7-5.1,4.9
		c-2.4,1.2-4.8,3-5.4,4c-0.6,1-2,1.8-3,1.8c-2.5,0-2.5,4.2,0.1,10.4c1.6,3.9,1.7,5.1,0.3,6c-2.3,1.4-4.8,1.4-5.7-0.1
		c-0.8-1.3-6.9-1-10.6,0.5c-3.2,1.3-17.2,1.4-20.7,0.1c-2.3-0.8-4.1,0-8.3,3.8c-4.1,3.7-6.5,4.8-10.4,4.8c-7.1,0-13.2,6.5-12.6,13.4
		c0.4,4.2,0.9,4.9,4.4,5.5c3.9,0.7,4.6,1.8,6.9,10.4c0.2,0.9,2.3,1.7,4.6,1.7c6.1,0,6.6,3.4,1.3,8.8c-4.4,4.5-4.4,4.7-2,7.3
		C386.3,21,386.1,21,391.7,17.6z"/>
	<path id="Cantabria_1_" class="st4" d="M695.9,10.1c4.2-2.1,4.2-2.2,2.4-5.9l-2.7-5.4c-2.2-4.3,1.8-10.2,9.8-14.8
		c3.9-2.2,8-4,9.2-4.1c1.2,0,5.1-2.2,8.8-4.8c4-2.9,7.8-4.6,9.5-4.3c1.6,0.3,3.9-0.2,5.1-1.2c2.1-1.5,2-1.8-0.8-3.8
		c-1.7-1.2-5.8-2.2-9.3-2.2c-5.2,0-6.6-0.6-9-3.9c-2.6-3.6-3.5-3.8-10.7-3.6c-4.3,0.2-8.8,0.6-9.9,1c-1.1,0.4-4.5,1.4-7.4,2.1
		c-3,0.8-9.6,3-14.7,4.9c-7.7,2.9-10,3.3-13.3,2.1c-5.2-1.8-5-1.9-5,1.3c0,2.7-2.8,4.5-9.6,5.9c-5.4,1.1-7.3,7-4.9,15.2
		c1.5,5.2,2.4,6.4,4.5,6.1c1.4-0.2,4.3-0.6,6.4-0.8c2.1-0.2,4.1-0.8,4.6-1.3c2-2,5.2-0.6,11.1,4.8c3.4,3.1,6.9,6.8,7.7,8.2
		c2.2,3.8,9,7.6,12.1,6.8C690.9,12.3,693.8,11.1,695.9,10.1L695.9,10.1z"/>
	<path id="Asturias_1_" class="st4" d="M536-1.5c2.8-1.6,7-4.3,9.2-6c4.2-3.1,11.3-3.9,16.2-1.8c1.5,0.7,6.6,1.8,11.5,2.5
		c8.2,1.2,9.1,1.1,13.6-2c4.3-2.9,5.3-3.1,8.5-1.7c3,1.4,4.3,1.3,7.6-0.7c2.2-1.3,5.1-2,6.5-1.6c1.4,0.5,4.4-0.5,7.1-2.3
		c8.2-5.5,15.5-8.1,19.8-7.1c3.3,0.7,4.2,0.4,4.9-1.7c0.9-2.8,6.1-5.7,10.3-5.7c1.5,0,3.2-1.3,3.8-3c1-2.6,0.6-3.2-2.4-4.1
		c-1.9-0.6-5.9-0.7-8.7-0.3c-4.2,0.6-5.9,0.1-9.2-2.6c-4.6-3.8-5.2-3.9-12.3-2c-4.6,1.3-5.6,1-10.8-2.6c-4-2.8-8-4.2-13.3-4.8
		c-4.2-0.4-9.8-1.8-12.6-2.9c-4.8-2-5.2-2-8.1,0.7c-2.7,2.5-3.7,2.7-9.3,1.4c-5.5-1.2-7-1-11.8,1.4c-5.1,2.6-5.7,2.7-8.8,0.6
		c-2.6-1.7-3.8-1.8-5.3-0.6c-1.1,0.9-2.9,1.2-4.3,0.5c-2-0.9-8.9-1.5-23.3-2c-7-0.3-8.7,0.7-9.9,5.5c-3.3,13.2,0.4,24.3,8.1,24.3
		c3.1,0,4.6,0.7,5.2,2.6c1.2,3.9-1.6,8.1-5.3,8.1c-1.8,0-3.6,0.6-4.1,1.4c-0.6,0.9,0.4,1.1,2.6,0.5c2.8-0.7,3.7-0.2,5.1,2.7
		c1.3,2.8,2.3,3.4,4.6,2.8c1.8-0.4,3.6,0.1,4.6,1.3C527.9,2.2,529.9,2,536-1.5L536-1.5z"/>
	<path id="Guipuzcoa_1_" class="st4" d="M799.8-1.4c4.5-2.3,9-6.8,9-9c0-1.1,1.5-3.8,3.4-6.2c9.3-11.5,12.5-16.8,11-18.2
		c-2.2-2.2-3.1-1.9-6.9,1.9c-2.2,2.2-4.9,3.4-7.7,3.4c-2.4,0-8.1,0.7-12.6,1.4c-6.9,1.2-8.7,2.1-10.6,5.3c-1.2,2.1-1.9,4.8-1.4,6
		c0.5,1.3-0.3,3.5-2.1,5.4c-4.7,5-2.7,8.8,4.4,8.8c3.1,0,6.6,0.6,7.7,1.3C796.5,0.4,796.3,0.5,799.8-1.4z"/>
	<path id="Vizcaya_1_" class="st4" d="M771.1-10c1-1.2,2.8-1.8,4.1-1.5c3,0.8,6.9-3.4,5.8-6.2c-0.5-1.2,0.5-4.6,2.2-7.6
		s2.7-5.8,2.3-6.2c-1.6-1.6-20.7-5.9-26.2-6c-5.9,0-7.7,2-7.8,8.7c0,3.5-4.3,4.2-7.6,1.3c-2.4-2.1-2.8-2.2-5-0.2
		c-1.4,1.3-3.7,1.8-5.7,1.5c-2.3-0.5-4.6,0.4-7.3,2.7c-6.1,5.2-1.6,8.4,6.6,4.7c2.9-1.3,4.2-1.2,7.4,0.7c3.6,2.2,4.3,2.2,8.1,0.2
		c4.7-2.4,7.2-1.3,8.8,3.9c0.5,1.6,1.5,3.7,2.2,4.6C761.1-7.2,769-7.5,771.1-10L771.1-10z"/>
	<path id="Marco_1_" class="st5" d="M158.5,573.3v-68.8h145.6h145.6v68.8v68.8H304.2H158.5L158.5,573.3L158.5,573.3z"/>
	<path class="st4" d="M173.3,626.8c-3.5-2.4-6.4-5-6.4-6c0-2.5,13.1-8.7,16.2-7.8c4.3,1.4,5.7,5.5,3.8,11.2
		C184.3,632.6,182.4,632.9,173.3,626.8L173.3,626.8z M253.6,607.6c-3.4-1.5-5.3-4.1-9.1-12c-2.6-5.6-4.8-10.4-4.8-10.8
		c0-1.7,8.5-4.8,13.1-4.8c5.2,0,10.5-2.7,15.2-7.7c3.2-3.4,12.3-5.2,16.1-3.1c4.2,2.2,3.6,6.7-1.1,8.3c-5.2,1.8-10.4,9.6-12.3,18.3
		c-1.2,5.7-2.4,7.6-6.5,10.5c-2.8,1.9-5.3,3.4-5.6,3.4S256,608.6,253.6,607.6L253.6,607.6z M217.9,604.6c-3.2-3.7-3.8-6.8-2.2-10.5
		c2.9-6.4,15.9-2.6,15.9,4.6C231.6,605.9,222.3,609.9,217.9,604.6L217.9,604.6z M187.4,574.8c-2.6-1.6-8.7-17.8-7.8-21.1
		c0.5-2,2.1-3.3,4.9-3.8c6.3-1.3,10.3,0.3,12.1,4.7c1.4,3.5,1.3,4.8-1.2,9.8c-1.6,3.2-2.9,6.4-2.9,7.2
		C192.5,573.8,189.2,575.9,187.4,574.8z"/>
	<path class="st4" d="M307.9,623.2c-4.7-2.2-10.2-9.6-10.2-13.8c0-2.3,12.9-17.2,14.8-17.2c1.1,0,3.2,0.9,4.6,2
		c1.8,1.4,3.2,1.6,5.1,0.6c3-1.6,5.2-0.6,5.2,2.5c0,1.2,1,4.8,2.2,8c3.1,8.1,0.9,12.9-7.7,17.3C314.3,626.4,314.7,626.4,307.9,623.2
		L307.9,623.2z M373.5,605.4c-1.7-0.8-3-1.8-3-2.3s2.9-2.3,6.4-4.2c5.7-3,7.1-4.7,12.2-14.8c3.2-6.3,6.4-13.6,7.1-16.2
		c1.9-6.9,3-8.1,8.4-9c4.5-0.7,4.9-0.5,5.6,3.1c2.5,12.7,2.5,16.3-0.4,21.8c-1.6,3-2.8,6.4-2.8,7.6c0,2.8-4.9,5.2-12.1,6.1
		c-4.6,0.6-6.4,1.5-7.4,3.7c-0.7,1.7-3.1,3.6-5.3,4.4C377.5,607.2,377.4,607.2,373.5,605.4L373.5,605.4z M408.1,554.6
		c-3.1-2.5-3.1-2.7-1.1-9.1c2.3-7.4,6.5-10.6,15.5-11.7c5.1-0.6,5.6-0.4,7,3.3c2.7,7.1-1.3,11.8-10,11.9c-1.7,0-3.3,1.1-3.8,2.6
		C414.2,556.4,411.6,557.4,408.1,554.6z M427.4,520.4c-0.9-0.9-1.6-2.1-1.6-2.7c0-1.6,3.7-1.3,4.8,0.4
		C432,520.4,429.3,522.3,427.4,520.4L427.4,520.4z"/>
</g>
</svg>
