<?xml version="1.0" encoding="utf-8"?>
<!-- Generator: Adobe Illustrator 19.0.0, SVG Export Plug-In . SVG Version: 6.00 Build 0)  -->
<svg version="1.1" id="Layer_1" xmlns="http://www.w3.org/2000/svg" xmlns:xlink="http://www.w3.org/1999/xlink" x="0px" y="0px"
	 viewBox="140 -100.1 1122.7 793.3" style="enable-background:new 140 -100.1 1122.7 793.3;" xml:space="preserve">
<style type="text/css">
	.st0{opacity:0.25;enable-background:new    ;}
	.st1{opacity:0.5;fill:#0000FF;enable-background:new    ;}
	.st2{opacity:0.5;fill:#00FF00;enable-background:new    ;}
	.st3{opacity:0.5;enable-background:new    ;}
	.st4{opacity:0.5;fill:#FF7F00;enable-background:new    ;}
	.st5{opacity:0.5;fill:#FF0000;enable-background:new    ;}
	.st6{opacity:0.5;fill:#7F00FF;enable-background:new    ;}
	.st7{opacity:0.5;fill:#007FFF;enable-background:new    ;}
	.st8{opacity:0.5;fill:#007F3F;enable-background:new    ;}
	.st9{opacity:0.5;fill:#C9C93A;enable-background:new    ;}
	.st10{opacity:0.5;fill:#FF007F;enable-background:new    ;}
	.st11{opacity:0.5;fill:#007F00;enable-background:new    ;}
	.st12{opacity:0.5;fill:#FFFF00;enable-background:new    ;}
	.st13{opacity:0.5;fill:#7F007F;enable-background:new    ;}
	.st14{opacity:0.5;fill:#7F0000;enable-background:new    ;}
</style>
<title>Albi Map of Spain</title>
<g>
	<title>Layer 1</title>
	<g id="layer1">
	</g>
	<path id="Marco" class="st0" d="M270.8,587.1v-68.8h145.6h145.6v68.8v68.8H416.5H270.8V587.1z"/>
	<path id="Santa_Cruz_de_Tenerife" class="st1" d="M286.7,640.7c-3.5-2.4-6.4-5-6.4-6c0-2.5,13.1-8.7,16.2-7.8
		c4.3,1.4,5.7,5.5,3.8,11.2C297.7,646.4,295.8,646.8,286.7,640.7z M367,621.4c-3.4-1.5-5.3-4.1-9.1-12c-2.6-5.6-4.8-10.4-4.8-10.8
		c0-1.7,8.5-4.8,13.1-4.8c5.2,0,10.5-2.7,15.2-7.7c3.2-3.4,12.3-5.2,16.1-3.1c4.2,2.2,3.6,6.7-1.1,8.3c-5.2,1.8-10.4,9.6-12.3,18.3
		c-1.2,5.7-2.4,7.6-6.5,10.5c-2.8,1.9-5.3,3.4-5.6,3.4C371.6,623.4,369.4,622.5,367,621.4z M331.3,618.5c-3.2-3.7-3.8-6.8-2.2-10.5
		c2.9-6.4,15.9-2.6,15.9,4.6C345,619.8,335.8,623.7,331.3,618.5z M300.8,588.7c-2.6-1.6-8.7-17.8-7.8-21.1c0.5-2,2.1-3.3,4.9-3.8
		c6.3-1.3,10.2,0.3,12.1,4.7c1.4,3.5,1.3,4.8-1.2,9.8c-1.6,3.2-2.9,6.4-2.9,7.2C305.9,587.7,302.6,589.8,300.8,588.7z"/>
	<path id="Las_Palmas" class="st1" d="M421.3,637.1c-4.7-2.2-10.2-9.6-10.2-13.8c0-2.3,12.9-17.2,14.8-17.2c1.1,0,3.2,0.9,4.6,2
		c1.8,1.4,3.2,1.6,5.1,0.6c3-1.6,5.2-0.6,5.2,2.5c0,1.2,1,4.8,2.2,8c3.1,8.1,0.9,13-7.7,17.3C427.7,640.3,428.2,640.2,421.3,637.1z
		 M486.9,619.2c-1.7-0.8-3-1.8-3-2.3c0-0.4,2.9-2.3,6.4-4.2c5.6-3,7.1-4.7,12.2-14.8c3.2-6.3,6.4-13.6,7.1-16.2c1.9-6.9,3-8.1,8.4-9
		c4.5-0.7,4.9-0.5,5.6,3.1c2.5,12.7,2.5,16.3-0.4,21.8c-1.6,3-2.8,6.4-2.8,7.6c0,2.8-4.9,5.2-12.1,6.1c-4.6,0.6-6.4,1.5-7.4,3.7
		c-0.7,1.7-3.1,3.6-5.3,4.4C490.9,621.1,490.9,621.1,486.9,619.2z M521.5,568.4c-3.1-2.5-3.1-2.7-1.1-9.1
		c2.3-7.4,6.5-10.6,15.5-11.7c5.1-0.6,5.6-0.4,7,3.3c2.7,7.1-1.3,11.8-10,11.9c-1.7,0-3.3,1.1-3.8,2.6
		C527.6,570.2,525,571.2,521.5,568.4z M540.8,534.3c-0.9-0.9-1.6-2.1-1.6-2.7c0-1.6,3.7-1.3,4.8,0.4
		C545.4,534.2,542.7,536.2,540.8,534.3z"/>
	<path id="Islas_Baleares" class="st2" d="M1107.4,335.4c-1.9-2.2-0.5-6,2.5-7c2.5-0.8,4.9,4.9,3,7.2
		C1110.7,338.1,1109.5,338.1,1107.4,335.4z M1091,323.2c-1.5-3.2-1.2-3.9,3.4-8.1c5.2-4.8,11.3-6.1,12.6-2.7c1.1,3-3.2,10-7.5,12.2
		C1094,327.5,1092.8,327.3,1091,323.2z M1159,301.2c-2.4-0.6-5.3-1.8-6.4-2.7c-1.7-1.4-2.5-1.3-4.6,0.6c-2.4,2.1-2.9,2.1-6.7,0.2
		c-6.9-3.6-5.7-7.9,5-18.5c6.7-6.7,10.4-9.2,14-9.9c4.2-0.8,5.1-0.5,5.8,1.9c0.7,2.3,1.4,2.6,3.4,1.5c1.4-0.7,4-1.3,5.9-1.3
		c2.6,0,3.7,1,4.9,4.6c1.3,4,1.1,5.5-1.4,10.5c-3.6,7.1-10.5,14.6-13.3,14.5C1164.4,302.3,1161.4,301.8,1159,301.2z M1204.6,262.8
		c-2.4-2.8-0.5-7.2,4.2-9.6c3.7-1.9,4.7-1.9,10.7,0.1c9.4,3.1,9.1,6.5-0.6,9.3C1209.8,265.3,1206.7,265.3,1204.6,262.8z"/>
	<path id="Ceuta_y_Melilla" class="st3" d="M928,652.6c-0.3-0.3-6.5-2.1-13.7-4.1c-13.4-3.6-27.2-9.3-36-14.7
		c-6.5-4-23.7-10.3-28.2-10.3c-2,0-6.9,1.5-10.9,3.4c-5.7,2.7-8.5,3.2-13,2.6c-4.2-0.6-7-0.2-11,1.9c-12.5,6.4-27.9,8.4-42.3,5.4
		c-7.4-1.5-7.8-1.4-14.9,2.6c-4.4,2.5-10.3,4.5-14.7,5c-6.4,0.8-8.6,0.4-16.3-3.1c-4.9-2.2-13.8-7.1-19.9-10.9
		c-6.1-3.8-16.5-9.1-23.2-11.8c-11.2-4.5-12.8-5.6-19.2-13.5c-9.5-11.7-12.2-12.1-27.7-4.7c-6.4,3.1-12.5,5.6-13.5,5.6
		c-4.8,0-17.6,7.3-22.1,12.7c-3.9,4.7-18.5,31.4-18.5,33.8c0,0.4,77.8,0.7,172.8,0.7C850.8,653.1,928.3,652.9,928,652.6z"/>
	<path id="Cadiz" class="st4" d="M661.5,571.2c1.2-1.3,3-4.8,3.9-7.8c1.3-3.9,2.5-5.4,4.4-5.4c3.8,0,6.5-4.2,5.6-8.6
		c-0.4-2-2.9-6-5.5-8.8c-6.9-7.4-7.5-11.2-2.4-15.2c3.5-2.7,4.2-4.5,5-11.3c1.1-9.4,3.7-11.9,10-9.7c3.3,1.2,4,0.9,6-2.5
		c3-5.1,3-5.2-3.1-3.6c-4.6,1.2-5.7,1.1-8.1-1.1c-2.6-2.4-3.1-2.4-6.5-0.4c-5.4,3.1-10.8,4.1-13.8,2.5c-2.1-1.1-4.5-0.5-11.8,3.2
		c-5,2.5-11.5,5.3-14.3,6.2c-5.1,1.6-5.3,1.6-9.6-3.2c-5.1-5.5-5.7-5.7-12-2.7c-4.9,2.4-9.6,10-8.4,13.8c0.4,1.2,3.4,3.9,6.8,6
		c5.9,3.7,11.5,9.5,11.5,11.9c0,0.6-1.2,2.2-2.7,3.5c-3.8,3.2-3.4,4.7,2.6,11.7c2.9,3.4,5.7,7.3,6.2,8.9c0.8,2.4,1.1,2.5,2.9,0.7
		c2.7-2.7,2.7-2.7,11.7,2.7c4.3,2.6,8.3,4.7,8.9,4.7c0.6,0,2.5,1.5,4.2,3.4C656.8,574.2,658.6,574.4,661.5,571.2z"/>
	<path id="Malaga" class="st4" d="M688.3,542.9c7.4-7,8.7-7.7,13.8-7.6c3.1,0.1,7.4,0.6,9.5,1.1c3.5,0.9,4.6,0.2,11.4-6.9
		c4.1-4.3,8.6-8.7,9.9-9.7c4.7-3.6,21.9-6,39.1-5.7c5.7,0.1,10.5,0,10.5-0.4c0-4.5-17.3-14.5-28.4-16.3c-6.1-1-8.9-4.6-6.8-8.6
		c0.9-1.7,0.9-3-0.1-3.9c-1-1-1-2.2,0.1-4.2c2-3.8,2-3.9-2.6-6.3c-3.8-2-4.3-1.9-7.6,0.6c-4.1,3.2-6.6,3.4-11.5,0.9
		c-3.3-1.7-4-1.6-7.9,1.3c-2.9,2.2-5.4,3-7.8,2.5c-3-0.6-4.1,0.2-7.4,5.5c-2.1,3.4-5,6.8-6.4,7.5c-1.4,0.8-2.6,2.6-2.6,4.2
		c0,2.5-4.8,11.9-6.1,11.9c-0.3,0-2-0.6-3.9-1.3c-5.7-2.2-7.3-0.5-8.3,8.2c-0.7,6.6-1.6,8.6-4.9,11.3l-4,3.3l2.9,4.7
		c1.6,2.6,4,5.5,5.3,6.4c1.3,0.9,2.8,3.4,3.3,5.4c0.5,2,1.3,3.7,1.7,3.7C679.8,550.6,683.8,547.1,688.3,542.9z"/>
	<path id="Granada" class="st4" d="M814.4,514.3c4.6-1.2,9.5-3.2,10.8-4.3c1.3-1.2,3.8-2.8,5.6-3.7c2.7-1.4,3-2.3,2.3-6.1
		c-0.7-3.5,0.1-6.5,3.5-13.4c3.8-7.6,5-9,8.7-9.7c4.3-0.8,9-6.8,15.7-20.2c1.1-2.3,4.3-5.3,7-6.7c6.6-3.5,10.1-10.5,10.1-20.1
		c0-4.1,0.7-8.6,1.6-10c2.2-3.6-2.1-9-9.1-11.3c-5.4-1.8-5.7-1.8-10.4,2.3c-2.7,2.3-6.8,5.7-9.1,7.5c-2.7,2.2-5.5,6.7-7.8,12.6
		c-3.3,8.4-4.1,9.4-8.8,11c-2.9,1-7.5,1.8-10.2,1.7c-2.7,0-7.5,1.2-10.6,2.8c-3.4,1.7-6.9,2.6-8.7,2.1c-2.2-0.6-4,0.2-6.3,2.7
		c-1.8,1.9-4.2,3.5-5.4,3.5c-4.3,0.1-12.6,3.8-14.4,6.5c-1.7,2.4-3,2.7-9.7,2.2c-6.5-0.5-8.3-0.1-11.3,2.4
		c-4.2,3.5-9.5,16.3-7.5,18.3c0.8,0.8,0.8,2.2-0.1,3.9c-1.9,3.6-0.5,5.3,6,7c11,3,26.2,10.9,27.5,14.4c1.1,2.8,2.1,3.3,7.1,3.3
		c4.2,0,6.6,0.8,8.4,2.7c1.5,1.7,3.3,2.4,4.6,1.8C805.1,516.9,809.8,515.5,814.4,514.3z"/>
	<path id="Almeria" class="st4" d="M857.3,514.2c1-3.3,10-10.8,12.8-10.8c4.9,0,12.6,3.1,16.7,6.8c5.1,4.5,5.7,4.2,12.6-4.8
		c2.6-3.4,5.2-9.3,6.8-15.7c2.8-10.9,10.4-24.9,15.9-29.2c3.4-2.6,2.6-4.9-1.2-3.4c-1.1,0.4-4.4-0.5-7.4-2c-4-2.1-5.6-3.8-6.2-7
		c-0.5-2.3-3.3-7.3-6.2-11c-5.9-7.4-5.9-7.5-4.1-10.4c2-3.2-2.3-6.8-8-6.8c-6.6,0-8.2,1.9-8.2,10.3c0,10-4.4,18.5-11.8,22.8
		c-3.2,1.9-5.8,4.1-5.8,4.9c0,0.9-2.5,5.7-5.5,10.7c-4.6,7.7-6.3,9.4-10.5,10.5c-4.2,1.1-5.5,2.5-8.6,8.8c-2.9,5.9-3.5,8.6-2.8,12.7
		c0.8,4.9,0.6,5.4-3.7,7.6c-5.2,2.7-5,2.8,8.9,6.3C852.9,517.5,856.3,517.4,857.3,514.2z"/>
	<path id="Sevilla" class="st4" d="M643.3,500.7c9.4-4.4,11.7-5,14.4-3.8c2.6,1.2,4.4,0.9,9.2-1.4c7-3.4,9.5-3.6,11.8-0.8
		c0.9,1.1,2.7,2,4,2c4,0,14.1-7.7,17.6-13.5c3.2-5.2,7.8-8,10.6-6.2c0.7,0.4,3-0.5,5.1-2.1c2.1-1.6,4.1-3.1,4.4-3.4
		c1.7-1.3-1.4-1.8-3.6-0.6c-4.6,2.5-8.3,0.4-9.9-5.7c-0.8-3.1-2.4-6.6-3.5-7.8c-1.7-1.9-1.8-3.4-0.5-9.2c0.8-3.8,1.5-7.2,1.5-7.5
		c0-0.3-1.7-1.5-3.8-2.5c-3.5-1.8-3.9-1.7-5.5,0.7c-1.2,1.9-2.5,2.4-4.4,1.8c-1.8-0.6-4.6,0.4-8.1,2.7c-4.3,2.8-5.8,3.2-7.3,2
		c-2.2-1.8-2.6-6.1-0.6-7.3c2.8-1.7,1.2-8-3.9-15.6c-2.9-4.3-6.3-10.9-7.7-14.7c-2.1-5.9-3-6.9-6.1-6.9c-2,0-4.3-0.9-5.2-1.9
		c-1.4-1.7-2.2-1.7-6,0.2c-3.4,1.6-4.8,3.5-6.3,8.4c-1.5,5-2.4,6.2-4.6,5.9c-1.5-0.2-5.3,0-8.5,0.4l-5.8,0.8l0.9,5.8
		c0.8,5.2,0.5,6.1-2.8,8.7c-2.3,1.8-5.6,2.9-8.8,2.9c-4.2,0-5.7,0.8-8.1,4.2l-3,4.2l4.9,5c4.3,4.4,4.9,5.8,4.8,11.7
		c0,3.7-0.1,8.2-0.1,10c0,1.9-0.3,10.2-0.7,18.5c-0.4,8.3-0.4,15.2,0,15.2s2.2-0.7,3.9-1.5c3.9-1.8,10.7,1.2,13.1,5.6
		C626.5,508.2,628,507.9,643.3,500.7z"/>
	<path id="Huelva" class="st4" d="M605,485.9c0.4-8.5,0.7-17,0.7-18.9c0-1.9,0-6.1,0-9.5c0-5.3-0.6-6.8-4.7-10.7
		c-5.6-5.4-5.8-7.1-1.3-13c3-3.9,4.2-4.5,9.2-4.5c7.7,0,10.8-3.2,9.5-10c-0.8-4-1.5-4.9-4.2-4.9c-1.8,0-5.1-0.9-7.3-2.1
		c-2.9-1.5-5.9-1.8-10.6-1.2c-6.4,0.8-6.7,0.7-8.8-3.3c-1.2-2.3-3.1-4.2-4.2-4.2c-1.1,0-2.7-1.5-3.5-3.2c-1.3-2.8-2-3.1-5.5-2.1
		c-2.2,0.6-4.9,2.4-6,3.9c-1.1,1.5-3.1,2.7-4.6,2.7c-4.6,0-9.2,4.1-15.6,13.9c-3.4,5.2-6.5,10.4-7,11.6c-0.5,1.2-2.6,4.6-4.7,7.7
		l-3.8,5.6l2.9,10.4c1.6,5.7,2.6,10.7,2.2,11.1c-1.3,1.3,2.1,5.7,4.4,5.7c1.3,0,5.3,1,8.8,2.2c5.9,2,6.6,2,8.8,0
		c3.8-3.4,7.9-2.7,10.3,1.9c1.2,2.2,2.7,4,3.4,4c0.7,0,3.6,2,6.4,4.5s7,5.5,9.4,6.7c2.4,1.2,6.3,4.6,8.7,7.6c2.4,3,4.8,4.9,5.4,4.4
		C603.8,501.9,604.6,494.4,605,485.9z"/>
	<path id="Cordoba" class="st4" d="M736,472.3c4.2-2.6,4.7-2.7,8.8-0.5c4.4,2.3,6.6,1.3,6.6-3c0-3.1,9.2-8.9,13-8.1
		c3.3,0.6,3.1,0.3-2-4.2c-6.3-5.5-8.8-10.8-11.7-24.5c-2.9-13.6-2.5-18.8,1.5-26.1l3.5-6.3l-3-3.2c-1.9-2-2.7-4.1-2.2-5.5
		c1.3-3.3-2.4-8.1-7-9.1c-2.2-0.4-7-3.2-10.8-6.3c-3.8-3-7.3-5.5-7.7-5.5s-3-1.5-5.7-3.4s-6-3.4-7.3-3.4c-1.3,0-3.2-1.7-4.3-3.8
		c-2.6-5.1-8.6-9.1-10.6-7.1c-0.8,0.8-2.4,1.5-3.4,1.5c-1.1,0-5.3,3.7-9.3,8.2c-6.5,7.1-7.8,8.1-11.1,7.3c-3.3-0.7-4-0.2-6.6,4.8
		c-2.6,5.1-2.8,6.3-1.4,13.8c1.3,7.2,1.2,8.5-0.7,9.8c-2,1.5-1.9,2.2,0.5,8.3c1.5,3.7,5.1,10.5,8.1,15.2c5.6,8.7,7,15.4,3.9,18.6
		c-3,3,0,3.2,5.6,0.3c3.1-1.6,6.4-2.7,7.5-2.5c1,0.2,2.8-0.8,3.9-2.3c1.9-2.6,2-2.6,7,0c6.2,3.3,6.5,4,4.7,12
		c-1.2,5.2-1.1,6.9,0.5,8.7c1.1,1.2,2.4,4.3,2.9,6.9c1.2,5.9,2.6,6.8,7.4,5c3.4-1.3,4.2-1,7.8,2.9C729,475.9,730.1,476,736,472.3z"
		/>
	<path id="Jaen" class="st4" d="M776.7,459.8c1.3-2.2,7.6-5.5,13.1-6.8c2.2-0.5,5.8-2.5,8-4.3c2.4-2,5.1-3.1,6.6-2.7
		c1.4,0.4,5.3-0.6,8.7-2c3.4-1.5,8.3-2.9,11.1-3.1c8.2-0.6,13.9-2.4,14.6-4.7c2.1-6.5,6.4-16,8.3-18.2c1.2-1.4,4.5-4,7.3-5.7
		c5.7-3.6,11.7-12.2,13.5-19.5c1.4-5.5-0.1-9.5-6.7-17.1c-4.5-5.3-10.3-6.4-15.3-3c-6.4,4.4-14.9,6.9-17.9,5.3
		c-1.5-0.8-4.5-1.1-6.8-0.6c-2.8,0.6-4.9,0.1-6.5-1.4c-2.3-2-2.7-2-6.6,1.3c-4.3,3.6-8.6,4.6-10.1,2.2c-1.4-2.3-5.9-1.5-7.4,1.3
		c-1.8,3.3-5,3.5-8.3,0.5c-2.3-2.1-2.7-2.1-4.9-0.1c-2,1.8-3.8,2-11.7,0.8c-5.1-0.7-10.1-1-11-0.7c-2.4,0.9-1.5,11,1.2,14
		c3,3.3,2.9,4.4-1.1,11.9c-3.8,7.2-4.1,12.3-1.4,25c2.6,12.3,6.1,18.6,13.7,24.5C774.1,462.2,775.1,462.5,776.7,459.8z"/>
	<path id="Murcia" class="st5" d="M936.2,453.4c0-3.8,11.2-9.6,16.5-8.7c2.7,0.5,6.3,0,9.4-1.3c2.8-1.2,6.8-2.1,9-2.1
		c4.3,0,6.3-3.1,4.7-7.2c-0.5-1.4,0.5-4,2.7-6.8c3.9-5.1,4.4-7.5,1.8-7.5c-1,0-3.2-2-5-4.4c-10.5-14-11.4-17.3-6.6-24
		c1.5-2.1,2.2-4.2,1.5-4.6c-0.7-0.4-1.6-2.4-2.2-4.5s-1.9-4.8-3.1-6.1c-1.8-2-1.9-3.1-0.6-6.5c1.6-4.2,0.5-9.5-2.4-11.3
		c-0.8-0.5-2.1-2.4-2.7-4.2c-1.1-3-1.8-3.2-9.6-2.7c-8.6,0.5-11.9,2.6-11.9,7.6c0,1.2-1.2,3.3-2.7,4.6c-2.6,2.4-2.6,2.4,0,5.8
		c4.2,5.3,3.4,8.9-2.8,13.2l-5.4,3.8l-3.1-2.9c-4.1-3.8-7.8-3.7-11.7,0.4c-2.3,2.4-4,3.1-6.4,2.5c-2.6-0.6-4.1,0.2-7.5,4.3
		c-2.4,2.8-7.5,8.5-11.3,12.6c-6.9,7.5-6.9,7.6-4.5,10.6c1.8,2.2,3.9,3,7.7,3c6.8,0,12.2,5,9.9,9.2c-1.2,2.2-0.6,3.8,3.8,9.2
		c2.9,3.6,5.6,8.5,6.2,11c1.1,5.1,7,8.9,11.9,7.7c2.1-0.5,3.9,0.1,5.5,1.9c2,2.2,3,2.4,5.7,1.2C934.7,456.5,936.2,454.7,936.2,453.4
		z"/>
	<path id="Alicante" class="st6" d="M985.6,414.4c0.4-2.2,1.3-4.4,2-4.8c0.6-0.4,1.2-3.1,1.2-6c0-6.8,2.5-12.1,5.6-12.1
		c1.8,0,2.5-1,2.5-3.4c0-4.4,3.3-10.8,6.1-11.9c1.2-0.5,3.6-0.8,5.4-0.8c1.9,0,3.5-1,4-2.5c1.3-4.1,6.1-8.3,9.5-8.3
		c2.5,0,3.6-1.1,4.8-4.8c1.2-3.6,2.8-5.3,6.7-6.8c4.5-1.8,8.2-6.3,8.2-10.1c0-0.7-4.3-3.4-9.6-6c-9.2-4.5-9.8-4.6-13.6-2.6
		c-2.2,1.1-8.7,3.4-14.4,5c-8.4,2.4-10.3,3.4-9.9,5.4c0.9,5.1-6.9,8.9-8.7,4.3c-0.5-1.3-1.8-1.7-3.7-1.3c-1.6,0.4-5.1-0.2-7.8-1.3
		c-2.7-1.1-5.2-1.7-5.7-1.2c-0.5,0.5-0.4,3.2,0,6.2c0.5,3.4,0.3,5.7-0.7,6.3c-1.2,0.7-1.2,2.1-0.1,5.2c1,2.9,1,5,0.1,6.7
		c-1,2-0.4,4.5,2.6,11l4,8.4l-2.7,3.8c-1.5,2.1-2.7,4.8-2.7,6c0,4.3,11.6,19.7,14.8,19.7C984.2,418.5,985.2,416.6,985.6,414.4z"/>
	<path id="Badajoz" class="st7" d="M637.7,404.8c1.5-5,2.6-6.2,7.4-8.2c5-2.1,5.9-2.1,7.9-0.3c2.7,2.5,5.3,2.5,8.4,0.2
		c2.1-1.6,2.2-2.7,0.9-10c-1.4-7.8-1.3-8.5,2.3-14.5c3.3-5.6,4.1-6.2,7.4-5.6c3.2,0.6,4.7-0.4,11.1-7.3c4.1-4.4,8.3-8,9.4-8
		c2.4,0,9.4-7.7,12.5-13.7c1.3-2.6,1.9-5.7,1.4-8.2c-1.2-6,2.4-11.6,9.4-14.7c5.2-2.3,5.8-3,4.6-5.3c-1-1.9-0.9-3.7,0.7-6.6
		c2.9-5.5,2.7-6-2.3-4.8c-2.4,0.6-8.9,0.9-14.5,0.8c-9.6-0.3-10.4-0.1-16.2,4.3c-3.3,2.5-9.1,6.3-12.8,8.4
		c-3.7,2.1-9.3,5.7-12.5,7.9c-5.5,3.8-6,3.9-11.1,2.2c-4.8-1.6-5.7-1.5-7.9,0.5c-1.7,1.5-3.7,2-5.9,1.5c-2-0.5-5.1,0-7.6,1.3
		c-5,2.6-7.3,1.7-15.9-6.2c-6.1-5.6-7.2-6-11.3-3.8c-3.5,1.9-13.3,0.3-17.4-2.8c-3-2.2-3.2-2.9-1.8-6.5c1.6-4.2,0.5-7.7-3.3-10.7
		c-3.3-2.6-7.9-2.1-8.7,1c-0.4,1.7-1.9,2.7-3.9,2.7c-5.1,0.1-7.9,3.1-7.9,8.5c0,4.1,1,5.6,6.7,10.5c3.7,3.1,6.7,6.8,6.7,8.2
		c0,4.3-6.2,15.5-12.7,23.2c-4.9,5.7-6.5,8.9-7.6,14.9l-1.4,7.6l4.7,4.5c3.3,3.1,5,6.1,5.6,9.9c1.2,7.5,6.6,11.6,12.9,9.8
		c4.2-1.2,6.5-0.2,6.6,3c0,0.5,1.8,1.9,4,3c2.2,1.1,4.4,3.3,4.8,4.9c0.8,2.5,1.6,2.7,7.4,1.9c4.7-0.7,7.5-0.3,10.3,1.2
		c2.9,1.6,6.6,2,15.9,1.6l12.1-0.5L637.7,404.8z"/>
	<path id="Albacete" class="st8" d="M884.5,402c3-3.2,7.1-7.9,9.1-10.6c3.5-4.8,10.8-9.1,12.5-7.4c0.4,0.4,2.6-0.7,4.8-2.5
		c4.8-4,10-4.3,13.8-0.7c2.8,2.6,2.8,2.6,6.8-0.8l4-3.4l-3.1-5.4l-3.1-5.4l2.7-2.9c1.5-1.6,3.1-4.5,3.6-6.6c1.3-5.4,4-6.9,12.5-7.3
		c9.8-0.4,11.6,0.1,13.5,4.2c2.8,6.2,4.2,3.6,3.8-7.5c-0.4-12.2-1.3-13.5-8.9-12.4c-7.5,1-8.7-1.4-7.8-14.8
		c0.9-13.6-1.5-18.9-9.9-21.4c-5.9-1.8-11.7-0.2-25.7,7.2l-7.5,3.9l-5.1-3c-3.2-1.9-5.4-2.5-5.9-1.6c-2,3.2-11.8,6.7-17.7,6.3
		c-7-0.4-18.6-2.4-21.6-3.7c-3.6-1.6-11,13.9-11.4,23.7c-0.3,7.3,0,8.2,2.9,9.5c1.7,0.8,3.2,2.2,3.2,3.1c0,0.9,1.2,3.2,2.7,5.1
		c3.4,4.4,3.4,8.3-0.1,13.9c-3,4.9-2.4,7.8,1.4,6.6c3.4-1.1,9.5,4.4,14,12.7c4,7.4,4,13.7,0,20.1c-1.8,2.9-1.7,3.2,2.5,5
		C877.1,408.6,878.5,408.2,884.5,402z"/>
	<path id="Ciudad_Real" class="st8" d="M762.1,378.7c4.2,0.5,8.6,1.1,9.8,1.5c1.2,0.3,2.9-0.3,3.9-1.5c2.2-2.7,5.3-2.6,8.3,0.2
		c2.3,2.1,2.6,2,5-1c2.4-3,2.9-3.1,7.4-1.5c5.1,1.8,8.2,1,11.6-3c2.1-2.6,6-2.7,8-0.3c0.9,1,3.1,1.6,5.4,1.2c2.2-0.3,5.2,0.1,6.8,1
		c2.4,1.3,4.3,0.8,11.6-2.7c4.8-2.4,8.4-4.8,8-5.5c-0.4-0.7,0.6-4,2.3-7.3c2.5-5,2.8-6.6,1.4-8.4c-0.9-1.3-2.3-3.9-3-5.8
		c-0.8-1.9-2.8-4.2-4.5-4.9c-2.9-1.3-3.1-2.2-2.8-10.6c0.2-7.6,1.1-10.6,4.7-17c2.5-4.3,3.7-7.8,2.8-7.8c-0.9,0-4-2.4-6.9-5.4
		c-5.8-5.8-6.7-6.2-10.8-4c-2,1.1-4.1,0.9-8.5-0.8c-5.6-2.1-6-2.1-11.7,0.7c-3.2,1.6-7.5,4.8-9.5,7.1c-3.5,4.1-3.9,4.2-15.5,4.4
		c-9.2,0.2-13-0.4-16.5-2.2c-2.8-1.5-6-2.1-8.3-1.7c-7.4,1.5-7.9-8.4-0.7-14.3c1.2-1,2.1-2.3,2.1-2.9c0-2.2-3.4-1.2-5.1,1.5
		c-1.1,1.8-3.1,2.7-6.1,2.7c-2.4,0-5.8,1-7.5,2.2c-2.9,2.1-3.4,2-7.2-0.8l-4.1-3l-2.8,2.8c-2.6,2.6-6.6,11.3-6.6,14.4
		c0,0.7,0.4,2.7,0.9,4.3c0.8,2.5-0.1,3.4-5.9,6.4c-7.3,3.7-8.7,6.1-8.9,15.2c-0.1,4-1.4,7.4-4.3,11.6l-4.2,6l3.2,1.4
		c1.7,0.8,4.1,3.2,5.2,5.4c1.2,2.4,3.5,4.3,5.8,4.9c2.1,0.5,8,3.9,13.2,7.5c5.2,3.7,11.6,7.6,14.2,8.8c2.6,1.2,5.6,2.6,6.7,3.2
		c1.1,0.6,2.8,0.2,3.9-0.9C754,378.4,756.4,378.1,762.1,378.7z"/>
	<path id="Valencia" class="st6" d="M990.8,344.2c0-2.7,1.2-3.6,6.7-5.6c3.7-1.3,9.2-2.9,12.2-3.7c3-0.8,6.5-2.1,7.7-3.1
		c2.1-1.6,2.1-2.2-1.2-9.1c-1.9-4.1-4.4-7.9-5.4-8.5c-1.2-0.7-1.5-2.3-1-4.4c0.5-2,0.2-3.3-0.6-3.3c-0.8,0-2.5-1.9-3.7-4.3
		c-2.1-4.1-2.1-5,1.5-19l3.8-14.7l-2.9-2.9l-2.9-2.9l-5.7,3.1c-5.1,2.8-6.4,3-11.4,1.6c-4.2-1.1-5.7-2.3-6-4.5
		c-0.2-1.7-1.6-3.2-3.1-3.5c-1.5-0.3-4.1-1.7-5.7-3.3c-1.7-1.5-3-2.1-3-1.2c0,2.7-3.8,1.7-8.4-2.2c-2.4-2.1-5.5-4.2-6.8-4.7
		c-2.7-1-3.1-3.7-0.7-6.1c2.1-2.1-0.2-4.3-8-7.6c-4.9-2.1-6.3-2.2-9.8-0.7c-5.2,2.2-3.7,4.3,5.1,7.6c9.4,3.5,10.1,4.4,7.6,10.6
		c-1.2,2.8-1.8,6.4-1.5,7.9c1.1,4.1-2.7,10-7.6,11.8c-5.8,2.1-10,10.4-8.3,16.4c1,3.3,2.5,4.6,8.1,6.7c10.1,3.8,11.9,7.1,11.9,22.7
		l0,12.8l6.1,0c7.7,0,8.9,0.9,10,6.7c0.7,3.8,1.8,5.1,5.8,6.8c2.9,1.2,6.5,1.7,8.7,1.2c2.8-0.6,4-0.2,4.6,1.4
		C988.1,349.4,990.8,348,990.8,344.2z"/>
	<path id="Caceres" class="st7" d="M637.1,320.5c1.6,0.4,4.3-0.5,6.4-2c3.5-2.6,3.9-2.6,8-0.5c4.2,2.2,4.5,2.1,9.3-1
		c2.7-1.8,8.3-5.3,12.4-7.8c4.1-2.5,9.8-6.3,12.6-8.5c2.9-2.2,7.4-4.4,10.1-4.8l4.9-0.8l-7.3-7.3l-7.3-7.3l3-2.4
		c4.1-3.3,3.1-7.3-1.7-6.8c-4.3,0.5-5.9-2.2-3.8-6.2c1.2-2.3,1-2.5-1.8-2c-4,0.8-4.7-0.4-5.7-10c-0.6-6.1-0.4-8.3,1.2-9.6
		c2.8-2.3,0-11.6-3-10.3c-6,2.5-8,2-13.9-3.4c-3.3-3-6.6-5.5-7.4-5.5c-0.7,0-3,1.3-5,2.9c-3.6,2.9-3.6,2.9-6.6,0.2
		c-1.6-1.5-4.3-3.4-6-4.3c-1.7-0.9-3-2.3-3-3.1c0-2.2-6.9-9.1-9.1-9.1c-3.3,0-10.3,4.2-15.9,9.5c-4.3,4.1-7,5.4-13.4,6.6
		c-4.4,0.8-8.1,1.5-8.2,1.5c-0.1,0-1.3,2.4-2.6,5.4c-1.8,3.9-2.2,7-1.6,11.6c1.1,8.2-1.3,17.8-5,19.7c-1.6,0.8-4.3,3.2-6,5.4
		c-3.1,3.8-3.5,3.9-15.9,3.9h-12.7l1.9,3.7c1.1,2,3.8,5.5,6,7.6c2.6,2.4,4.4,5.8,5,9.1c1,5.8,1.6,6.2,5.4,3.2c1.4-1.1,3.9-2,5.5-2
		c1.7,0,3.2-1.1,3.6-2.7c1.4-5.5,13.8-2.1,16.8,4.6c1.2,2.6,1.2,4.3,0,6.9c-1.3,2.9-1.2,3.7,1,5.3c3.7,2.8,12,3.9,15.3,2.1
		c3.7-2,7.3-0.7,13.3,4.6c7.7,6.8,9.6,7.6,14.1,5.2C632.7,320.7,635.7,320.1,637.1,320.5z"/>
	<path id="Cuenca" class="st8" d="M888.6,304.7c2.3-1.2,4.5-3,4.8-3.9c0.4-1.3,2-1,6.5,1.1l5.9,2.8l11-5.2
		c6.1-2.8,11.7-5.2,12.4-5.2c0.9,0,0.9-1.8,0-5.4c-1.2-4.7-0.9-6.4,1.8-12.1c2.1-4.4,4.2-6.9,6.3-7.4c5-1.2,8.6-5.7,7.7-9.3
		c-0.4-1.7,0.1-5.4,1.3-8.1l2.1-5l-6.4-2.6c-9.2-3.8-10-4.4-12.8-9.5c-3.4-6.2-4.6-7.1-12.2-9.9c-4.6-1.7-6.9-3.4-7.8-5.9
		c-0.7-2-2.6-4.5-4.2-5.8c-1.6-1.2-3.5-4.2-4.3-6.6c-1.2-3.6-2.9-4.9-9.6-7.6c-9.9-4-17-3.4-19.3,1.6c-1.1,2.4-2.6,3.3-5.5,3.3
		c-3.4,0-4.2,0.7-5.2,4.4c-1,3.8-1.8,4.4-5.8,4.7c-12.1,0.8-16.1,2.5-16.1,7c0,6.3-3,12.2-7.4,14.8c-5.5,3.2-10.7,10.9-8.7,12.9
		c0.7,0.7,1.3,2.8,1.3,4.6c0,1.8,1.2,5.2,2.6,7.5c4.7,7.6,9.8,23.6,8.9,27.8c-0.6,2.9-0.3,4.2,1.6,5.2c1.4,0.7,4.7,3.4,7.5,6
		c2.7,2.6,6.4,4.7,8.1,4.8c4.9,0.1,17.1,2.3,18.1,3.3C872.5,308.5,884.2,307,888.6,304.7z"/>
	<path id="Toledo" class="st8" d="M799.1,300.8c1.8-1.9,6.4-5.1,10.3-7.1c6.9-3.5,7.2-3.5,12.8-1.4c7.2,2.7,9.6,1.8,10.7-4.1
		c1-5.3-3.2-18.5-8.3-26.2c-1.7-2.6-3.1-6.3-3.1-8.2c0-5.1-2.4-6.7-10.2-6.7c-5.3,0-7.5,0.7-9.5,2.8c-3.6,4-9.2,6.6-14,6.6
		c-6.2,0-6.9-3.7-1.6-8.1c2.4-2,4.3-4.3,4.3-5.1c0-1.5-8-4.3-12.4-4.3c-4.1,0-9.8-3.1-13.4-7.3l-3.6-4.1L756,230
		c-2.9,1.2-8.7,3.2-13.1,4.4c-7.1,2-8.1,2-10.2,0.1c-1.4-1.3-3.5-1.8-5.5-1.3c-2.2,0.6-3.5,0.1-4.4-1.4c-2.4-4.2-8.2-2.7-12.4,3.3
		c-2.4,3.5-4.6,5.2-5.8,4.7c-1.1-0.4-4.3,0.5-7.3,2c-3.4,1.7-7.3,2.6-10.9,2.3c-7.1-0.5-8.6,1.7-7.4,10.3c0.9,5.9,1.2,6.3,4.1,5.6
		c3.8-1,5.4,2.1,3.3,6.2c-1.3,2.4-1.1,2.6,1.4,1.8c1.6-0.5,3.7-0.2,4.8,0.7c2.6,2.1,2.5,9.2,0,10.2c-2.8,1.1,10.7,16.2,15.3,17.2
		c5.2,1.1,13.8-1.8,18.4-6.1c4.8-4.5,7.4-4.8,10.7-1.2c2.2,2.4,2.7,2.5,5.2,0.7c1.6-1.1,4.7-2,6.9-2c2.5,0,5.1-1.1,6.5-2.8
		c2.8-3.3,8.1-3,8.8,0.5c0.3,1.3-1.4,4.6-3.8,7.2c-5.1,5.8-4.7,7.8,1.4,8c2.5,0.1,6.4,1.1,8.5,2.2c2.7,1.4,7.2,2,14.5,1.8
		C794.8,304.3,796.2,303.9,799.1,300.8z"/>
	<path id="Castellon" class="st6" d="M998.3,263.1c5.1-2.9,5.5-2.9,9.4-0.7l4.1,2.3l4.6-9c2.5-5,5.9-10.3,7.6-11.7
		c6.2-5.6,14.7-18,21.4-31.3c3.8-7.6,6.9-14,6.9-14.3c0-0.3-4-4-8.8-8.3c-6.6-5.8-9.2-7.4-10.4-6.2c-2,2-10.7,2-15,0
		c-4.3-1.9-9-0.7-14.2,3.7l-4.2,3.5l2.7,3.8c1.5,2.1,2.7,5.4,2.7,7.4c0,5.9-2.9,15.7-4.9,16.5c-1,0.4-1.8,1.8-1.8,3
		c0,2.6-5.7,5.8-8.6,4.7c-2-0.8-4.1,2.9-2.8,5c1.8,3-2.6,9.2-8.5,12.1c-3.3,1.6-6.4,3.8-6.8,4.8c-1,2.5,3.2,7,8.7,9.3
		c2.9,1.2,4.4,2.8,4.4,4.5c0,2.4,1,3,7.2,4C992.5,266,995.4,264.7,998.3,263.1z"/>
	<path id="Madrid" class="st5" d="M793.7,252.4c1.6-0.9,4.7-3,6.8-4.7c3.1-2.5,5.4-3.2,11.8-3.2c4.4,0,8-0.6,8-1.3
		c0-0.7,1.8-3.4,4.1-5.9l4.1-4.6l-4-4c-3.3-3.3-3.9-4.8-3.3-8.6c0.6-3.7-0.1-5.7-3.8-10.5c-18-24-18.2-24.3-15.8-31.8
		c2.3-7.1,2.2-7.6-2.4-13.3c-6.6-8.3-11.4-6.4-23.1,9.3c-4.4,5.9-10.3,12.9-13,15.4c-2.7,2.6-4.9,6-4.9,7.6c0,2-1.3,3.5-4.2,4.7
		c-2.8,1.2-5,3.5-6.6,7.2c-1.3,3-4.3,7.3-6.7,9.6c-6.2,5.8-8.4,10.5-6.4,13.3c1.5,2,2.3,2,10.4-0.3c4.8-1.4,10.4-3.3,12.4-4.2
		c3.1-1.4,4.2-1.4,7.1,0.5c1.9,1.2,3.4,2.8,3.4,3.5c0,2,6.8,5,14.2,6c3.7,0.5,7.8,1.6,9.1,2.2c3.7,2,2.8,6.9-2,10.9
		c-4.2,3.5-4.2,3.7-1.3,3.7C789.3,253.9,792,253.3,793.7,252.4z"/>
	<path id="Teruel" class="st9" d="M972.3,243.4c2-1.4,4.9-2.9,6.5-3.4c2.9-0.9,6.5-6.9,5.3-8.9c-0.4-0.6,0-2.8,0.9-4.7
		c1.2-2.5,2.4-3.4,4.2-2.9c3.6,0.9,6.4-0.4,6.4-3c0-1.2,1.2-3.3,2.6-4.5c1.5-1.3,3-4.9,3.6-8.7c0.8-5.4,0.5-7.3-2.1-11.8l-3.1-5.3
		l4.8-4.4c5.9-5.4,10.7-6.8,16.4-4.7c2.4,0.9,6.2,1.5,8.6,1.5c3.7,0,4.6-0.7,6.4-4.9c1.1-2.7,2.4-7.7,2.8-11.3
		c0.6-5.5,0.3-6.8-2.3-9.2c-2.9-2.7-3.3-2.7-7.1-0.8c-3.9,2-4.1,2-9-2.8c-2.7-2.7-5.7-4.8-6.6-4.8s-3.3-1.1-5.2-2.3
		c-2-1.3-4.9-2.2-6.5-2c-1.6,0.2-4.7-1.1-7-3l-4.1-3.4l-3.4,2.7c-1.9,1.5-3.8,4.5-4.3,6.6c-0.8,3.5-2,4.3-11.5,7.5
		c-9.9,3.3-10.9,3.4-13.7,1.4c-4.1-2.9-9.5-2.7-11.5,0.4c-0.9,1.4-3.7,2.9-6.2,3.4c-3,0.6-5.1,2-6.1,4.1c-0.8,1.8-2.7,3.6-4.3,4.1
		c-1.5,0.5-2.8,1.8-2.8,2.9c0,1.1-1.2,3.6-2.7,5.5c-1.7,2.2-2.3,4-1.5,4.9c0.7,0.8,1.4,5.1,1.7,9.6c0.4,7.3,0.2,8.1-2.3,8.1
		c-4.9,0-6.1,1.7-4.4,6.3c1.3,3.7,1.1,4.5-1.6,6.5c-4.8,3.6-2.6,7.2,6.8,11.3c5.2,2.3,8.6,4.7,9.6,6.8c1.5,3.2,1.6,3.2,5.9,1.2
		c4.2-2,4.9-1.9,12.1,1.1c8.5,3.5,11.7,7.7,8.8,11.3c-0.9,1.1-1.1,2.1-0.4,2.1c0.7,0,3.7,1.9,6.6,4.2l5.2,4.2l0.4-4.1
		C968.6,247.4,970,245,972.3,243.4z"/>
	<path id="Avila" class="st1" d="M697,239c2.5-1.6,5.4-2.5,6.5-2.1c1.1,0.4,2.8-0.6,3.9-2.4c5-7.6,11.8-9.9,16.2-5.5
		c2.8,2.8,5.9,1.2,8.9-4.5c1.4-2.7,4.1-6.4,6.1-8.3s5.1-6.2,6.9-9.8c2.2-4.3,4.4-6.7,6.6-7.2c1.8-0.5,3.4-1.7,3.4-2.7
		c0-2.7-1.4-2.4-7.2,1.6c-2.8,1.9-5.9,3.2-6.9,2.8c-1.1-0.4-2.2-4.1-2.7-8.9c-0.8-7-1.5-8.6-4.9-11c-3-2.1-3.9-3.9-3.9-7.4
		c0-3.1-0.8-5-2.6-6c-1.6-0.8-2.9-3.5-3.5-6.9l-0.9-5.5l-3,2.8c-3.8,3.5-7,3.6-8.9,0.1c-1.7-3.2-4.2-3.4-9.5-0.6c-4,2-4,2.1-4,13.9
		v11.9l-10.1,8.6c-5.6,4.8-11.3,9.2-12.8,9.9c-3.2,1.4-3.5,3.3-0.7,4.4c5,1.9-1.2,9.2-6.7,7.8c-3.6-0.9-7.1,1.8-8.2,6.3
		c-0.7,2.9,0.1,4.3,4.1,7.8c3.3,2.9,5.7,4,7.2,3.4c6.7-2.8,8.1-2.4,9.6,3.2c1.5,5.4,2.7,6.3,10,6.8C691.3,241.7,694.5,240.5,697,239
		z"/>
	<path id="Guadalajara" class="st8" d="M835.9,222.9c1.3-9.5,3.8-11.3,17.4-12.4c3.1-0.3,4.4-1.2,5.5-4.4c1.2-3.2,2.4-4.1,5.9-4.5
		c3-0.3,4.6-1.3,5.1-3c0.4-1.6,2.6-3.1,5.6-3.9c6.7-1.8,6.7-1.8,16.4,2.1c8.9,3.6,12,6.3,12,10.3c0.1,3.4,4.3,5.2,7.2,3.1
		c2-1.4,2.1-2.4,0.9-5.6c-1.3-3.4-1.1-4.2,1.5-6.3c1.7-1.3,3.9-2.1,4.9-1.7c1.5,0.6,1.7-0.5,1-5.7c-0.5-3.5-1.5-7.5-2.2-8.9
		c-1-1.9-0.6-3.5,1.6-6.4c3.6-4.8,2.9-6.1-4-7.2c-3-0.5-6.1-2-7.1-3.3c-0.9-1.3-3.6-4-6-6l-4.3-3.6l-7,3.5c-6.8,3.4-7.3,3.5-18.5,2
		c-12.8-1.7-14.2-2.2-13.2-4.7c1-2.5-6.1-8.8-10-8.8c-1.8,0-4.4-0.9-5.8-2c-2.2-1.7-3.1-1.7-6.5,0.1c-3.2,1.6-5.4,1.8-11.5,0.6
		c-9.7-1.8-9.8-1.8-9.8,0.5c0,2.5-7,7.5-10.5,7.5c-1.5,0-3.4,0.9-4.3,2c-1.4,1.6-0.9,3.2,2.6,8.4c2.3,3.5,3.9,7,3.6,7.8
		c-4.3,9.9-4.1,10.9,2.4,20.5c3.5,5.1,8.2,11.5,10.6,14.3c3.3,3.9,4.3,6.4,4.4,10.7c0,4.2,1,6.7,4,10
		C832.4,233.4,834.6,232.1,835.9,222.9z"/>
	<path id="Salamanca" class="st1" d="M596.4,223.7c3-0.5,6.5-2.5,9.2-5.3c2.4-2.5,7.4-5.9,11.2-7.7c6.2-2.9,7.1-3,10.4-1.2
		c2,1.1,4.8,3.8,6.2,6c1.5,2.2,4.6,5.3,7.1,7c4,2.7,4.8,2.8,8.1,1.1c2-1,4.8-2.2,6.1-2.6c1.3-0.4,2.4-1.9,2.4-3.4
		c0-3.4,5.8-7.4,9.4-6.4c1.4,0.4,3.7-0.1,4.9-1c2.1-1.5,2.1-1.7,0.1-2.5c-3-1.2-2.8-5.6,0.4-7.1c1.4-0.7,7.2-5.1,12.8-9.9l10.2-8.7
		v-11.7c0-11-0.2-11.8-3-12.8c-1.7-0.6-3.8-0.9-4.8-0.7c-2.5,0.5-5.6-2.4-5.6-5.3c0-1.8-1.4-2.7-4.8-3.4c-2.9-0.5-5.6-2.2-6.9-4.1
		c-2-3-2.3-3.1-5.9-1.2c-5,2.6-6.2,2.5-10.9-0.8l-3.9-2.8l-4.8,2.8c-4.2,2.5-5.5,2.6-10.7,1.3c-4.4-1.1-8.4-1.1-15.3,0.1
		c-8.9,1.5-9.8,2-16.3,8.8c-3.8,4-6.8,8.1-6.8,9.2s-1.3,2.4-2.8,2.9c-2.6,0.8-2.6,1.1-0.7,3.2c1.9,2.1,1.9,3,0.1,9
		c-1.5,5.1-1.7,7.7-0.6,11c1,3.1,1,7.8,0,15.9c-0.8,6.3-1.1,12.3-0.7,13.3c0.4,1-0.2,2.6-1.4,3.5c-2.9,2.4-2.7,5.8,0.3,5
		C590.6,224.8,593.8,224.2,596.4,223.7z"/>
	<path id="Segovia" class="st1" d="M753.1,192.6c4.2-1.1,14.2-11.3,22.9-23.7c6.2-8.7,10.6-12,16-12c1.5,0,4.3-1.2,6.2-2.7
		c1.9-1.5,4.5-2.7,5.7-2.7c2.6,0,9.5-5.8,9.5-8c0-0.8-1.8-2.3-4-3.5c-2.2-1.1-4-2.9-4-3.8s-0.8-3.3-1.7-5.3c-1.4-3-2.7-3.6-8.4-4.1
		c-4.4-0.4-7.9,0.1-9.9,1.4c-2.8,1.7-3.7,1.7-7.5-0.4c-3.9-2.1-4.7-2.1-8.3-0.3c-2.2,1.1-5.1,3.3-6.5,4.9c-3.1,3.4-5,3.5-10.5,0.7
		c-3.8-2-4.6-2-8.7,0c-2.7,1.3-6.1,4.8-8.4,8.6c-2.2,3.5-5.2,8.5-6.8,11c-3.3,5.2-2.8,10.1,1.4,14c1.4,1.3,2.6,4.1,2.6,6.2
		c0,2.6,1.2,4.6,3.9,6.6c3.3,2.4,4,4.1,4.8,11.1l0.9,8.2l3.7-2.6C747.9,194.6,751.2,193,753.1,192.6z"/>
	<path id="Tarragona" class="st10" d="M1059.4,191.9c1.7,0,3.7,0.6,4.4,1.4c2.1,2.1,5.8,0.1,6.7-3.5c0.4-1.7,2.1-3.6,3.6-4.1
		c2.6-0.8,2.6-1.1-1.6-4.5c-3.9-3.2-4.3-4.2-3.5-7.9c0.5-2.4,2-5,3.2-6c1.3-0.9,3.3-3.4,4.6-5.4c3.2-5,12.1-10.5,21.1-12.8
		c4.1-1.1,9-3.1,11-4.5c2-1.4,5.8-2.6,8.5-2.6c2.7,0,4.8-0.2,4.8-0.5c0-0.5-7.8-16.7-12.8-26.7c-2.6-5.1-2.9-5.3-8.8-4.9
		c-5.2,0.3-6,0.8-5.8,3.2c0.2,2-1,3.4-4.4,5c-2.6,1.2-5.3,3.7-6,5.6c-0.9,2.2-4.4,4.9-10.8,8.1c-9.8,4.9-10.6,4.9-15.8,0.3l-3-2.7
		l-5.4,5.9c-3,3.3-5.4,7.2-5.4,8.8c0,1.7-1.3,3.4-3.4,4.4c-5.7,2.6-7.4,4.7-5.1,6.3c2.8,2.1,3.5,11.2,1.4,18.1l-1.8,6l9.5,8.3
		c7.2,6.3,9.7,7.9,10.6,6.5C1055.9,192.8,1057.7,191.9,1059.4,191.9z"/>
	<path id="Zaragoza" class="st9" d="M926.2,164.3c2-1.8,3.6-3.9,3.6-4.6c0-0.7,2-1.6,4.4-2.1c2.4-0.5,5.5-2,6.7-3.5
		c2.8-3.2,9.9-3.6,14-0.7c2.5,1.7,3.8,1.6,11.7-0.9c7.9-2.6,9.1-3.4,10.4-7.3c0.8-2.4,3.3-5.7,5.5-7.3l4-2.9l5.3,3.7
		c3.1,2.2,6.2,3.3,7.5,2.8c1.2-0.5,3.9,0.4,6,1.9c2.1,1.5,4.5,2.7,5.3,2.7c0.8,0,3.8,2.1,6.6,4.6c4.6,4.1,5.3,4.4,7.7,2.7
		c1.4-1,3.7-1.9,5-1.9s2.4-0.5,2.4-1.2c0-0.7,1.8-1.9,4-2.9c4.3-1.8,5.1-4.9,2.6-9.7c-1-1.9-1.1-3.7-0.1-5.8c2.7-5.9,0-6.4-10.6-2.1
		c-13.6,5.5-17,4.6-21-5.4c-3.2-8-7.4-11.7-16.6-14.8c-5.8-1.9-6.1-2.3-6.9-8c-0.6-4.6-1.8-6.8-5.4-9.7c-2.5-2.1-5.4-3.8-6.4-3.9
		c-3-0.1-8.4-6.5-8.4-10.1c0-1.9,0.7-3.4,1.5-3.4c0.9,0,1.1-1.5,0.7-3.7c-0.4-2-0.2-5.7,0.5-8c1.2-4.1,1.1-4.2-1.4-2.7
		c-3.3,2-4.8,0-6-8.2c-0.5-3.2-1.3-6-1.9-6.4c-0.6-0.4-1.5-3.8-2-7.7c-1.6-11.7-2-11.7-12.3-0.5c-14.5,15.8-17.1,26.7-9.2,38.5
		c1.8,2.6,3.2,5.4,3.2,6.2c-0.1,2.2-13.1,10.1-16.6,10.1c-1.8,0-6.7-1.5-11-3.4l-7.8-3.4l3,5c2.6,4.3,2.7,5.5,1.2,8.2
		c-1.4,2.5-1.4,4.1-0.1,7.5c1.5,4,1.4,4.5-1.8,7.3c-1.9,1.7-4.6,3-5.9,3c-4.8,0-6.1,3.6-3.5,9.4c2.9,6.3,1.2,9.7-4.6,9.1
		c-2.9-0.3-3.4,0.1-3.1,2.3c0.2,1.5,0.6,4.8,0.7,7.4c0.3,6.1,3.7,11.1,6.3,9.4c3.3-2.1,4.6-1.5,11.1,4.7c5.4,5.2,11.2,8.3,16.6,8.7
		C922,167.6,924.3,166.2,926.2,164.3z"/>
	<path id="Soria" class="st1" d="M886.5,157.9c3.3-1.6,3.4-1.8,1.3-4.9c-1.2-1.8-2.2-5.5-2.3-8.1c-0.1-2.7-0.6-5.8-1.1-7
		c-1.3-2.9,2.8-6.9,6-5.9c3.6,1.2,4.4-1.4,1.9-6.2c-2.9-5.6-0.9-10.4,4.7-11.5c4.6-0.9,9.1-5.1,6.9-6.5c-1.7-1.1-1.9-7.4-0.2-10
		c0.8-1.2,0.4-3.5-0.9-6.3c-1.7-3.6-2.6-4.2-4.5-3.2c-5.8,3.1-16.1-0.7-16.1-6c0-3-4.5-6.3-8.5-6.2c-4.8,0-11.7,3-12.4,5.4
		c-0.9,2.9-8.1,7.2-10,6.1c-0.7-0.4-1.6-2.6-2.1-4.8c-0.7-3.4-1.3-3.8-3.4-2.7c-1.4,0.7-2.9,2.4-3.3,3.8c-0.4,1.3-2.9,3.5-5.4,4.7
		c-2.6,1.2-5.6,4-6.7,6.2c-1.8,3.5-3.1,4.1-9.4,4.9c-7.1,0.9-7.3,1-6.6,4.6c0.6,2.8-0.5,5.2-4.9,10.7c-4.7,5.9-5.5,7.7-4.7,11
		c0.5,2.2,1.4,4.3,2.1,4.7c0.7,0.4,1.2,1.8,1.2,3.2s1.5,3.1,3.4,3.9c1.9,0.8,3.4,2.1,3.4,2.8c0,0.7,4,1.9,8.8,2.8
		c7.7,1.3,9.3,1.2,12.7-0.8c3.6-2.1,4.1-2.2,7.3,0c1.9,1.2,4.9,2.2,6.6,2.2c3.6,0,12.5,8.4,11.2,10.6c-0.5,0.8,1.7,1.7,5.6,2.2
		c3.5,0.5,7.3,1,8.5,1.3C879.9,159.8,883.2,159.5,886.5,157.9z"/>
	<path id="Valladolid" class="st1" d="M718.7,155.5c1.9-1.5,4.2-2.7,5.2-2.7c1,0,3.1-2.6,4.7-5.7c4.7-9.2,8.9-13.9,14.7-16.5
		c5.2-2.3,5.6-2.3,10,0c4.6,2.5,4.6,2.5,8.8-1c2.3-1.9,5.4-3.9,6.9-4.4c3.4-1.1,3.4-2.6,0.1-5.7c-1.4-1.3-3.6-5.8-4.8-10
		c-2.4-8.4-4.9-10.3-15.6-12.1c-8.8-1.5-23-6.8-28.1-10.5c-2.4-1.7-6-3.6-8.1-4.2c-3-0.8-3.7-1.8-3.8-5.6c-0.2-8-0.4-8.3-3.4-7.5
		c-1.6,0.4-4.2-0.1-5.8-1.2c-2.3-1.5-4-1.6-8-0.5c-9.8,2.7-13.2,10.3-7.6,17.4c3.9,5,3.7,16.5-0.3,19.2c-2.8,1.9-2.9,2.3-1.2,6.6
		c5.7,14,6.2,16.3,3.8,18c-2.5,1.8-3,8.9-0.9,12.9c1,1.8,0.9,3.3-0.2,5.1c-2,3.3-0.5,7.5,2.3,6.4c1.2-0.4,3.9,0.1,6.1,1.2
		c3.5,1.8,4.4,1.8,7.9,0c5.4-2.8,9.2-2.6,11.2,0.6c0.9,1.5,1.9,2.7,2.2,2.7C715.1,158.2,716.8,157,718.7,155.5z"/>
	<path id="Zamora" class="st1" d="M682.8,143.3c-0.3-1.1-0.8-4.9-1.1-8.4c-0.4-5-0.1-6.6,1.6-7.2c2.5-1,1.8-5.2-2.1-13
		c-3.2-6.5-3.2-10.1,0.2-11.9c2.1-1.1,2.7-2.8,2.7-7.6c0-5.7-0.2-6.1-2.9-5.4c-3.9,1-7.4-1-9.9-5.9c-3.2-6.1-7.6-8.5-12-6.5
		c-2.6,1.2-4,1.2-5.1,0.1c-0.8-0.8-3.1-1.2-5.1-0.8c-2.5,0.5-4.3-0.1-6-2c-2.3-2.5-2.8-2.6-7.2-0.7c-4.5,1.9-4.9,1.8-7.9-1.5
		c-3.7-4-4.8-4.2-10.1-1.4c-4.2,2.2-9.4,1.6-14.1-1.6c-3.4-2.4-6.1-2.3-6.1,0.1c0,1-2.6,3.8-5.7,6c-6.6,4.7-10.5,8.3-10.5,9.7
		c0,0.6,2.1,2.3,4.6,3.8c3.8,2.4,5.1,2.6,8,1.3c2.9-1.3,4.3-1,9.6,2.1c7.7,4.5,10,8.8,7.1,13.2c-3,4.6-0.9,7.1,8.9,10.4
		c10,3.3,12.5,6.7,9.9,13.4c-1.2,3.2-3,4.6-7.9,6.2c-3.5,1.2-7,2.9-7.8,3.9c-1.2,1.4,0,1.5,6,0.5c5-0.9,9.3-0.8,13,0.1
		c4.8,1.2,6.2,1,10.5-1.5l5-2.9l4.9,2.9c4.8,2.8,5.1,2.8,9.8,0.6c4.8-2.3,4.9-2.3,7.7,1.2c3.3,4,5.7,5.2,9.6,4.8
		C682.3,145.4,683.1,144.6,682.8,143.3z"/>
	<path id="Barcelona" class="st10" d="M1134.2,136.6c0.9-2.7,4.5-5.4,7.2-5.4c3.3,0,14.2-8.7,15.3-12.3c0.5-1.7,2.9-3.1,6.8-4.1
		c4.2-1.1,6.7-2.6,8.3-5.3c1.2-2.1,3.8-4.5,5.7-5.3c1.9-0.8,5-2.6,6.8-4c3.2-2.5,3.3-2.6,0.9-5.2c-1.3-1.5-4.7-3.1-7.4-3.5
		c-7.3-1.2-15.6-6.3-16.1-9.8c-0.2-1.6,0.2-3,0.9-3c0.7,0,2.5-2.5,4-5.5l2.7-5.5l-3-2c-1.7-1.1-7-2.4-11.9-2.8
		c-7-0.7-9.5-1.5-11.9-4.1c-2.5-2.7-2.8-3.7-1.4-5.8c1.5-2.3,1.1-2.7-3.2-3.5c-7.6-1.4-10.9,0.9-13.6,9.8c-1.3,4.3-2.2,9.2-2,10.8
		c0.2,1.7-0.3,4.2-1.1,5.7c-1,1.9-1,3.5,0.1,5.5c1.3,2.4,0.9,3.4-2.2,6.7c-2.4,2.5-5.1,3.9-7.5,3.9c-4.4,0-4.2-0.3-2.3,5.1
		c1,2.8,1,5,0.1,6.7c-1,1.9-0.5,4,2.6,9.2c3.8,6.5,5.7,10.4,10.4,21.3c2.1,4.9,2.5,5.1,7,4.4
		C1131.6,138.4,1133.9,137.4,1134.2,136.6z"/>
	<path id="Lerida" class="st10" d="M1053.3,128.6c2.8-1.4,3.6-1.2,6.9,2l3.7,3.6l8.2-4.1c5.2-2.6,8.9-5.6,10.2-8
		c1.1-2.1,3.8-4.6,6-5.5c2.8-1.1,3.8-2.3,3.2-3.8c-1.1-2.9,3.2-5.7,8.6-5.7c5.9,0,8-3.7,5.8-10.2c-1.8-5.6-1-7.4,3.7-7.4
		c5.1,0,10.1-5,8.3-8.3c-0.9-1.7-0.9-3.4,0.2-5.3c0.8-1.6,1.2-4.1,0.8-5.7c-0.4-1.6,0.8-7.2,2.6-12.3c1.8-5.2,3.3-10.5,3.3-11.8
		c0-1.3,0.9-2.7,2-3.2c1.5-0.6,1.7-1.4,0.7-3.2c-1-1.9-2.4-2.3-6.6-1.7c-2.9,0.4-7,0.3-8.9-0.2c-3.5-0.9-3.5-1-1.2-3.5
		c1.3-1.4,3.5-2.6,4.9-2.6c2.1,0,2.3-0.4,1.1-2.7c-1.9-3.5-9.8-7.7-10.5-5.6c-1.3,3.9-5.6,4.3-10.7,1.1c-3.9-2.4-5.8-2.9-7.9-1.9
		c-2.2,1-3.9,0.5-7.6-2c-2.6-1.8-8.3-4-12.7-5c-4.4-1-9-2.7-10.3-3.8c-1.9-1.7-2.7-1.7-4.4-0.4c-2.9,2.4-2.7,3.1,4.3,14.6
		c5.7,9.3,6.4,11.3,6.8,19.8c0.8,16.4,0.6,18.5-3,25.3c-2.2,4.3-3.2,7.8-2.7,9.8c0.9,3.6-5,15.6-9.5,19.4c-4.7,3.9-5.8,7-4.3,12
		c1,3.3,0.9,5.8-0.3,9.1c-0.9,2.6-1.3,5.2-0.9,6c0.5,0.7,0.2,2.5-0.6,4c-0.8,1.4-1,3.7-0.5,4.9c0.8,2,1.4,1.7,4.4-1.8
		C1048.6,132,1051.6,129.4,1053.3,128.6z"/>
	<path id="Huesca" class="st9" d="M1029.6,127c12.4-4.9,14.7-7.8,12-15.3c-1.9-5.1-0.7-7.7,6.9-15.8c5.8-6.2,8.1-11.4,7.1-15.9
		c-0.6-2.9,0.1-5.5,2.7-10c3.6-6.2,3.9-8.4,3-23.7c-0.4-6.7-1.5-10.3-4.6-15.5c-4.5-7.6-3.2-7.2-27.4-7.2c-2.6,0-7.6,0.5-11.1,1.2
		c-5.5,1.1-7.3,0.8-13.5-2.1c-5-2.3-9.5-3.3-14.9-3.3c-5.3,0-10.1-1.1-15.4-3.4c-4.2-1.9-7.7-3.2-7.8-3c-0.1,0.2-2.5,3.2-5.3,6.7
		c-5,6.3-5.1,6.4-3.6,13.5c0.8,3.9,2.5,11.2,3.8,16.1c2.1,8.1,2.6,8.9,4.8,7.6c3.7-2.1,5.1,0.2,3.6,5.7c-0.7,2.6-1,6.6-0.5,9
		c0.5,2.8,0.3,4.4-0.7,4.4c-2.3,0-1.8,4.8,0.9,6.9c1.3,1,4.7,3.1,7.5,4.5c6.8,3.4,10.3,8.1,10.3,13.6c0,3.7,0.7,4.6,4.4,6
		c11,4,13.8,6.2,17.7,14.6c2.2,4.5,4.9,8.5,6.1,8.8c1.2,0.3,2.4,0.6,2.7,0.7S1023.7,129.3,1029.6,127z"/>
	<path id="Palencia" class="st1" d="M769,97.5c3.7-3.7,3.4-6.3-1.3-11.7c-2.2-2.5-4-5.5-4-6.5c0-1-1.3-2.1-2.9-2.3
		c-2-0.3-4.4-3.1-7.4-8.5c-4.6-8.2-5.7-14.9-3.2-19.6c0.9-1.7,0.9-2.8,0-3.4c-2.3-1.4-1.5-5.1,1.9-8.7c3.7-3.9,8.1-13.6,6.2-13.6
		c-0.7,0-2-1.4-3-3.1c-1-1.7-4.6-5.7-8.1-8.9c-5.2-4.8-6.8-5.5-8.4-4.2c-1.1,0.9-2.6,1.2-3.3,0.8c-0.8-0.5-3.7-0.2-6.5,0.7
		c-7.7,2.3-12.5,10.9-12.5,22.1c0,7.3-0.4,8.8-3,10.6c-2.4,1.7-2.7,2.4-1.3,3.8c2.4,2.5,2.1,5.8-0.9,8.5c-4.1,3.8-4.6,8.5-1.4,13.7
		c2,3.3,2.6,5.8,2,8.5c-0.8,3.4-0.4,4,2.9,4.8c2.1,0.5,5.7,2.4,8,4.1c4.9,3.7,17.5,8.5,26.2,9.9c3.3,0.5,7.9,2,10.1,3.2
		C764.2,100.8,765.7,100.8,769,97.5z"/>
	<path id="Orense" class="st11" d="M566.4,97.4c3-1,4.4-2.6,5-5.5c0.5-2.3,2.2-4.6,4-5.4c1.7-0.8,3.9-2.9,4.8-4.6
		c0.9-1.8,2.7-3.5,3.9-3.9c8.5-3,15.6-16,12.2-22.4c-0.8-1.5-1.1-3.6-0.7-4.7c1.4-3.6-8.2-1.5-11.4,2.6c-3.3,4.2-7.9,4.7-13.1,1.3
		c-2.4-1.6-6.5-2.4-12.6-2.5c-8-0.2-9.8-0.7-16.1-5.1c-3.9-2.7-7.9-4.9-8.9-4.9s-2.5-1.4-3.4-3c-0.9-1.7-1.7-3.2-2-3.5
		c-0.2-0.2-1.9,0.6-3.8,1.8c-2.1,1.4-4.5,1.9-6.3,1.3c-1.6-0.5-4.6-0.2-6.7,0.7c-5.1,2.1-6.1,7.6-2.7,15.1c3.2,7,3.4,11,0.7,13.2
		c-2.4,2-2.7,5.4-0.5,5.4c1,0,1.2,1.5,0.6,4.4c-2.3,11.1-2.3,15.4-0.1,17.7c3.1,3.1,6.6,2.8,11.2-1.1c4.7-4,5.3-4.1,8.5-1.2
		c2.2,2,2.7,2,5.8,0c4.5-2.9,5.5-2.8,10.8,1.2c2.8,2.1,4.8,2.9,5.4,2c1.3-2.1,6.9-1.7,8.8,0.6C561.9,99.3,561.3,99.2,566.4,97.4z"/>
	<path id="Gerona" class="st10" d="M1198.9,88.2c1.7-0.9,3.7-3.4,4.5-5.5c0.8-2.4,2.8-4.4,5.2-5.2c6.8-2.4,7.3-16.5,0.6-19.1
		c-3.8-1.5-3.8-1.4-1.8-6c0.9-1.9,3-3.8,4.7-4.3c4.7-1.2,3.8-5.1-2.3-10.3c-3-2.5-5.4-5.2-5.4-5.9c0-0.7-3.2-1.2-7.1-1.1
		c-7.9,0.2-19.9,5-19.9,8c0,1.1-2.3,2.5-5.4,3.4c-4.7,1.3-5.9,1.1-9.1-1.2c-2-1.5-6-3.1-8.7-3.6c-4.2-0.8-5.8-0.4-9.8,2.7
		c-3.4,2.6-5.7,3.4-8.1,2.8c-2.9-0.7-8.7,1.4-8.7,3.3c0,0.4,3.3,0.7,7.4,0.8c8.4,0.1,11.1,1.7,9,5.5c-2,3.7,1.1,7.2,6.2,7.2
		c7.1,0,17.4,2.8,19.7,5.3c2,2.2,2,2.9-0.6,8.7c-1.5,3.5-3.4,6.3-4.1,6.3c-2.4,0-1.3,2.6,2,4.8c1.8,1.2,6.5,3,10.4,4
		c3.9,1,8.3,3.1,9.9,4.7l2.8,2.8l2.7-3.3C1194.6,91.2,1197.2,89,1198.9,88.2z"/>
	<path id="Navarra" class="st2" d="M928.5,85.8c3.1-2,5.9-3.8,6.2-4c0.3-0.2-1-2.3-2.9-4.8c-5.2-6.9-5.9-14.5-2.2-24.4
		c2.6-7.1,5.1-10.3,16-21.2C958,19.1,965.9,10,965.9,8c0-0.5-3.2-0.6-7.1-0.1c-6.1,0.8-8.3,0.3-16.3-3.3c-6.8-3-9-4.7-8.5-6.2
		c0.9-2.4-0.9-2.6-4.5-0.4c-4.1,2.6-6.3-0.3-4.1-5.6c2.3-5.6,1.1-7.9-4.9-8.9c-2.8-0.5-6.5-1.7-8.1-2.8c-4.7-2.9-6.1-2.3-11.2,5
		c-2.6,3.8-6.1,8.5-7.8,10.6c-1.7,2.1-3,4.7-3,5.8s-2,3.6-4.4,5.5c-2.4,1.9-5.3,4.3-6.5,5.2c-1.2,1-2.9,6.2-3.9,11.5
		c-1.4,7.2-2.5,9.9-4.3,10.5c-2.8,0.9-3.1,2.1-1.2,4c0.7,0.7,1.4,3.4,1.7,6c0.4,4.7,0.5,4.7,8.5,5.8c4.5,0.6,9.5,1.8,11.3,2.7
		c4.3,2.2,17.7,18.5,17.7,21.5c0,1.3-2,3.4-4.4,4.6l-4.4,2.3l8.1,3.7C918.8,90.2,921.5,90.3,928.5,85.8z"/>
	<path id="Pontevedra" class="st11" d="M474.9,79.8c0.1-1.7,11-5.2,16.6-5.3c8.9-0.2,11.7-1.5,14.8-6.9l2.9-5l-2.9-7.1
		c-2.4-5.8-2.7-8-1.6-11.9c1.1-4,2.3-5.2,6.6-6.6c2.9-1,5.9-1.3,6.8-0.8c0.8,0.5,3.7-0.4,6.3-2c4.4-2.7,4.7-3.3,4-7.8
		c-2.4-14-1.9-13.5-9.8-10.2c-2.7,1.1-5.8,1.7-6.8,1.4c-1-0.4-3.6,0.2-5.7,1.3c-2.1,1.1-6.2,2-9,2c-4.4,0-5.9,0.9-10.5,6.2
		c-3,3.4-7,7-9,8.1c-4.6,2.4-6.3,7.2-3.3,9.4c3.3,2.4,2.7,4.1-2.5,8.1c-5.1,3.9-5.1,6.5-0.1,5.2c6-1.5,5.5,2.3-1.1,7.9
		c-5.6,4.8-6.3,5.9-6.3,10.9c0,3.1,1,7,2.2,8.8l2.2,3.1l3.1-3.8C473.5,82.4,474.9,80.3,474.9,79.8z"/>
	<path id="Leon" class="st1" d="M680.6,86.8c0.4-0.7,0.2-1.6-0.6-2.1c-2-1.3-1.7-8.3,0.7-12.9c1.6-3,3.7-4.4,9.5-6.1
		c6.9-2,7.7-2,10.8,0c1.8,1.2,3.4,2,3.4,1.8c0.1-0.2,0.3-2.7,0.5-5.5c0.2-2.8,1.7-7,3.4-9.2c2.2-3,2.6-4.5,1.6-5.6
		c-2.3-2.3-1.7-6.2,1.2-8c2.2-1.4,2.7-3.1,2.7-10c0-6.9,0.7-9.5,4-14.8l4-6.5l-2.2-7.8c-3-10.8-5.8-11.3-19.4-4
		c-6.3,3.4-11.3,5.3-12.9,4.9c-1.5-0.4-3.4,0.2-4.4,1.4c-2,2.5-5.9,2.7-9.7,0.7c-2.2-1.2-3.3-0.9-5.7,1.3c-1.6,1.5-4.1,2.9-5.6,3.1
		c-3.5,0.5-21.2-1.7-22.9-2.8c-2.9-1.9-9.6-0.9-13.5,1.9c-2.2,1.6-5.4,3.3-7,3.9c-1.6,0.5-3.6,1.8-4.5,2.9c-2.1,2.5-8.6,2.5-10.7,0
		c-1.7-2-5.5-1.4-5.5,0.9c0,0.7-1.4,3-3.2,5.1c-1.7,2.1-4.9,7.7-6.9,12.6c-3.6,8.5-3.7,9-1.5,12.4c1.6,2.5,3,3.2,4.9,2.7
		c1.4-0.5,3.7-0.5,5.1,0c2.5,0.8,2.7,1.7,3,13.7c0.1,3.7,0.9,4.5,6.8,7.1c6.1,2.7,7,2.8,10.6,0.9c5.6-2.9,9.1-2.5,12.6,1.2
		c2.8,3.1,3.3,3.1,7.6,1.3c4.2-1.8,4.8-1.7,7.6,0.9c2.1,2,3.9,2.6,5.9,1.9c1.6-0.5,3.7-0.2,4.7,0.6c1.3,1.1,2.7,1.1,5.3-0.1
		c4.4-2,8.9,0.7,13.7,8.3C677.3,88.1,679.1,89.2,680.6,86.8z"/>
	<path id="La_Rioja" class="st12" d="M841.1,81.5c0.7-2.2,7.2-6.4,8.2-5.3c0.2,0.2,1.2,2.5,2.3,5l1.9,4.7l2.6-2.9
		c1.4-1.6,3.4-3.8,4.3-4.9c3.1-3.7,12.4-5.4,18.5-3.3c4.3,1.5,5.5,2.6,6.1,5.9c0.8,4.7,5.6,7,11.4,5.6c2.8-0.7,3.5-1.5,2.8-3.5
		c-0.6-1.9,0.2-3.1,3.3-4.7c2.3-1.2,4.1-2.6,4.1-3.1c0-1.5-10.4-14-14.5-17.4c-2.3-1.9-6.3-3.3-11.1-3.8c-4.1-0.5-9.8-2-12.7-3.5
		c-3.9-1.9-6.7-2.4-10.8-1.8c-4.7,0.7-6,0.4-8.3-2.1c-1.5-1.6-5.5-4.4-9-6.2l-6.4-3.2l-2,3.1c-1.1,1.7-2,5.8-2,9.1
		c0,3.3-0.4,11-0.8,17c-0.7,10.1-0.6,11.1,1.8,11.8c1.5,0.5,3,2.5,3.4,4.9c0.7,3.5,1.2,3.9,3.4,2.7
		C839.1,84.7,840.6,82.9,841.1,81.5z"/>
	<path id="Lugo" class="st11" d="M582.2,51.2c1.6-2.5,1.8-4,0.6-7.3c-1.3-3.7-0.9-5.4,4-15.4c3-6.2,6.2-12.2,7.1-13.5
		c2.3-3.2-0.6-9.7-3.9-8.7c-3.2,1-6.3-1.2-5.3-3.7c0.4-1.2,2.8-2.6,5.3-3.3c2.5-0.6,4.6-2.2,4.9-3.4c0.3-1.8-0.6-2.3-4.3-2.3
		c-3.9,0-5.2-0.8-7.6-4.7c-2.9-4.7-3.4-9.4-2.4-23.6c0.4-5.7,0.2-6.1-3.3-6.5c-2.3-0.3-5-2.1-7.2-5c-3.2-4.2-16.2-12.8-19.4-12.8
		c-0.8,0-1.4,3.1-1.4,6.9c0,10.7-2.3,16.7-7.4,19.1c-5.5,2.6-8,10.9-6.7,22.5c0.8,6.7,0.4,8.9-2.7,15.9c-3.4,7.6-3.5,8.6-2.1,16.4
		c0.8,4.6,1.1,8.9,0.7,9.6c-1.7,2.7,1.1,7,5.8,9c2.7,1.1,6.9,3.6,9.3,5.5c3.7,2.8,6.1,3.5,13.8,3.7c6.1,0.1,10.3,1,12.4,2.4
		C576.7,55.1,579.8,54.9,582.2,51.2z"/>
	<path id="Alava" class="st13" d="M867.4,40.1c-1.9-3.5-0.9-7.3,1.8-7.3c1.1,0,2.5-2.7,3.4-6.8c2.9-12.6,2.3-13.6-8.4-14.7
		c-6-0.6-6.8-1.1-8.1-5.1c-1.4-4.1-1.7-4.3-4.2-2.4c-5.9,4.4-18.2,1-18.2-5c0-3.7-2.9-4.9-6.8-2.9c-5.8,3-6.2,6.6-1.2,11
		c4.3,3.8,4.6,8.5,0.6,8.5c-3.3,0-8.7,3.1-8.7,5c0,1.5,0.6,1.5,2.8,0.4c3.4-1.8,7.1,0.6,6,4c-1,3.1,4.9,8.3,14.9,13.3
		c4.5,2.2,9,5.1,10,6.3c1.4,1.7,3.1,2,6.9,1.4c2.8-0.5,6.2-0.2,7.5,0.5C868.8,47.9,869.7,44.6,867.4,40.1z"/>
	<path id="Burgos" class="st1" d="M794.1,124.1c6.3,0.7,7.3,0.4,7.3-1.6c0-1.3,2.5-5.3,5.5-8.9c4.7-5.6,5.4-7.2,4.6-10.6
		c-1-4.6-0.7-4.7,9.2-6.1c4.3-0.6,6.8-1.6,7.3-3.1c0.4-1.2,1.6-3.3,2.7-4.5c2.5-2.9,1-8.8-2.5-9.7c-2.5-0.7-2.6-1.6-2-13.3
		c1.3-23.5,1.6-26.4,3.2-28.4c1.3-1.6,0.9-2.7-2.4-5.8c-2.4-2.3-3.9-5-3.7-6.6c0.3-1.9-0.3-2.6-1.7-2.2c-5,1.2-6.1,0.7-6.5-2.8
		c-0.3-2.9,0.4-4.1,3.6-5.7c2.2-1.2,5.2-2.1,6.5-2.2c1.9,0,1.4-0.9-2.1-3.9c-3.8-3.2-4.4-4.5-3.7-7.7c1-4.8-3.1-8.1-7.3-5.9
		c-3.7,2-8.4,1.7-11.7-0.6c-3.5-2.5-9.4-1-16.9,4.2c-6.5,4.5-7.9,6.9-6.1,10.5c0.8,1.5,2,3.9,2.6,5.2c2.1,4.2-0.1,7.3-7.3,10.4
		c-5.3,2.3-7.5,2.7-9.3,1.5c-2-1.2-2.6-0.7-3.9,3.3c-0.9,2.6-3.1,6.5-5,8.7c-2.7,3.2-3.1,4.4-1.8,5.9c1.2,1.4,1.2,2.6,0.1,4.6
		c-2.6,4.8-1.6,11.3,2.9,18.7c2.4,4,5.3,7.1,6.6,7.1c1.2,0,3,1.8,3.9,3.9c0.9,2.2,3.1,5.3,4.9,7c5.3,4.9,3.7,13.6-2.8,16.1
		c-3.2,1.2-3.2,1.3-1.3,7.6c1.1,3.5,2.9,6.9,4,7.5c1.1,0.6,2.1,2.1,2.1,3.1c0,1.1,1.9,3.1,4.3,4.6c3.7,2.2,4.6,2.3,6.9,0.8
		C786,123.9,789.1,123.6,794.1,124.1z M848,30.1c1.1,0,3.2,0.7,4.7,1.5s3,1.2,3.2,1c1.1-1.1-1.1-6.3-3-7.1
		c-3.1-1.2-12.2,1.7-13.1,4.2c-1.2,3,1.9,4.7,4.3,2.3C845.2,31,846.9,30.1,848,30.1z"/>
	<path id="La_Coruna" class="st11" d="M470.5,28.6c3.1-1.9,5.7-2.6,8.1-2c2.9,0.7,4.3,0,7.9-3.9c3.7-4,5.3-4.8,10-4.8
		c3.1,0,7.4-0.9,9.5-2c2.1-1.1,4.7-1.7,5.7-1.3c1,0.4,4.8-0.5,8.5-1.8c5.5-2.1,7.3-3.6,9.9-8.4c2.7-5.1,3-7.2,2.3-14.7
		c-1.1-12.2,1.8-22,7.3-24.2c4.6-1.9,6.8-7.1,6.8-16.1c0-5-0.5-6.3-2.4-6.4c-1.3-0.1-3.3-0.3-4.4-0.5c-5.9-0.9-10.6,0.2-11.5,2.8
		c-0.5,1.5-2.8,3.7-5.1,4.9c-2.4,1.2-4.8,3-5.4,4c-0.6,1-2,1.8-3,1.8c-2.5,0-2.5,4.2,0.1,10.4c1.6,3.9,1.7,5.1,0.3,6
		c-2.3,1.4-4.8,1.4-5.7-0.1c-0.8-1.3-6.9-1-10.6,0.5c-3.2,1.3-17.2,1.4-20.7,0.1c-2.3-0.8-4.1,0-8.3,3.8c-4.1,3.7-6.5,4.8-10.4,4.8
		c-7.1,0-13.2,6.5-12.6,13.4c0.4,4.2,0.9,4.9,4.4,5.5c3.9,0.7,4.6,1.8,6.9,10.4c0.2,0.9,2.3,1.7,4.6,1.7c6.1,0,6.6,3.4,1.3,8.8
		c-4.4,4.5-4.4,4.7-2,7.3C465.2,32.1,464.9,32.1,470.5,28.6z"/>
	<path id="Cantabria" class="st5" d="M774.7,21.1c4.2-2.1,4.2-2.2,2.4-5.9c-0.7-1.5-2-3.9-2.7-5.4c-2.2-4.3,1.8-10.2,9.8-14.8
		c3.9-2.2,8-4,9.2-4.1c1.2,0,5.1-2.2,8.8-4.8c4-2.9,7.8-4.6,9.5-4.3c1.6,0.3,3.9-0.2,5.1-1.2c2.1-1.5,2-1.8-0.8-3.8
		c-1.7-1.2-5.8-2.2-9.3-2.2c-5.2,0-6.6-0.6-9-3.9c-2.6-3.6-3.5-3.8-10.7-3.6c-4.3,0.2-8.8,0.6-9.9,1c-1.1,0.4-4.5,1.4-7.4,2.1
		c-3,0.8-9.6,3-14.7,4.9c-7.7,2.9-10,3.3-13.3,2.1c-5.2-1.8-5-1.9-5,1.3c0,2.7-2.8,4.5-9.6,5.9c-5.4,1.1-7.3,7-4.9,15.2
		c1.5,5.2,2.4,6.4,4.5,6.1c1.4-0.2,4.3-0.6,6.4-0.8c2.1-0.2,4.1-0.8,4.6-1.3c2-2,5.2-0.6,11.1,4.8c3.4,3.1,6.9,6.8,7.7,8.2
		c2.2,3.8,9,7.6,12.1,6.8C769.8,23.3,772.7,22.2,774.7,21.1z"/>
	<path id="Asturias" class="st14" d="M614.8,9.6c2.8-1.6,7-4.3,9.2-6c4.2-3.1,11.3-3.9,16.2-1.8c1.5,0.7,6.6,1.8,11.5,2.5
		c8.2,1.2,9.1,1.1,13.6-2c4.3-2.9,5.3-3.1,8.5-1.7c3,1.4,4.3,1.3,7.6-0.7c2.2-1.3,5.1-2,6.5-1.6c1.4,0.5,4.4-0.5,7.1-2.3
		c8.2-5.5,15.5-8.1,19.8-7.1c3.3,0.7,4.2,0.4,4.9-1.7c0.9-2.8,6.1-5.7,10.3-5.7c1.5,0,3.2-1.3,3.8-3c1-2.6,0.6-3.2-2.4-4.1
		c-1.9-0.6-5.9-0.7-8.7-0.3c-4.2,0.6-5.9,0.1-9.2-2.6c-4.6-3.8-5.2-3.9-12.3-2c-4.6,1.3-5.6,1-10.8-2.6c-4-2.8-8-4.2-13.3-4.8
		c-4.2-0.4-9.8-1.8-12.6-2.9c-4.8-2-5.2-2-8.1,0.7c-2.7,2.5-3.7,2.7-9.3,1.4c-5.5-1.2-7-1-11.8,1.4c-5.1,2.6-5.7,2.7-8.8,0.6
		c-2.6-1.7-3.8-1.8-5.3-0.6c-1.1,0.9-2.9,1.2-4.3,0.5c-2-0.9-8.9-1.5-23.3-2c-7-0.3-8.7,0.7-9.9,5.5C580.4-20,584.1-9,591.8-9
		c3.1,0,4.6,0.7,5.2,2.6c1.2,3.9-1.6,8.1-5.3,8.1c-1.8,0-3.6,0.6-4.1,1.4c-0.6,0.9,0.3,1.1,2.6,0.5c2.8-0.7,3.7-0.2,5.1,2.7
		c1.3,2.8,2.3,3.4,4.6,2.8c1.8-0.4,3.6,0.1,4.6,1.3C606.7,13.3,608.8,13.1,614.8,9.6L614.8,9.6z"/>
	<path id="Guipuzcoa" class="st13" d="M878.6,9.7c4.5-2.3,9-6.8,9-9c0-1.1,1.5-3.8,3.4-6.2c9.3-11.5,12.5-16.8,11-18.2
		c-2.2-2.2-3.1-1.9-6.9,1.9c-2.2,2.2-4.9,3.4-7.7,3.4c-2.4,0-8.1,0.7-12.6,1.4c-6.9,1.2-8.7,2.1-10.6,5.3c-1.2,2.1-1.9,4.8-1.4,6
		c0.5,1.3-0.3,3.5-2.1,5.4c-4.7,5-2.7,8.8,4.4,8.8c3.1,0,6.6,0.6,7.7,1.3C875.3,11.5,875.1,11.5,878.6,9.7z"/>
	<path id="Vizcaya" class="st13" d="M850,1c1-1.2,2.8-1.8,4.1-1.5c3,0.8,6.9-3.4,5.8-6.2c-0.5-1.2,0.5-4.6,2.2-7.6
		c1.7-3,2.7-5.8,2.3-6.2c-1.6-1.6-20.7-5.9-26.2-6c-5.9,0-7.7,2-7.8,8.7c0,3.5-4.3,4.2-7.5,1.3c-2.4-2.1-2.8-2.2-5-0.2
		c-1.4,1.3-3.7,1.8-5.7,1.5c-2.3-0.5-4.6,0.4-7.3,2.7c-6.1,5.2-1.6,8.4,6.6,4.7c2.9-1.3,4.2-1.2,7.4,0.7C822.5-5,823.1-5,827-7
		c4.7-2.4,7.2-1.3,8.8,3.9c0.5,1.6,1.5,3.7,2.2,4.6C840,3.8,847.9,3.5,850,1z"/>
</g>
</svg>
